<svg width="192" height="34" viewBox="0 0 192 34" fill="none" xmlns="http://www.w3.org/2000/svg">
<g clip-path="url(#clip0_1247_2243)">
<path d="M23.4437 26.0475C23.1802 26.0203 22.9281 26.0553 22.6971 26.1387C22.5844 26.1795 22.4717 26.2164 22.3572 26.2436C22.2426 26.2708 22.1089 26.296 22.0134 26.296C21.4157 26.296 20.8982 25.9485 20.6443 25.4417C20.6061 25.366 20.566 25.2379 20.5373 25.1272C20.5144 25.0418 20.4934 24.9544 20.4781 24.867C20.3426 24.0555 19.6513 23.4381 18.8149 23.4381C18.5857 23.4381 18.3681 23.4847 18.1676 23.5701C18.1332 23.5837 18.1007 23.5992 18.0663 23.6109C17.9078 23.6691 17.7379 23.7002 17.5603 23.7002C16.9321 23.7002 16.3916 23.3158 16.1549 22.7663C16.0899 22.6149 16.0288 22.277 16.0288 22.277C15.899 21.4597 15.2039 20.8345 14.3637 20.8345C14.1594 20.8345 13.9646 20.8733 13.7832 20.9413C13.7832 20.9413 13.3516 21.0888 13.1148 21.0888C12.4637 21.0888 11.908 20.6772 11.6845 20.0948C11.6292 19.9492 11.57 19.623 11.57 19.623C11.4955 19.2308 11.2912 18.8871 11.0028 18.6386C10.9207 18.5687 10.8443 18.4949 10.7718 18.4134C10.6916 18.3222 10.5961 18.2076 10.5484 18.1222C10.4185 17.8931 10.3421 17.6271 10.3421 17.3436C10.3421 17.0116 10.4433 16.7049 10.6171 16.4505C10.6553 16.3962 10.7183 16.3224 10.7775 16.2603C10.8462 16.1865 10.9188 16.1205 10.9952 16.0545C11.3637 15.7399 11.5986 15.2681 11.5986 14.74C11.5986 14.2119 11.3618 13.7402 10.9933 13.4256C10.9112 13.3557 10.831 13.2839 10.7584 13.2043C10.7298 13.1732 10.703 13.1441 10.682 13.1189C10.4681 12.8509 10.3402 12.5092 10.3402 12.1365C10.3402 11.8569 10.4128 11.5928 10.5407 11.3657C10.5942 11.2705 10.7011 11.1424 10.787 11.0473C10.8501 10.9754 10.9207 10.9114 10.9933 10.8492C11.3886 10.5114 11.6311 9.99495 11.5948 9.4222C11.5394 8.55045 10.8348 7.85345 9.97739 7.82044C9.01305 7.78161 8.22058 8.56405 8.22058 9.53675C8.22058 10.0648 8.45546 10.5366 8.82401 10.8512C8.89848 10.9152 8.96913 10.9812 9.03597 11.0531C9.10853 11.1327 9.19255 11.2317 9.23838 11.3035C9.38924 11.5462 9.47708 11.8316 9.47708 12.1403C9.47708 12.5131 9.34914 12.8548 9.13527 13.1227C9.11617 13.148 9.08944 13.1771 9.06079 13.2082C8.98632 13.2878 8.90612 13.3596 8.82401 13.4295C8.45546 13.744 8.22058 14.2158 8.22058 14.7439C8.22058 15.272 8.45737 15.7457 8.82783 16.0603C8.9023 16.1243 8.97486 16.1904 9.0417 16.2622C9.08944 16.3127 9.13909 16.3709 9.17155 16.4117C9.36251 16.6719 9.47517 16.9942 9.47517 17.3456C9.47517 17.6698 9.37778 17.9707 9.21165 18.2212C9.17155 18.2814 9.1028 18.361 9.03979 18.4289C8.97295 18.5027 8.90039 18.5687 8.82401 18.6347C8.42872 18.9726 8.18812 19.4871 8.22249 20.0598C8.27596 20.9257 8.97295 21.6208 9.82462 21.6635C10.0786 21.6752 10.323 21.6305 10.5426 21.5393C10.6877 21.4791 10.8386 21.4344 10.9933 21.415C11.0563 21.4072 11.1174 21.4014 11.1651 21.4014C11.6979 21.4014 12.1677 21.6771 12.4426 22.0965C12.4694 22.1353 12.4961 22.1897 12.5229 22.246C12.6069 22.4265 12.6623 22.6187 12.6947 22.8168C12.8207 23.6381 13.5177 24.2652 14.3618 24.2652C14.5756 24.2652 14.78 24.2244 14.9671 24.1506C15.0989 24.0982 15.2344 24.0594 15.3738 24.038C15.4598 24.0244 15.5495 24.0147 15.6144 24.0147C16.1682 24.0147 16.6533 24.3118 16.9225 24.7583C16.9588 24.8185 16.9989 24.9117 17.0333 25.0029C17.0886 25.1447 17.123 25.2942 17.1497 25.4437C17.2872 26.2513 17.9785 26.8668 18.813 26.8668C19.0249 26.8668 19.2293 26.826 19.4164 26.7523C19.573 26.6901 19.7372 26.6494 19.9053 26.6241C19.9645 26.6144 20.0217 26.6086 20.0695 26.6086C20.6844 26.6086 21.2133 26.9755 21.4577 27.5075C21.4845 27.5677 21.515 27.659 21.5379 27.7424C21.5647 27.8376 21.5838 27.9366 21.5991 28.0356C21.7327 28.8491 22.4278 29.4704 23.2661 29.4704C24.2381 29.4704 25.0191 28.6336 24.9504 27.6298C24.8931 26.8047 24.2534 26.131 23.4437 26.0455M9.91055 6.04783C10.8443 6.04783 11.6005 5.27898 11.6005 4.32958C11.6005 3.38017 10.8443 2.61133 9.91055 2.61133C8.97677 2.61133 8.22058 3.38017 8.22058 4.32958C8.22058 5.27898 8.97677 6.04783 9.91055 6.04783Z" fill="#FF9900"/>
<path d="M18.8129 28.9792C18.6544 28.9792 18.5017 29.0103 18.3603 29.0627C18.24 29.1073 18.1159 29.1384 17.9899 29.1462C17.9632 29.1462 17.9402 29.1501 17.9192 29.1501C17.0046 29.1501 16.2083 28.6278 15.8053 27.8589L15.7996 27.8473C15.7442 27.7424 15.7099 27.6298 15.6889 27.5133C15.5762 26.8688 15.0262 26.3776 14.3598 26.3776C14.2032 26.3776 14.0543 26.4067 13.9168 26.4572C13.7926 26.5018 13.6647 26.5348 13.5329 26.5445C13.5081 26.5445 13.4833 26.5465 13.4623 26.5465C12.5247 26.5465 11.7246 26.0184 11.3331 25.2223C11.2873 25.1272 11.2548 25.0263 11.2376 24.9214C11.1288 24.271 10.5788 23.774 9.90858 23.774C9.7539 23.774 9.60686 23.8011 9.46937 23.8516C9.35862 23.8905 9.24595 23.9176 9.12947 23.9254C9.08937 23.9273 9.05118 23.9293 9.02253 23.9293C8.02574 23.9293 7.16643 23.1993 6.80743 22.3178L6.75778 22.178C6.7024 21.98 6.60883 21.8014 6.47898 21.6499C6.37968 21.5315 6.28421 21.4111 6.20209 21.281C6.1238 21.1587 6.04169 21.0209 6.00159 20.9335C5.86028 20.6151 5.74571 20.2695 5.74571 19.9472C5.74571 19.5589 5.83546 19.192 5.99586 18.8677C6.00541 18.8464 6.01877 18.8231 6.03214 18.7959C6.12189 18.6309 6.24029 18.4833 6.37777 18.3552C6.65848 18.0911 6.83034 17.7067 6.81125 17.2815C6.77878 16.5709 6.20973 15.9962 5.51083 15.969C4.73745 15.938 4.10156 16.567 4.10156 17.3456C4.10156 17.7455 4.26961 18.1047 4.53695 18.3571C4.6878 18.4988 4.82147 18.66 4.92077 18.8425C4.93987 18.8755 4.95514 18.9085 4.96851 18.9357C5.10791 19.2444 5.18811 19.5861 5.18811 19.9492C5.18811 20.3122 5.16138 20.9588 4.66489 21.4364C4.33262 21.7548 4.06337 22.1644 4.1092 22.677C4.16267 23.2653 4.5885 23.7546 5.15374 23.8924C5.43063 23.9604 5.69033 23.9312 5.92139 23.8419C6.04169 23.7953 6.16772 23.7662 6.29566 23.7604C6.32049 23.7604 6.34149 23.7604 6.35868 23.7604C7.26573 23.7604 8.06393 24.2535 8.47067 25.0049C8.52032 25.1 8.55278 25.2029 8.56424 25.3097C8.64062 25.997 9.21158 26.5329 9.90858 26.5329C10.0709 26.5329 10.2237 26.5018 10.3669 26.4474C10.4814 26.4047 10.5998 26.3737 10.7221 26.3659C10.7545 26.3659 10.7851 26.362 10.808 26.362C11.6788 26.362 12.4426 26.8396 12.8627 27.5464C12.8665 27.5522 12.8684 27.5561 12.8722 27.5619C12.9486 27.6959 13.004 27.8434 13.0307 27.9968C13.1434 28.6414 13.6934 29.1326 14.3598 29.1326C14.5259 29.1326 14.6825 29.0996 14.8276 29.0433C14.9632 28.9908 15.1064 28.9656 15.2497 28.9637H15.2687C16.13 28.9637 16.8709 29.4141 17.2891 30.1033C17.2929 30.1092 17.2967 30.115 17.3005 30.1228C17.3903 30.2781 17.4533 30.4489 17.4877 30.6256C17.6137 31.278 18.1866 31.7653 18.8721 31.7362C19.571 31.7051 20.1382 31.1265 20.1668 30.4159C20.1974 29.6296 19.5787 28.9811 18.8129 28.9811M5.45927 13.5169C6.20782 13.5169 6.81507 12.8995 6.81507 12.1384C6.81507 11.3773 6.20782 10.7599 5.45927 10.7599C4.71072 10.7599 4.10347 11.3773 4.10347 12.1384C4.10347 12.8995 4.71072 13.5169 5.45927 13.5169ZM5.45927 8.31165C6.20782 8.31165 6.81507 7.69425 6.81507 6.93317C6.81507 6.17209 6.20782 5.55469 5.45927 5.55469C4.71072 5.55469 4.10347 6.17209 4.10347 6.93317C4.10347 7.69425 4.71072 8.31165 5.45927 8.31165Z" fill="#FF9900"/>
<path d="M9.88216 26.5136C10.6307 26.5136 11.238 25.8962 11.238 25.1351C11.238 24.374 10.6307 23.7566 9.88216 23.7566C9.13361 23.7566 8.52637 24.374 8.52637 25.1351C8.52637 25.8962 9.13361 26.5136 9.88216 26.5136Z" fill="#FF9900"/>
<path d="M1.0063 20.9859C1.56199 20.9859 2.01456 20.52 2.01456 19.9472C2.01456 19.3745 1.5639 18.9085 1.0063 18.9085C0.448706 18.9085 -4.35516e-05 19.3745 -4.35516e-05 19.9472C-4.35516e-05 20.52 0.450616 20.9859 1.0063 20.9859ZM1.0063 15.7807C1.56199 15.7807 2.01456 15.3147 2.01456 14.742C2.01456 14.1692 1.5639 13.7033 1.0063 13.7033C0.448706 13.7033 -4.35516e-05 14.1692 -4.35516e-05 14.742C-4.35516e-05 15.3147 0.450616 15.7807 1.0063 15.7807ZM1.0063 10.5755C1.56199 10.5755 2.01456 10.1095 2.01456 9.53676C2.01456 8.96401 1.5639 8.49805 1.0063 8.49805C0.448706 8.49805 -4.35516e-05 8.96401 -4.35516e-05 9.53676C-4.35516e-05 10.1095 0.450616 10.5755 1.0063 10.5755ZM14.3619 31.9206C14.3237 31.9206 14.0124 31.9439 13.8959 31.9439C12.6184 31.9439 11.5128 31.2255 10.9571 30.1752C10.9151 30.0956 10.8196 29.9208 10.8196 29.9208C10.6592 29.5655 10.3136 29.319 9.90873 29.319C9.87627 29.319 9.56501 29.352 9.43898 29.352C8.20348 29.352 7.1303 28.6802 6.55934 27.6881C6.48869 27.5677 6.36075 27.3037 6.36075 27.3037C6.19652 26.9581 5.85662 26.7173 5.45752 26.7173C5.42887 26.7173 5.10616 26.7464 4.97249 26.7464C3.68161 26.7464 2.56451 26.0126 2.01456 24.9428C1.98782 24.8904 1.96109 24.836 1.94008 24.7797C1.79496 24.3914 1.43214 24.1157 1.00439 24.1157C0.448706 24.1157 -0.00195312 24.5816 -0.00195312 25.1544C-0.00195312 25.7271 0.448706 26.1931 1.00439 26.1931C1.04831 26.1931 1.36721 26.1698 1.48179 26.1698C2.65617 26.1698 3.68734 26.7775 4.27549 27.692C4.37288 27.8454 4.53519 28.1754 4.53519 28.1754C4.69178 28.5404 5.04505 28.7948 5.45561 28.7948C5.4938 28.7948 5.81079 28.7753 5.92536 28.7753C7.17422 28.7753 8.25886 29.4626 8.826 30.4761C8.88138 30.5751 8.99596 30.7945 8.99596 30.7945C9.15636 31.1498 9.5039 31.3983 9.90873 31.3983C9.94311 31.3983 10.2563 31.375 10.3747 31.375C11.5949 31.375 12.6623 32.0293 13.239 33.002C13.3154 33.1302 13.4548 33.4098 13.4548 33.4098C13.6171 33.7573 13.9589 33.998 14.358 33.998C14.9137 33.998 15.3663 33.5321 15.3663 32.9593C15.3663 32.3866 14.9156 31.9206 14.358 31.9206" fill="#FF9900"/>
<path d="M14.3618 3.43455C15.2956 3.43455 16.0518 2.6657 16.0518 1.7163C16.0518 0.766891 15.2956 -0.00195312 14.3618 -0.00195312C13.4281 -0.00195312 12.6719 0.766891 12.6719 1.7163C12.6719 2.6657 13.4281 3.43455 14.3618 3.43455Z" fill="#FF6600"/>
<path d="M14.3618 8.63987C15.2956 8.63987 16.0518 7.87103 16.0518 6.92162C16.0518 5.97221 15.2956 5.20337 14.3618 5.20337C13.4281 5.20337 12.6719 5.97221 12.6719 6.92162C12.6719 7.87103 13.4281 8.63987 14.3618 8.63987Z" fill="#FF6600"/>
<path d="M14.3618 13.8449C15.2956 13.8449 16.0518 13.0761 16.0518 12.1267C16.0518 11.1773 15.2956 10.4084 14.3618 10.4084C13.4281 10.4084 12.6719 11.1773 12.6719 12.1267C12.6719 13.0761 13.4281 13.8449 14.3618 13.8449Z" fill="#FF6600"/>
<path d="M14.3618 19.0503C15.2956 19.0503 16.0518 18.2814 16.0518 17.332C16.0518 16.3826 15.2956 15.6138 14.3618 15.6138C13.4281 15.6138 12.6719 16.3826 12.6719 17.332C12.6719 18.2814 13.4281 19.0503 14.3618 19.0503Z" fill="#FF6600"/>
<path d="M18.813 6.03806C19.7468 6.03806 20.503 5.26922 20.503 4.31981C20.503 3.37041 19.7468 2.60156 18.813 2.60156C17.8792 2.60156 17.123 3.37041 17.123 4.31981C17.123 5.26922 17.8792 6.03806 18.813 6.03806Z" fill="#FF6600"/>
<path d="M18.813 11.2434C19.7468 11.2434 20.503 10.4745 20.503 9.52514C20.503 8.57573 19.7468 7.80688 18.813 7.80688C17.8792 7.80688 17.123 8.57573 17.123 9.52514C17.123 10.4745 17.8792 11.2434 18.813 11.2434Z" fill="#FF6600"/>
<path d="M18.813 16.4487C19.7468 16.4487 20.503 15.6799 20.503 14.7305C20.503 13.7811 19.7468 13.0122 18.813 13.0122C17.8792 13.0122 17.123 13.7811 17.123 14.7305C17.123 15.6799 17.8792 16.4487 18.813 16.4487Z" fill="#FF6600"/>
<path d="M18.813 21.6538C19.7468 21.6538 20.503 20.8849 20.503 19.9355C20.503 18.9861 19.7468 18.2173 18.813 18.2173C17.8792 18.2173 17.123 18.9861 17.123 19.9355C17.123 20.8849 17.8792 21.6538 18.813 21.6538Z" fill="#FF6600"/>
<path d="M23.2661 8.63987C24.1999 8.63987 24.9561 7.87103 24.9561 6.92162C24.9561 5.97221 24.1999 5.20337 23.2661 5.20337C22.3324 5.20337 21.5762 5.97221 21.5762 6.92162C21.5762 7.87103 22.3324 8.63987 23.2661 8.63987Z" fill="#FF6600"/>
<path d="M23.2661 13.8449C24.1999 13.8449 24.9561 13.0761 24.9561 12.1267C24.9561 11.1773 24.1999 10.4084 23.2661 10.4084C22.3324 10.4084 21.5762 11.1773 21.5762 12.1267C21.5762 13.0761 22.3324 13.8449 23.2661 13.8449Z" fill="#FF6600"/>
<path d="M23.2661 19.0503C24.1999 19.0503 24.9561 18.2814 24.9561 17.332C24.9561 16.3826 24.1999 15.6138 23.2661 15.6138C22.3324 15.6138 21.5762 16.3826 21.5762 17.332C21.5762 18.2814 22.3324 19.0503 23.2661 19.0503Z" fill="#FF6600"/>
<path d="M23.2661 24.2573C24.1999 24.2573 24.9561 23.4885 24.9561 22.5391C24.9561 21.5896 24.1999 20.8208 23.2661 20.8208C22.3324 20.8208 21.5762 21.5896 21.5762 22.5391C21.5762 23.4885 22.3324 24.2573 23.2661 24.2573Z" fill="#FF6600"/>
<path d="M27.7173 11.2434C28.6511 11.2434 29.4073 10.4745 29.4073 9.52514C29.4073 8.57573 28.6511 7.80688 27.7173 7.80688C26.7835 7.80688 26.0273 8.57573 26.0273 9.52514C26.0273 10.4745 26.7835 11.2434 27.7173 11.2434Z" fill="#FF6600"/>
<path d="M27.7173 16.4487C28.6511 16.4487 29.4073 15.6799 29.4073 14.7305C29.4073 13.7811 28.6511 13.0122 27.7173 13.0122C26.7835 13.0122 26.0273 13.7811 26.0273 14.7305C26.0273 15.6799 26.7835 16.4487 27.7173 16.4487Z" fill="#FF6600"/>
<path d="M27.7173 21.6538C28.6511 21.6538 29.4073 20.8849 29.4073 19.9355C29.4073 18.9861 28.6511 18.2173 27.7173 18.2173C26.7835 18.2173 26.0273 18.9861 26.0273 19.9355C26.0273 20.8849 26.7835 21.6538 27.7173 21.6538Z" fill="#FF6600"/>
<path d="M27.7173 26.8591C28.6511 26.8591 29.4073 26.0903 29.4073 25.1409C29.4073 24.1915 28.6511 23.4226 27.7173 23.4226C26.7835 23.4226 26.0273 24.1915 26.0273 25.1409C26.0273 26.0903 26.7835 26.8591 27.7173 26.8591Z" fill="#FF6600"/>
<path d="M9.91068 6.04783C10.8445 6.04783 11.6006 5.27898 11.6006 4.32958C11.6006 3.38017 10.8445 2.61133 9.91068 2.61133C8.97689 2.61133 8.2207 3.38017 8.2207 4.32958C8.2207 5.27898 8.97689 6.04783 9.91068 6.04783Z" fill="#FF9900"/>
<path d="M18.813 26.8513C19.7468 26.8513 20.503 26.0825 20.503 25.133C20.503 24.1836 19.7468 23.4148 18.813 23.4148C17.8792 23.4148 17.123 24.1836 17.123 25.133C17.123 26.0825 17.8792 26.8513 18.813 26.8513Z" fill="#FF9900"/>
<path d="M114.139 15.9128H109.91C108.792 15.9128 107.885 14.9886 107.885 13.8528C107.885 12.717 108.794 11.7948 109.91 11.7948H114.609C115.239 11.7948 115.753 11.2745 115.753 10.6318C115.753 9.98918 115.241 9.4708 114.609 9.4708H109.91C107.532 9.4708 105.6 11.4376 105.6 13.8528C105.6 16.2681 107.534 18.2348 109.91 18.2348H114.139C115.526 18.2348 116.654 19.3823 116.654 20.7918C116.654 22.2014 115.526 23.3488 114.139 23.3488H106.742C106.111 23.3488 105.6 23.8692 105.6 24.5099C105.6 25.1506 106.113 25.6728 106.742 25.6728H114.139C116.786 25.6728 118.94 23.4828 118.94 20.7918C118.94 18.1009 116.786 15.9108 114.139 15.9108M84.4683 12.0589H88.4402C89.0704 12.0589 89.5822 11.5385 89.5822 10.8959C89.5822 10.2532 89.0704 9.73484 88.4402 9.73484H84.4683C80.145 9.73484 76.6295 13.3111 76.6295 17.7048C76.6295 22.0985 80.1469 25.6748 84.4683 25.6748H88.4402C89.0704 25.6748 89.5822 25.1525 89.5822 24.5118C89.5822 23.8711 89.0704 23.3508 88.4402 23.3508H84.4683C81.4054 23.3508 78.9153 20.8171 78.9153 17.7048C78.9153 14.5925 81.4073 12.0589 84.4683 12.0589ZM98.0931 17.5048L104.11 11.3871C104.555 10.9347 104.555 10.1969 104.11 9.74455C103.887 9.51739 103.595 9.40479 103.302 9.40479C103.01 9.40479 102.716 9.51739 102.495 9.74455L95.6699 16.6836C95.2249 17.1359 95.2249 17.8737 95.6699 18.328L102.562 25.335C102.993 25.7738 103.747 25.7738 104.177 25.335C104.624 24.8807 104.624 24.1448 104.177 23.6905L98.0931 17.5048ZM150.941 11.7579H154.714V24.5137C154.714 25.1544 155.228 25.6767 155.858 25.6767C156.488 25.6767 157.002 25.1544 157.002 24.5137V11.7579H160.777C161.407 11.7579 161.921 11.2356 161.921 10.5949C161.921 9.95424 161.407 9.43391 160.777 9.43391H150.942C150.312 9.43391 149.801 9.95424 149.801 10.5949C149.801 11.2356 150.312 11.7579 150.942 11.7579M46.7676 15.9128H42.536C41.4189 15.9128 40.5118 14.9886 40.5118 13.8528C40.5118 12.717 41.4208 11.7948 42.536 11.7948H47.2354C47.8656 11.7948 48.3793 11.2745 48.3793 10.6318C48.3793 9.98918 47.8656 9.4708 47.2354 9.4708H42.536C40.1586 9.4708 38.2261 11.4376 38.2261 13.8528C38.2261 16.2681 40.1605 18.2348 42.536 18.2348H46.7676C48.154 18.2348 49.2825 19.3823 49.2825 20.7918C49.2825 22.2014 48.154 23.3488 46.7676 23.3488H39.3699C38.7398 23.3488 38.2261 23.8692 38.2261 24.5099C38.2261 25.1506 38.7398 25.6728 39.3699 25.6728H46.7676C49.4143 25.6728 51.5683 23.4828 51.5683 20.7918C51.5683 18.1009 49.4143 15.9108 46.7676 15.9108M64.4121 10.5949C64.4121 9.95424 63.9003 9.43391 63.2682 9.43391H51.1844C50.5543 9.43391 50.0425 9.95424 50.0425 10.5949C50.0425 11.2356 50.5543 11.7579 51.1844 11.7579H54.3391V24.5137C54.3391 25.1544 54.8508 25.6767 55.4829 25.6767C56.115 25.6767 56.6248 25.1544 56.6248 24.5137V11.7579H63.2682C63.8984 11.7579 64.4121 11.2356 64.4121 10.5949ZM73.1063 9.61059L73.0605 9.62612L73.0166 9.64942C72.8791 9.71543 72.7722 9.78921 72.6862 9.87658L59.0996 23.6886C58.6547 24.141 58.6547 24.8787 59.0996 25.3331C59.5312 25.7718 60.2836 25.7718 60.717 25.3331L72.3693 13.4859L72.3807 24.3157C72.3807 24.9545 72.8944 25.4767 73.5245 25.4767C74.1547 25.4767 74.6684 24.9545 74.6665 24.3138L74.6531 10.692C74.6531 9.91735 73.9065 9.30188 73.1083 9.61059M92.6547 9.53098C92.0264 9.53098 91.5127 10.0513 91.5108 10.692L91.4975 24.3138C91.4975 24.9545 92.0092 25.4767 92.6394 25.4767C93.2695 25.4767 93.7832 24.9564 93.7832 24.3157L93.7985 10.692C93.7985 10.3814 93.6801 10.0901 93.4643 9.87075C93.2485 9.65136 92.9621 9.52904 92.6566 9.52904M142.432 9.43003C138.026 9.43003 134.442 13.0743 134.442 17.5534C134.442 22.0325 138.026 25.6767 142.432 25.6767C146.837 25.6767 150.421 22.0325 150.421 17.5534C150.421 13.0743 146.837 9.43003 142.432 9.43003ZM142.432 23.3527C139.286 23.3527 136.728 20.7511 136.728 17.5534C136.728 14.3557 139.286 11.754 142.432 11.754C145.577 11.754 148.135 14.3557 148.135 17.5534C148.135 20.7511 145.577 23.3527 142.432 23.3527ZM126.779 9.4708H121.585C120.955 9.4708 120.441 9.99113 120.441 10.6318V24.5118C120.441 25.1525 120.953 25.6748 121.585 25.6748C122.217 25.6748 122.727 25.1525 122.727 24.5118V21.98L126.813 21.9839C130.17 21.9839 132.931 19.1765 132.931 15.7264C132.931 12.2763 130.17 9.46886 126.779 9.46886M126.802 19.6599L122.727 19.6638V11.7948H126.777C128.91 11.7948 130.644 13.5597 130.644 15.7283C130.644 17.897 128.921 19.6483 126.8 19.6619" fill="white"/>
<path d="M183.867 9.61066L183.821 9.62619L183.778 9.64949C183.64 9.7155 183.533 9.78928 183.449 9.87664L169.863 23.6887C169.418 24.143 169.418 24.8788 169.863 25.3331C170.294 25.7719 171.046 25.7719 171.48 25.3331L183.132 13.4859L183.144 24.3158C183.144 24.9545 183.657 25.4768 184.287 25.4768C184.918 25.4768 185.431 24.9545 185.429 24.3138L185.416 10.6921C185.416 9.91742 184.667 9.30389 183.871 9.61066" fill="#FF6600"/>
<path d="M190.858 9.53099C190.23 9.53099 189.716 10.0513 189.714 10.692L189.701 24.3138C189.701 24.9545 190.212 25.4767 190.843 25.4767C191.473 25.4767 191.986 24.9564 191.986 24.3157L192.002 10.692C192.002 10.3814 191.883 10.0902 191.668 9.87076C191.452 9.65137 191.165 9.52905 190.86 9.52905" fill="#FF6600"/>
</g>
<defs>
<clipPath id="clip0_1247_2243">
<rect width="192" height="34" fill="white"/>
</clipPath>
</defs>
</svg>
