<svg width="210" height="33" viewBox="0 0 210 33" fill="none" xmlns="http://www.w3.org/2000/svg">
<g clip-path="url(#clip0_1296_2327)">
<path d="M18.9521 28.1266C18.7924 28.1266 18.6391 28.1554 18.4962 28.2068C18.3765 28.25 18.2504 28.2788 18.1222 28.2871C18.097 28.2871 18.0718 28.2891 18.0508 28.2891C17.1285 28.2891 16.3281 27.7808 15.9226 27.0358L15.9163 27.0235C15.8617 26.9226 15.826 26.8115 15.805 26.6983C15.6915 26.0727 15.139 25.5952 14.4667 25.5952C14.3091 25.5952 14.16 25.624 14.0192 25.6714C13.8953 25.7146 13.765 25.7475 13.6327 25.7557C13.6075 25.7557 13.5822 25.7578 13.5633 25.7578C12.6179 25.7578 11.8133 25.2454 11.4183 24.4715C11.3721 24.3789 11.3406 24.2801 11.3217 24.1793C11.2124 23.5475 10.6578 23.0659 9.98133 23.0659C9.82586 23.0659 9.6767 23.0927 9.53804 23.1421C9.4267 23.1812 9.31325 23.2059 9.1956 23.2141C9.15568 23.2162 9.11787 23.2182 9.08635 23.2182C8.08213 23.2182 7.21657 22.5103 6.85522 21.6541L6.80479 21.5183C6.75017 21.3269 6.65353 21.152 6.52538 21.0059C6.42453 20.8927 6.32999 20.7733 6.24596 20.6478C6.16823 20.5305 6.08419 20.3967 6.04428 20.3103C5.90142 20.0016 5.78587 19.6641 5.78587 19.3512C5.78587 18.9746 5.8762 18.6186 6.03797 18.3017C6.04848 18.2811 6.06108 18.2584 6.07579 18.2338C6.16613 18.0732 6.28588 17.9312 6.42453 17.8057C6.70815 17.5484 6.88043 17.1759 6.86152 16.7623C6.83 16.0729 6.25436 15.5151 5.55057 15.4884C4.77114 15.4596 4.13037 16.0687 4.13037 16.8261C4.13037 17.215 4.30054 17.5628 4.56946 17.8077C4.72072 17.9456 4.85518 18.102 4.95602 18.279C4.97493 18.312 4.99173 18.3428 5.00434 18.3696C5.1451 18.668 5.22493 19.0014 5.22493 19.3533C5.22493 19.7052 5.19972 20.3329 4.69761 20.798C4.36357 21.1067 4.09256 21.5039 4.13877 22.0019C4.1934 22.5741 4.62198 23.0474 5.19132 23.1812C5.47073 23.247 5.73124 23.2182 5.96444 23.1318C6.08629 23.0865 6.21235 23.0577 6.3405 23.0536C6.36571 23.0536 6.38672 23.0536 6.40353 23.0536C7.31741 23.0536 8.12205 23.531 8.53172 24.2616C8.58214 24.3542 8.61365 24.453 8.62626 24.5559C8.70189 25.2227 9.27963 25.7434 9.98133 25.7434C10.1431 25.7434 10.2986 25.7125 10.4435 25.6611C10.5591 25.6179 10.6788 25.5911 10.8007 25.5829C10.8343 25.5829 10.8658 25.5787 10.8868 25.5787C11.7629 25.5787 12.5339 26.0418 12.9562 26.7292C12.9583 26.7333 12.9625 26.7395 12.9667 26.7456C13.0444 26.8753 13.099 27.0193 13.1263 27.1675C13.2398 27.7932 13.7923 28.2706 14.4646 28.2706C14.6306 28.2706 14.7902 28.2377 14.9352 28.1842C15.0718 28.1327 15.2146 28.108 15.3596 28.106H15.3785C16.2462 28.106 16.992 28.5423 17.4143 29.2132C17.4185 29.2193 17.4206 29.2255 17.4248 29.2317C17.5151 29.3819 17.5781 29.5466 17.6117 29.7194C17.7378 30.3533 18.3155 30.8266 19.0067 30.7978C19.7105 30.769 20.282 30.2072 20.3114 29.5157C20.3429 28.7522 19.7189 28.1224 18.9458 28.1224M5.50015 13.1196C6.25436 13.1196 6.86572 12.5208 6.86572 11.7819C6.86572 11.0431 6.25436 10.4442 5.50015 10.4442C4.74593 10.4442 4.13457 11.0431 4.13457 11.7819C4.13457 12.5208 4.74593 13.1196 5.50015 13.1196ZM5.50015 8.06724C6.25436 8.06724 6.86572 7.46837 6.86572 6.72954C6.86572 5.99072 6.25436 5.39185 5.50015 5.39185C4.74593 5.39185 4.13457 5.99072 4.13457 6.72954C4.13457 7.46837 4.74593 8.06724 5.50015 8.06724Z" fill="#FF9900"/>
<path d="M23.6182 25.2804C23.3514 25.2536 23.0972 25.2866 22.8661 25.3689C22.7526 25.408 22.6392 25.445 22.5236 25.4697C22.4081 25.4965 22.2736 25.5191 22.177 25.5191C21.574 25.5191 21.053 25.1816 20.7988 24.6898C20.761 24.6157 20.7211 24.4901 20.6916 24.3852C20.6685 24.3008 20.6475 24.2185 20.6307 24.132C20.4942 23.3459 19.7967 22.7449 18.9542 22.7449C18.7231 22.7449 18.5046 22.7902 18.3029 22.8725C18.2693 22.8869 18.2357 22.9014 18.2 22.9137C18.0403 22.9693 17.8702 23.0022 17.6895 23.0022C17.0571 23.0022 16.513 22.6297 16.2735 22.0946C16.2084 21.9464 16.1474 21.6192 16.1474 21.6192C16.0172 20.8248 15.3155 20.2198 14.4709 20.2198C14.2651 20.2198 14.0697 20.2568 13.8869 20.3227C13.8869 20.3227 13.452 20.4667 13.2146 20.4667C12.5591 20.4667 12.0003 20.0675 11.7734 19.5036C11.7167 19.3637 11.6579 19.0467 11.6579 19.0467C11.5843 18.666 11.3763 18.3326 11.0864 18.0918C11.0045 18.0239 10.9267 17.9519 10.8532 17.8737C10.7734 17.7852 10.6767 17.674 10.6284 17.5917C10.4961 17.3695 10.4204 17.1122 10.4204 16.8364C10.4204 16.5133 10.5234 16.2149 10.6978 15.97C10.7356 15.9165 10.8007 15.8465 10.8595 15.7848C10.9288 15.7128 11.0024 15.649 11.078 15.5852C11.4499 15.2785 11.6873 14.8216 11.6873 14.3092C11.6873 13.7968 11.4499 13.3378 11.078 13.0332C10.9961 12.9653 10.9162 12.8954 10.8406 12.8192C10.8112 12.7883 10.7839 12.7595 10.765 12.7369C10.5507 12.4755 10.4204 12.1463 10.4204 11.784C10.4204 11.5124 10.494 11.2572 10.6221 11.037C10.6746 10.9444 10.7839 10.8209 10.87 10.7283C10.9352 10.6583 11.0045 10.5945 11.078 10.5348C11.4751 10.2076 11.7188 9.70547 11.6831 9.14981C11.6284 8.30397 10.9183 7.62689 10.0528 7.59396C9.08217 7.55692 8.28384 8.31632 8.28384 9.25888C8.28384 9.77132 8.52124 10.2282 8.8931 10.5348C8.96873 10.5966 9.04016 10.6604 9.10739 10.7303C9.17882 10.8065 9.26495 10.9032 9.31117 10.9732C9.46243 11.2078 9.55067 11.4856 9.55067 11.784C9.55067 12.1463 9.42252 12.4776 9.20613 12.7369C9.18722 12.7595 9.15991 12.7904 9.13049 12.8192C9.05696 12.8954 8.97503 12.9653 8.8931 13.0353C8.52124 13.3399 8.28384 13.7988 8.28384 14.3113C8.28384 14.8237 8.52334 15.2847 8.8952 15.5893C8.97083 15.651 9.04436 15.7148 9.11159 15.7848C9.15991 15.8342 9.21033 15.8898 9.24184 15.9309C9.43512 16.184 9.54857 16.4969 9.54857 16.8364C9.54857 17.1513 9.44983 17.4435 9.28176 17.6864C9.24184 17.744 9.17251 17.8222 9.10949 17.8881C9.04226 17.9601 8.96873 18.0239 8.8931 18.0877C8.49603 18.4149 8.25233 18.915 8.28804 19.4707C8.34266 20.3103 9.04436 20.9854 9.90152 21.0265C10.1578 21.0389 10.4036 20.9956 10.6242 20.9072C10.7692 20.8495 10.9225 20.8063 11.078 20.7878C11.141 20.7796 11.202 20.7754 11.2503 20.7754C11.7881 20.7754 12.2608 21.043 12.5381 21.4505C12.5633 21.4896 12.5927 21.541 12.618 21.5966C12.702 21.7715 12.7587 21.9588 12.7902 22.1502C12.9184 22.9466 13.6201 23.5558 14.4688 23.5558C14.6831 23.5558 14.889 23.5167 15.0781 23.4447C15.2104 23.3953 15.347 23.3562 15.4878 23.3356C15.5739 23.3232 15.6642 23.313 15.7315 23.313C16.2882 23.313 16.7777 23.6011 17.0487 24.0353C17.0865 24.095 17.1265 24.1855 17.1601 24.272C17.2147 24.4099 17.2504 24.5539 17.2777 24.7C17.4164 25.4841 18.1118 26.083 18.9521 26.083C19.1664 26.083 19.3702 26.0439 19.5593 25.9719C19.7168 25.9122 19.8828 25.871 20.0509 25.8463C20.1118 25.8381 20.1685 25.8319 20.2169 25.8319C20.8366 25.8319 21.3681 26.188 21.616 26.7045C21.6433 26.7622 21.6728 26.8527 21.6959 26.933C21.7232 27.0256 21.7421 27.1223 21.7589 27.217C21.8934 28.0072 22.5929 28.6082 23.4375 28.6082C24.4165 28.6082 25.2043 27.7973 25.135 26.8218C25.0783 26.0213 24.4333 25.3668 23.6182 25.2825M9.98345 5.86936C10.9225 5.86936 11.6852 5.1223 11.6852 4.20238C11.6852 3.28245 10.9225 2.5354 9.98345 2.5354C9.04436 2.5354 8.28174 3.28245 8.28174 4.20238C8.28174 5.1223 9.04436 5.86936 9.98345 5.86936Z" fill="#FF9900"/>
<path d="M1.01473 20.3681C1.57566 20.3681 2.02945 19.9174 2.02945 19.3597C2.02945 18.8019 1.57566 18.3512 1.01473 18.3512C0.453791 18.3512 0 18.8019 0 19.3597C0 19.9174 0.453791 20.3681 1.01473 20.3681ZM1.01473 15.3157C1.57566 15.3157 2.02945 14.865 2.02945 14.3073C2.02945 13.7496 1.57566 13.2989 1.01473 13.2989C0.453791 13.2989 0 13.7516 0 14.3073C0 14.8629 0.453791 15.3157 1.01473 15.3157ZM1.01473 10.2654C1.57566 10.2654 2.02945 9.81467 2.02945 9.25695C2.02945 8.69924 1.57566 8.24854 1.01473 8.24854C0.453791 8.24854 0 8.69924 0 9.25695C0 9.81467 0.453791 10.2654 1.01473 10.2654ZM14.4688 30.9812C14.431 30.9812 14.1158 31.0038 14.0003 31.0038C12.7124 31.0038 11.599 30.3062 11.0401 29.2874C10.9981 29.2113 10.9015 29.0405 10.9015 29.0405C10.7397 28.6968 10.391 28.456 9.98339 28.456C9.94978 28.456 9.63675 28.4869 9.51069 28.4869C8.26697 28.4869 7.18502 27.8366 6.60938 26.8714C6.54005 26.7541 6.40769 26.4989 6.40769 26.4989C6.24382 26.1634 5.89928 25.9309 5.49801 25.9309C5.4707 25.9309 5.14296 25.9576 5.0085 25.9576C3.70806 25.9576 2.58198 25.2455 2.02945 24.2063C2.00214 24.1548 1.97693 24.1013 1.95592 24.0478C1.80886 23.6712 1.44541 23.4036 1.01473 23.4036C0.453791 23.4036 0 23.8543 0 24.4121C0 24.9698 0.453791 25.4205 1.01473 25.4205C1.05884 25.4205 1.38028 25.3978 1.49583 25.3978C2.68073 25.3978 3.71646 25.9864 4.31101 26.8755C4.40975 27.0236 4.57362 27.3447 4.57362 27.3447C4.73119 27.6987 5.08624 27.9456 5.50011 27.9456C5.54003 27.9456 5.85936 27.9271 5.97281 27.9271C7.23124 27.9271 8.3237 28.5939 8.89514 29.5776C8.95186 29.6744 9.06531 29.8863 9.06531 29.8863C9.22708 30.2321 9.57582 30.4729 9.98339 30.4729C10.017 30.4729 10.3342 30.4502 10.454 30.4502C11.683 30.4502 12.7587 31.0841 13.3406 32.0308C13.4183 32.1542 13.5591 32.428 13.5591 32.428C13.723 32.7655 14.0675 33.0001 14.4709 33.0001C15.0318 33.0001 15.4856 32.5494 15.4856 31.9917C15.4856 31.4339 15.0318 30.9832 14.4709 30.9832" fill="#FF9900"/>
<path d="M14.4688 3.33396C15.4079 3.33396 16.1705 2.5869 16.1705 1.66698C16.1705 0.747053 15.4079 0 14.4688 0C13.5297 0 12.7671 0.747053 12.7671 1.66698C12.7671 2.5869 13.5297 3.33396 14.4688 3.33396Z" fill="#FF6600"/>
<path d="M14.4688 8.38645C15.4079 8.38645 16.1705 7.63939 16.1705 6.71947C16.1705 5.79954 15.4079 5.05249 14.4688 5.05249C13.5297 5.05249 12.7671 5.79954 12.7671 6.71947C12.7671 7.63939 13.5297 8.38645 14.4688 8.38645Z" fill="#FF6600"/>
<path d="M14.4688 13.4387C15.4079 13.4387 16.1705 12.6916 16.1705 11.7717C16.1705 10.8518 15.4079 10.1047 14.4688 10.1047C13.5297 10.1047 12.7671 10.8518 12.7671 11.7717C12.7671 12.6916 13.5297 13.4387 14.4688 13.4387Z" fill="#FF6600"/>
<path d="M14.4688 18.4912C15.4079 18.4912 16.1705 17.7441 16.1705 16.8242C16.1705 15.9043 15.4079 15.1572 14.4688 15.1572C13.5297 15.1572 12.7671 15.9043 12.7671 16.8242C12.7671 17.7441 13.5297 18.4912 14.4688 18.4912Z" fill="#FF6600"/>
<path d="M18.9522 5.8591C19.8913 5.8591 20.6539 5.11205 20.6539 4.19213C20.6539 3.2722 19.8913 2.52515 18.9522 2.52515C18.0131 2.52515 17.2505 3.2722 17.2505 4.19213C17.2505 5.11205 18.0131 5.8591 18.9522 5.8591Z" fill="#FF6600"/>
<path d="M18.9522 10.9116C19.8913 10.9116 20.6539 10.1645 20.6539 9.24461C20.6539 8.32469 19.8913 7.57764 18.9522 7.57764C18.0131 7.57764 17.2505 8.32469 17.2505 9.24461C17.2505 10.1645 18.0131 10.9116 18.9522 10.9116Z" fill="#FF6600"/>
<path d="M18.9522 15.9638C19.8913 15.9638 20.6539 15.2168 20.6539 14.2969C20.6539 13.3769 19.8913 12.6299 18.9522 12.6299C18.0131 12.6299 17.2505 13.3769 17.2505 14.2969C17.2505 15.2168 18.0131 15.9638 18.9522 15.9638Z" fill="#FF6600"/>
<path d="M18.9522 21.0163C19.8913 21.0163 20.6539 20.2693 20.6539 19.3494C20.6539 18.4294 19.8913 17.6824 18.9522 17.6824C18.0131 17.6824 17.2505 18.4294 17.2505 19.3494C17.2505 20.2693 18.0131 21.0163 18.9522 21.0163Z" fill="#FF6600"/>
<path d="M23.4376 8.38645C24.3766 8.38645 25.1393 7.63939 25.1393 6.71947C25.1393 5.79954 24.3766 5.05249 23.4376 5.05249C22.4985 5.05249 21.7358 5.79954 21.7358 6.71947C21.7358 7.63939 22.4985 8.38645 23.4376 8.38645Z" fill="#FF6600"/>
<path d="M23.4376 13.4387C24.3766 13.4387 25.1393 12.6916 25.1393 11.7717C25.1393 10.8518 24.3766 10.1047 23.4376 10.1047C22.4985 10.1047 21.7358 10.8518 21.7358 11.7717C21.7358 12.6916 22.4985 13.4387 23.4376 13.4387Z" fill="#FF6600"/>
<path d="M23.4376 18.4912C24.3766 18.4912 25.1393 17.7441 25.1393 16.8242C25.1393 15.9043 24.3766 15.1572 23.4376 15.1572C22.4985 15.1572 21.7358 15.9043 21.7358 16.8242C21.7358 17.7441 22.4985 18.4912 23.4376 18.4912Z" fill="#FF6600"/>
<path d="M23.4376 23.5434C24.3766 23.5434 25.1393 22.7964 25.1393 21.8765C25.1393 20.9565 24.3766 20.2095 23.4376 20.2095C22.4985 20.2095 21.7358 20.9565 21.7358 21.8765C21.7358 22.7964 22.4985 23.5434 23.4376 23.5434Z" fill="#FF6600"/>
<path d="M27.9229 10.9116C28.862 10.9116 29.6246 10.1645 29.6246 9.24461C29.6246 8.32469 28.862 7.57764 27.9229 7.57764C26.9838 7.57764 26.2212 8.32469 26.2212 9.24461C26.2212 10.1645 26.9838 10.9116 27.9229 10.9116Z" fill="#FF6600"/>
<path d="M27.9229 15.9638C28.862 15.9638 29.6246 15.2168 29.6246 14.2969C29.6246 13.3769 28.862 12.6299 27.9229 12.6299C26.9838 12.6299 26.2212 13.3769 26.2212 14.2969C26.2212 15.2168 26.9838 15.9638 27.9229 15.9638Z" fill="#FF6600"/>
<path d="M27.9229 21.0163C28.862 21.0163 29.6246 20.2693 29.6246 19.3494C29.6246 18.4294 28.862 17.6824 27.9229 17.6824C26.9838 17.6824 26.2212 18.4294 26.2212 19.3494C26.2212 20.2693 26.9838 21.0163 27.9229 21.0163Z" fill="#FF6600"/>
<path d="M27.9229 26.0686C28.862 26.0686 29.6246 25.3215 29.6246 24.4016C29.6246 23.4817 28.862 22.7346 27.9229 22.7346C26.9838 22.7346 26.2212 23.4817 26.2212 24.4016C26.2212 25.3215 26.9838 26.0686 27.9229 26.0686Z" fill="#FF6600"/>
<path d="M114.981 15.4432H110.72C109.596 15.4432 108.681 14.5459 108.681 13.4449C108.681 12.3438 109.596 11.4466 110.72 11.4466H115.454C116.088 11.4466 116.605 10.9403 116.605 10.3188C116.605 9.69726 116.088 9.191 115.454 9.191H110.72C108.325 9.191 106.378 11.0988 106.378 13.4449C106.378 15.791 108.325 17.6988 110.72 17.6988H114.981C116.378 17.6988 117.515 18.8121 117.515 20.1807C117.515 21.5493 116.378 22.6627 114.981 22.6627H107.527C106.893 22.6627 106.376 23.1689 106.376 23.7904C106.376 24.412 106.893 24.9182 107.527 24.9182H114.981C117.647 24.9182 119.817 22.7923 119.817 20.1807C119.817 17.5691 117.647 15.4432 114.981 15.4432ZM85.0918 11.7038H89.094C89.7284 11.7038 90.2453 11.1975 90.2453 10.576C90.2453 9.95451 89.7284 9.44825 89.094 9.44825H85.0918C80.7367 9.44825 77.1946 12.918 77.1946 17.1843C77.1946 21.4505 80.7367 24.9203 85.0918 24.9203H89.094C89.7284 24.9203 90.2453 24.414 90.2453 23.7925C90.2453 23.171 89.7284 22.6647 89.094 22.6647H85.0918C82.0077 22.6647 79.4971 20.2054 79.4971 17.1843C79.4971 14.1631 82.0077 11.7038 85.0918 11.7038ZM98.8169 16.9888L104.878 11.0514C105.327 10.611 105.327 9.89689 104.878 9.45648C104.653 9.23627 104.359 9.1272 104.063 9.1272C103.767 9.1272 103.472 9.23627 103.248 9.45648L96.3714 16.1923C95.9218 16.6327 95.9218 17.3489 96.3714 17.7873L103.315 24.5889C103.75 25.0149 104.51 25.0149 104.943 24.5889C105.393 24.1485 105.393 23.4323 104.943 22.994L98.8148 16.9908L98.8169 16.9888ZM152.055 11.4116H155.858V23.7925C155.858 24.414 156.375 24.9203 157.009 24.9203C157.644 24.9203 158.16 24.414 158.16 23.7925V11.4116H161.963C162.598 11.4116 163.114 10.9053 163.114 10.2838C163.114 9.66228 162.598 9.15601 161.963 9.15601H152.055C151.421 9.15601 150.904 9.66228 150.904 10.2838C150.904 10.9053 151.421 11.4116 152.055 11.4116ZM47.1121 15.4432H42.8494C41.7254 15.4432 40.8094 14.5459 40.8094 13.4449C40.8094 12.3438 41.7254 11.4466 42.8494 11.4466H47.5847C48.2192 11.4466 48.736 10.9403 48.736 10.3188C48.736 9.69726 48.2192 9.191 47.5847 9.191H42.8494C40.4544 9.191 38.5068 11.0988 38.5068 13.4449C38.5068 15.791 40.4544 17.6988 42.8494 17.6988H47.1121C48.5091 17.6988 49.6457 18.8121 49.6457 20.1807C49.6457 21.5493 48.5091 22.6627 47.1121 22.6627H39.6581C39.0237 22.6627 38.5068 23.1689 38.5068 23.7904C38.5068 24.412 39.0237 24.9182 39.6581 24.9182H47.1121C49.7781 24.9182 51.9483 22.7923 51.9483 20.1807C51.9483 17.5691 49.7781 15.4432 47.1121 15.4432ZM64.8876 10.2838C64.8876 9.66228 64.3708 9.15601 63.7363 9.15601H51.5638C50.9294 9.15601 50.4125 9.66228 50.4125 10.2838C50.4125 10.9053 50.9294 11.4116 51.5638 11.4116H54.7404V23.7925C54.7404 24.414 55.2572 24.9203 55.8916 24.9203C56.5261 24.9203 57.0429 24.414 57.0429 23.7925V11.4116H63.7363C64.3708 11.4116 64.8876 10.9053 64.8876 10.2838ZM73.6441 9.32888L73.5979 9.34535L73.5537 9.36798C73.4151 9.43178 73.3079 9.50381 73.2218 9.58819L59.5346 22.994C59.085 23.4344 59.085 24.1506 59.5346 24.5889C59.9694 25.0149 60.7279 25.0149 61.1628 24.5889L72.9004 13.0909L72.9109 23.6032C72.9109 24.2247 73.4277 24.7289 74.0622 24.7289C74.6987 24.7289 75.2135 24.2226 75.2135 23.599L75.1987 10.3785C75.1987 9.62729 74.4466 9.03047 73.6441 9.32888ZM93.3378 9.25068C92.7033 9.25068 92.1865 9.75695 92.1865 10.3785L92.1718 23.599C92.1718 24.2206 92.6865 24.7289 93.321 24.7289C93.9575 24.7289 94.4743 24.2247 94.4743 23.6032L94.489 10.3805C94.489 10.0801 94.3693 9.79605 94.1529 9.58202C93.9365 9.37004 93.6466 9.25068 93.3399 9.25068M143.482 9.15189C139.042 9.15189 135.433 12.6896 135.433 17.0361C135.433 21.3826 139.045 24.9203 143.482 24.9203C147.919 24.9203 151.53 21.3826 151.53 17.0361C151.53 12.6896 147.919 9.15189 143.482 9.15189ZM143.482 22.6668C140.313 22.6668 137.736 20.1416 137.736 17.0381C137.736 13.9347 140.313 11.4095 143.482 11.4095C146.65 11.4095 149.228 13.9347 149.228 17.0381C149.228 20.1416 146.65 22.6668 143.482 22.6668ZM127.712 9.191H122.481C121.847 9.191 121.33 9.69726 121.33 10.3188V23.7904C121.33 24.412 121.847 24.9182 122.481 24.9182C123.116 24.9182 123.632 24.412 123.632 23.7904V21.3332L127.75 21.3373C131.133 21.3373 133.912 18.6125 133.912 15.2641C133.912 11.9158 131.131 9.191 127.712 9.191ZM127.738 19.0817L123.632 19.0859V11.4486H127.712C129.862 11.4486 131.61 13.1609 131.61 15.2662C131.61 17.3715 129.874 19.0694 127.738 19.0838" fill="#14141A"/>
<path d="M203.802 9.19092H198.571C197.937 9.19092 197.42 9.69719 197.42 10.3187V23.7904C197.42 24.4119 197.937 24.9181 198.571 24.9181C199.206 24.9181 199.722 24.4119 199.722 23.7904V21.3331L203.84 21.3372C207.223 21.3372 210.002 18.6124 210.002 15.2641C210.002 11.9157 207.221 9.19092 203.802 9.19092ZM203.826 19.0817L199.72 19.0858V11.4485H203.8C205.95 11.4485 207.697 13.1608 207.697 15.2661C207.697 17.3715 205.962 19.0693 203.826 19.0837" fill="#FF6600"/>
<path d="M171.945 9.25059C171.31 9.25059 170.794 9.75686 170.794 10.3763L170.779 23.5969C170.779 24.2184 171.294 24.7247 171.928 24.7267C172.565 24.7267 173.081 24.2225 173.081 23.601L173.096 10.3784C173.096 10.0779 172.976 9.7939 172.76 9.57987C172.544 9.36584 172.254 9.24854 171.947 9.24854" fill="#FF6600"/>
<path d="M177.524 16.5896C177.524 15.968 177.008 15.4618 176.375 15.4597L172.631 15.4453C171.997 15.4453 171.478 15.9495 171.478 16.571C171.478 17.1946 171.993 17.7009 172.627 17.7009L176.371 17.7153C176.678 17.7153 176.968 17.598 177.186 17.386C177.405 17.174 177.524 16.89 177.524 16.5896Z" fill="#FF6600"/>
<path d="M184.014 21.3394C184.649 21.3394 185.165 20.8332 185.165 20.2137L185.18 16.5463C185.18 15.9248 184.665 15.4165 184.031 15.4165C183.394 15.4165 182.878 15.9207 182.878 16.5422L182.863 20.2096C182.863 20.51 182.983 20.7941 183.199 21.0081C183.415 21.2221 183.705 21.3394 184.012 21.3394" fill="#FF6600"/>
<path d="M181.065 10.2961C181.065 9.67459 180.548 9.16832 179.916 9.16626L171.932 9.15186C171.298 9.15186 170.779 9.65606 170.779 10.2776C170.779 10.9012 171.294 11.4074 171.928 11.4074L179.913 11.4218C180.22 11.4218 180.51 11.3045 180.729 11.0925C180.947 10.8806 181.067 10.5966 181.067 10.2961" fill="#FF6600"/>
<path d="M181.065 23.7924C181.065 23.1709 180.548 22.6647 179.916 22.6626L171.932 22.6482C171.298 22.6482 170.779 23.1524 170.779 23.7739C170.779 24.3975 171.294 24.9038 171.928 24.9038L179.913 24.9182C180.22 24.9182 180.51 24.8009 180.729 24.5889C180.947 24.3769 181.067 24.0929 181.067 23.7924" fill="#FF6600"/>
<path d="M187.396 9.15186V11.4074C190.565 11.4074 193.142 13.9326 193.142 17.036C193.142 20.1395 190.565 22.6647 187.396 22.6647V24.9202C191.836 24.9202 195.445 21.3825 195.445 17.036C195.445 12.6896 191.834 9.15186 187.396 9.15186Z" fill="#FF6600"/>
<path d="M185.168 18.3389V11.4096H187.399V9.15405H184.017C183.382 9.15405 182.865 9.66032 182.865 10.2818V18.3389H185.168Z" fill="#FF6600"/>
<path d="M185.168 15.7354V22.6646H187.399V24.9202H184.017C183.382 24.9202 182.865 24.4139 182.865 23.7924V15.7354H185.168Z" fill="#FF6600"/>
</g>
<defs>
<clipPath id="clip0_1296_2327">
<rect width="210" height="33" fill="white"/>
</clipPath>
</defs>
</svg>
