<svg width="657" height="137" viewBox="0 0 657 137" fill="none" xmlns="http://www.w3.org/2000/svg">
<path d="M76.8999 115.63C76.2499 115.63 75.64 115.75 75.07 115.96C74.59 116.14 74.08 116.26 73.57 116.29C73.47 116.3 73.37 116.3 73.29 116.3C69.58 116.3 66.37 114.22 64.74 111.16L64.7099 111.11C64.4899 110.69 64.35 110.24 64.26 109.78C63.8 107.21 61.5799 105.26 58.8799 105.26C58.2499 105.26 57.6501 105.38 57.0801 105.58C56.5801 105.76 56.06 105.89 55.53 105.93C55.43 105.94 55.33 105.94 55.25 105.94C51.45 105.94 48.2199 103.84 46.6299 100.67V100.66C46.4399 100.28 46.32 99.88 46.25 99.47C45.81 96.88 43.5801 94.8999 40.8701 94.8999C40.2401 94.8999 39.6501 95.01 39.0901 95.21C38.6501 95.37 38.1799 95.47 37.7099 95.5C37.5499 95.51 37.4 95.52 37.27 95.52C33.23 95.52 29.76 92.6101 28.3 89.1101L28.1001 88.5601C27.8801 87.7701 27.49 87.06 26.98 86.46C26.58 85.99 26.1901 85.51 25.8601 84.99C25.5501 84.51 25.21 83.9601 25.05 83.6001C24.48 82.3301 24.01 80.9499 24.01 79.6699C24.01 78.1199 24.38 76.6601 25.02 75.3701C25.06 75.2901 25.1099 75.1901 25.1699 75.0901C25.5299 74.4301 26.0201 73.8501 26.5701 73.3401C27.7101 72.2901 28.4001 70.7501 28.3201 69.0601C28.1901 66.2301 25.88 63.9401 23.06 63.8301C19.93 63.7101 17.3501 66.2101 17.3501 69.3101C17.3501 70.9001 18.0301 72.3301 19.1101 73.3301C19.7201 73.8901 20.2599 74.54 20.6599 75.26C20.7299 75.39 20.8001 75.5199 20.8501 75.6299C21.4201 76.8599 21.73 78.2199 21.73 79.6599C21.73 81.0599 21.6301 83.6801 19.6101 85.5801C18.2701 86.8501 17.1801 88.48 17.3601 90.52C17.5801 92.86 19.3001 94.8101 21.5901 95.3601C22.7101 95.6301 23.7599 95.5099 24.6999 95.1599C25.1899 94.9799 25.6899 94.8601 26.2099 94.8401C26.3099 94.8401 26.4 94.8301 26.47 94.8301C30.14 94.8301 33.37 96.79 35.02 99.79V99.8C35.22 100.17 35.3499 100.58 35.3999 101C35.7099 103.74 38.0201 105.87 40.8401 105.87C41.4901 105.87 42.1199 105.74 42.6899 105.53C43.1499 105.36 43.6399 105.24 44.1299 105.21C44.2599 105.2 44.39 105.2 44.48 105.2C48 105.2 51.09 107.1 52.79 109.92C52.8 109.94 52.8101 109.96 52.8301 109.98C53.1401 110.52 53.37 111.1 53.47 111.71C53.93 114.28 56.1501 116.23 58.8501 116.23C59.5201 116.23 60.15 116.1 60.74 115.87C61.29 115.66 61.8699 115.56 62.4499 115.55C62.4799 115.55 62.5 115.55 62.53 115.55C66.01 115.55 69.0099 117.34 70.7099 120.09C70.7199 120.11 70.74 120.14 70.75 120.16C71.11 120.78 71.37 121.45 71.51 122.16C72.02 124.76 74.3401 126.7 77.1101 126.58C79.9401 126.46 82.2401 124.15 82.3501 121.32C82.5001 118.21 79.9999 115.63 76.8999 115.63ZM22.8401 54.0801C25.8701 54.0801 28.3301 51.6201 28.3301 48.5901C28.3301 45.5601 25.8701 43.1001 22.8401 43.1001C19.8101 43.1001 17.3501 45.5601 17.3501 48.5901C17.3501 51.6201 19.8101 54.0801 22.8401 54.0801ZM22.8401 33.3501C25.8701 33.3501 28.3301 30.8901 28.3301 27.8601C28.3301 24.8301 25.8701 22.3701 22.8401 22.3701C19.8101 22.3701 17.3501 24.8301 17.3501 27.8601C17.3501 30.8901 19.8101 33.3501 22.8401 33.3501Z" fill="#FF9800"/>
<path d="M95.6399 103.96C94.5699 103.85 93.5501 103.99 92.6201 104.32C92.1701 104.48 91.71 104.63 91.24 104.74C90.78 104.85 90.2301 104.95 89.8501 104.95C87.4301 104.95 85.3301 103.57 84.3101 101.55C84.1601 101.25 84.0001 100.73 83.8701 100.3C83.7701 99.96 83.6899 99.61 83.6299 99.26C83.0799 96.03 80.2799 93.5701 76.8999 93.5701C75.9699 93.5701 75.09 93.7601 74.28 94.1001C74.14 94.1601 74.0101 94.22 73.8701 94.27C73.2301 94.5 72.5401 94.6299 71.8201 94.6299C69.2801 94.6299 67.0899 93.0999 66.1299 90.9099C65.8599 90.3099 65.6201 88.96 65.6201 88.96C65.0901 85.71 62.2799 83.22 58.8799 83.22C58.0499 83.22 57.26 83.3699 56.53 83.6399C56.53 83.6399 54.7801 84.23 53.8201 84.23C51.1801 84.23 48.94 82.59 48.03 80.27C47.8 79.69 47.5601 78.3899 47.5601 78.3899C47.2601 76.8299 46.43 75.46 45.26 74.47C44.93 74.19 44.6101 73.9001 44.3301 73.5801C44.0101 73.2201 43.6199 72.7599 43.4299 72.4199C42.8999 71.5099 42.6001 70.4501 42.6001 69.3201C42.6001 68.0001 43.01 66.77 43.72 65.77C43.87 65.55 44.1301 65.26 44.3701 65.01C44.6401 64.72 44.94 64.4499 45.25 64.1899C46.74 62.9399 47.6899 61.06 47.6899 58.96C47.6899 56.86 46.74 54.98 45.24 53.73C44.91 53.45 44.59 53.1601 44.29 52.8501C44.17 52.7301 44.06 52.61 43.98 52.51C43.12 51.44 42.6001 50.0801 42.6001 48.6001C42.6001 47.4801 42.8899 46.44 43.4099 45.53C43.6199 45.15 44.0599 44.64 44.4099 44.26C44.6699 43.98 44.95 43.72 45.25 43.47C46.85 42.13 47.8299 40.07 47.6799 37.79C47.4599 34.32 44.5999 31.5499 41.1299 31.4099C37.2299 31.2599 34.02 34.37 34.02 38.24C34.02 40.34 34.97 42.22 36.46 43.47C36.76 43.72 37.0501 43.99 37.3201 44.27C37.6101 44.58 37.9499 44.98 38.1399 45.27C38.7499 46.23 39.1101 47.3701 39.1101 48.6001C39.1101 50.0801 38.59 51.44 37.72 52.51C37.64 52.61 37.5299 52.7301 37.4199 52.8501C37.1199 53.1701 36.8 53.45 36.47 53.73C34.98 54.98 34.03 56.86 34.03 58.96C34.03 61.07 34.99 62.95 36.49 64.2C36.79 64.45 37.0901 64.72 37.3601 65C37.5501 65.21 37.7599 65.4301 37.8799 65.6001C38.6499 66.6401 39.1101 67.9201 39.1101 69.3101C39.1101 70.6001 38.72 71.8 38.04 72.8C37.88 73.04 37.6001 73.3599 37.3401 73.6299C37.0701 73.9199 36.77 74.19 36.47 74.45C34.87 75.79 33.89 77.8499 34.04 80.1299C34.26 83.5799 37.07 86.34 40.52 86.51C41.55 86.56 42.5399 86.38 43.4299 86.02C44.0199 85.78 44.63 85.6 45.25 85.53C45.5 85.5 45.75 85.48 45.95 85.48C48.11 85.48 50.0101 86.58 51.1201 88.25C51.2301 88.41 51.3399 88.6201 51.4399 88.8501C51.7799 89.5701 52.0099 90.3401 52.1299 91.1201C52.6399 94.3901 55.4601 96.8899 58.8701 96.8899C59.7401 96.8899 60.5601 96.7299 61.3201 96.4299C61.8501 96.2199 62.4 96.06 62.96 95.98C63.31 95.93 63.6699 95.8899 63.9399 95.8899C66.1799 95.8899 68.14 97.0701 69.24 98.8501C69.39 99.0901 69.5499 99.4601 69.6899 99.8201C69.9099 100.39 70.0599 100.98 70.1599 101.57C70.7099 104.79 73.5099 107.24 76.8899 107.24C77.7499 107.24 78.5701 107.08 79.3301 106.78C79.9701 106.54 80.63 106.37 81.3 106.27C81.54 106.23 81.77 106.21 81.96 106.21C84.45 106.21 86.5901 107.67 87.5801 109.78C87.6901 110.02 87.8099 110.39 87.8999 110.72C88.0099 111.1 88.0899 111.49 88.1499 111.89C88.6899 115.13 91.4999 117.6 94.8899 117.6C98.8299 117.6 101.99 114.27 101.71 110.27C101.51 106.98 98.9099 104.3 95.6399 103.96ZM40.8601 24.3401C44.6401 24.3401 47.7 21.28 47.7 17.5C47.7 13.72 44.6401 10.6599 40.8601 10.6599C37.0801 10.6599 34.02 13.72 34.02 17.5C34.02 21.28 37.0801 24.3401 40.8601 24.3401Z" fill="#FF9800"/>
<path d="M4.82007 83.8101C7.07007 83.8101 8.8999 81.9599 8.8999 79.6699C8.8999 77.3799 7.07007 75.53 4.82007 75.53C2.57007 75.53 0.73999 77.3799 0.73999 79.6699C0.73999 81.9599 2.57007 83.8101 4.82007 83.8101ZM4.82007 63.0901C7.07007 63.0901 8.8999 61.24 8.8999 58.95C8.8999 56.66 7.07007 54.8101 4.82007 54.8101C2.57007 54.8101 0.73999 56.66 0.73999 58.95C0.73999 61.23 2.57007 63.0901 4.82007 63.0901ZM4.82007 42.3601C7.07007 42.3601 8.8999 40.51 8.8999 38.22C8.8999 35.93 7.07007 34.0801 4.82007 34.0801C2.57007 34.0801 0.73999 35.93 0.73999 38.22C0.73999 40.51 2.57007 42.3601 4.82007 42.3601ZM58.8799 127.34C58.7199 127.34 57.46 127.43 57 127.43C51.83 127.43 47.3501 124.57 45.1101 120.39C44.9401 120.08 44.5601 119.38 44.5601 119.38C43.9101 117.97 42.5101 116.99 40.8701 116.99C40.7401 116.99 39.48 117.12 38.97 117.12C33.97 117.12 29.6301 114.45 27.3101 110.49C27.0301 110.01 26.5 108.96 26.5 108.96C25.84 107.58 24.4601 106.63 22.8501 106.63C22.7401 106.63 21.4299 106.74 20.8899 106.74C15.6599 106.74 11.1399 103.82 8.91992 99.5601C8.80992 99.3501 8.71012 99.1299 8.62012 98.9099C8.03012 97.3699 6.57009 96.27 4.84009 96.27C2.59009 96.27 0.76001 98.1199 0.76001 100.41C0.76001 102.7 2.59009 104.55 4.84009 104.55C5.02009 104.55 6.31002 104.46 6.77002 104.46C11.53 104.46 15.7001 106.88 18.0801 110.52C18.4801 111.13 19.1299 112.45 19.1299 112.45C19.7599 113.9 21.1901 114.92 22.8501 114.92C23.0101 114.92 24.29 114.84 24.75 114.84C29.81 114.84 34.2 117.57 36.49 121.61C36.71 122.01 37.1799 122.88 37.1799 122.88C37.8299 124.3 39.2301 125.29 40.8701 125.29C41.0101 125.29 42.28 125.2 42.76 125.2C47.7 125.2 52.0201 127.8 54.3601 131.68C54.6701 132.19 55.23 133.3 55.23 133.3C55.89 134.68 57.2699 135.65 58.8899 135.65C61.1399 135.65 62.97 133.8 62.97 131.51C62.95 129.19 61.1299 127.34 58.8799 127.34Z" fill="#FF9800"/>
<path d="M58.8799 13.9399C62.6599 13.9399 65.72 10.8801 65.72 7.1001C65.72 3.3201 62.6599 0.26001 58.8799 0.26001C55.0999 0.26001 52.04 3.3201 52.04 7.1001C52.04 10.8801 55.0999 13.9399 58.8799 13.9399Z" fill="#FF6633"/>
<path d="M58.8799 34.6599C62.6599 34.6599 65.72 31.6001 65.72 27.8201C65.72 24.0401 62.6599 20.98 58.8799 20.98C55.0999 20.98 52.04 24.0401 52.04 27.8201C52.04 31.6001 55.0999 34.6599 58.8799 34.6599Z" fill="#FF6633"/>
<path d="M58.8799 55.3799C62.6599 55.3799 65.72 52.32 65.72 48.54C65.72 44.76 62.6599 41.7 58.8799 41.7C55.0999 41.7 52.04 44.76 52.04 48.54C52.04 52.32 55.0999 55.3799 58.8799 55.3799Z" fill="#FF6633"/>
<path d="M58.8799 76.1101C62.6599 76.1101 65.72 73.05 65.72 69.27C65.72 65.49 62.6599 62.4299 58.8799 62.4299C55.0999 62.4299 52.04 65.49 52.04 69.27C52.04 73.05 55.0999 76.1101 58.8799 76.1101Z" fill="#FF6633"/>
<path d="M76.8999 24.3C80.6799 24.3 83.74 21.24 83.74 17.46C83.74 13.68 80.6799 10.6201 76.8999 10.6201C73.1199 10.6201 70.0601 13.68 70.0601 17.46C70.0601 21.24 73.1199 24.3 76.8999 24.3Z" fill="#FF6633"/>
<path d="M76.8999 45.02C80.6799 45.02 83.74 41.9599 83.74 38.1799C83.74 34.3999 80.6799 31.3401 76.8999 31.3401C73.1199 31.3401 70.0601 34.3999 70.0601 38.1799C70.0601 41.9599 73.1199 45.02 76.8999 45.02Z" fill="#FF6633"/>
<path d="M76.8999 65.75C80.6799 65.75 83.74 62.6899 83.74 58.9099C83.74 55.1299 80.6799 52.0701 76.8999 52.0701C73.1199 52.0701 70.0601 55.1299 70.0601 58.9099C70.0601 62.6799 73.1199 65.75 76.8999 65.75Z" fill="#FF6633"/>
<path d="M76.8999 86.47C80.6799 86.47 83.74 83.4099 83.74 79.6299C83.74 75.8499 80.6799 72.79 76.8999 72.79C73.1199 72.79 70.0601 75.8499 70.0601 79.6299C70.0601 83.4099 73.1199 86.47 76.8999 86.47Z" fill="#FF6633"/>
<path d="M94.9099 34.6599C98.6899 34.6599 101.75 31.6001 101.75 27.8201C101.75 24.0401 98.6899 20.98 94.9099 20.98C91.1299 20.98 88.0701 24.0401 88.0701 27.8201C88.0801 31.6001 91.1399 34.6599 94.9099 34.6599Z" fill="#FF6633"/>
<path d="M94.9099 55.3799C98.6899 55.3799 101.75 52.32 101.75 48.54C101.75 44.76 98.6899 41.7 94.9099 41.7C91.1299 41.7 88.0701 44.76 88.0701 48.54C88.0801 52.32 91.1399 55.3799 94.9099 55.3799Z" fill="#FF6633"/>
<path d="M94.9099 76.1101C98.6899 76.1101 101.75 73.05 101.75 69.27C101.75 65.49 98.6899 62.4299 94.9099 62.4299C91.1299 62.4299 88.0701 65.49 88.0701 69.27C88.0801 73.05 91.1399 76.1101 94.9099 76.1101Z" fill="#FF6633"/>
<path d="M94.9099 96.8301C98.6899 96.8301 101.75 93.77 101.75 89.99C101.75 86.21 98.6899 83.1499 94.9099 83.1499C91.1299 83.1499 88.0701 86.21 88.0701 89.99C88.0801 93.77 91.1399 96.8301 94.9099 96.8301Z" fill="#FF6633"/>
<path d="M112.93 45.02C116.71 45.02 119.77 41.9599 119.77 38.1799C119.77 34.3999 116.71 31.3401 112.93 31.3401C109.15 31.3401 106.09 34.3999 106.09 38.1799C106.1 41.9599 109.16 45.02 112.93 45.02Z" fill="#FF6633"/>
<path d="M112.93 65.74C116.71 65.74 119.77 62.6799 119.77 58.8999C119.77 55.1199 116.71 52.0601 112.93 52.0601C109.15 52.0601 106.09 55.1199 106.09 58.8999C106.1 62.6799 109.16 65.74 112.93 65.74Z" fill="#FF6633"/>
<path d="M112.93 86.47C116.71 86.47 119.77 83.4099 119.77 79.6299C119.77 75.8499 116.71 72.79 112.93 72.79C109.15 72.79 106.09 75.8499 106.09 79.6299C106.1 83.4099 109.16 86.47 112.93 86.47Z" fill="#FF6633"/>
<path d="M112.93 107.19C116.71 107.19 119.77 104.13 119.77 100.35C119.77 96.5701 116.71 93.51 112.93 93.51C109.15 93.51 106.09 96.5701 106.09 100.35C106.1 104.13 109.16 107.19 112.93 107.19Z" fill="#FF6633"/>
<path d="M620.92 115.52C621 115.4 621.07 115.28 621.12 115.14C621.17 115 621.19 114.86 621.21 114.72C621.22 114.63 621.26 114.55 621.26 114.46C621.26 114.42 621.24 114.39 621.24 114.35C621.23 114.2 621.19 114.07 621.15 113.92C621.12 113.8 621.09 113.67 621.04 113.56C620.99 113.45 620.9 113.35 620.83 113.25C620.74 113.13 620.66 113.02 620.55 112.92C620.52 112.89 620.51 112.86 620.48 112.83C620.41 112.77 620.32 112.75 620.24 112.71C620.12 112.63 620 112.56 619.86 112.51C619.72 112.46 619.58 112.44 619.44 112.43C619.35 112.42 619.27 112.38 619.18 112.38H607.85C606.7 112.38 605.76 113.32 605.76 114.47C605.76 115.62 606.7 116.56 607.85 116.56H614.88L605.96 127.9C605.92 127.95 605.9 128.02 605.87 128.08C605.78 128.22 605.69 128.37 605.64 128.53C605.6 128.66 605.58 128.78 605.56 128.92C605.55 129.01 605.5 129.1 605.5 129.2C605.5 129.24 605.52 129.28 605.52 129.32C605.53 129.48 605.57 129.62 605.61 129.78C605.64 129.89 605.66 130 605.71 130.1C605.78 130.24 605.88 130.37 605.98 130.49C606.05 130.58 606.11 130.66 606.19 130.74C606.23 130.78 606.25 130.82 606.29 130.86C606.67 131.17 607.02 131.27 607.55 131.3C607.57 131.3 607.58 131.31 607.6 131.31H607.8C607.81 131.31 607.82 131.31 607.83 131.31H619.13C620.28 131.31 621.22 130.37 621.22 129.22C621.22 128.07 620.28 127.13 619.13 127.13H611.91L620.82 115.81C620.85 115.69 620.87 115.6 620.92 115.52ZM637.09 112.36C636.48 112.36 635.94 112.57 635.54 112.98C635.13 113.39 634.92 113.92 634.92 114.53V124.5C634.92 125.05 634.78 125.52 634.5 125.94C634.2 126.37 633.79 126.71 633.24 126.96C632.67 127.23 631.99 127.36 631.22 127.36C630.49 127.36 629.85 127.23 629.31 126.97C628.79 126.72 628.4 126.39 628.11 125.95C627.84 125.53 627.7 125.06 627.7 124.5V114.53C627.7 113.91 627.48 113.37 627.05 112.96C626.64 112.56 626.11 112.35 625.52 112.35C624.9 112.35 624.37 112.57 623.96 112.99C623.57 113.4 623.36 113.93 623.36 114.53V124.5C623.36 125.86 623.71 127.08 624.39 128.15C625.07 129.21 626.02 130.04 627.22 130.63C628.39 131.21 629.73 131.5 631.21 131.5C632.73 131.5 634.11 131.21 635.3 130.64C636.52 130.05 637.5 129.22 638.19 128.16C638.9 127.09 639.25 125.86 639.25 124.5V114.53C639.25 113.91 639.03 113.37 638.6 112.96C638.21 112.57 637.68 112.36 637.09 112.36ZM655.42 115.57C654.86 114.57 654.08 113.77 653.08 113.21C652.1 112.65 650.96 112.37 649.71 112.37H643.92C643.33 112.37 642.8 112.58 642.39 112.98C641.97 113.39 641.74 113.93 641.74 114.55V129C641.74 129.6 641.96 130.13 642.37 130.54C642.79 130.96 643.32 131.18 643.92 131.18C644.54 131.18 645.08 130.96 645.49 130.53C645.89 130.12 646.1 129.59 646.1 129V125.39H649.71C650.96 125.39 652.09 125.12 653.07 124.57C654.07 124.02 654.85 123.24 655.42 122.26C655.97 121.29 656.25 120.18 656.25 118.96C656.25 117.7 655.97 116.56 655.42 115.57ZM651.69 120.14C651.5 120.47 651.25 120.73 650.91 120.92C650.57 121.11 650.18 121.21 649.71 121.21H646.1V116.56H649.71C650.17 116.56 650.56 116.66 650.89 116.86C651.23 117.06 651.49 117.33 651.68 117.68C651.88 118.04 651.98 118.47 651.98 118.97C651.98 119.41 651.88 119.8 651.69 120.14ZM580.64 118.92C579.63 118.36 578.5 118.07 577.26 118.07C576.18 118.07 575.21 118.29 574.34 118.74C573.47 119.19 572.76 119.84 572.21 120.7V112.72H570.42V131.46H572.14V128.83C572.68 129.72 573.39 130.4 574.27 130.88C575.15 131.35 576.15 131.59 577.26 131.59C578.51 131.59 579.63 131.3 580.64 130.73C581.65 130.16 582.44 129.36 583.02 128.33C583.59 127.3 583.88 126.13 583.88 124.82C583.88 123.51 583.59 122.34 583.02 121.31C582.44 120.28 581.65 119.48 580.64 118.92ZM581.44 127.52C581.01 128.31 580.42 128.92 579.66 129.35C578.9 129.78 578.06 129.99 577.13 129.99C576.19 129.99 575.34 129.78 574.59 129.35C573.84 128.92 573.25 128.31 572.82 127.52C572.39 126.73 572.17 125.83 572.17 124.82C572.17 123.81 572.39 122.91 572.82 122.12C573.25 121.33 573.84 120.72 574.59 120.29C575.34 119.86 576.19 119.65 577.13 119.65C578.06 119.65 578.9 119.86 579.66 120.29C580.42 120.72 581.01 121.33 581.44 122.12C581.87 122.91 582.09 123.81 582.09 124.82C582.08 125.83 581.87 126.73 581.44 127.52ZM591.55 129.46L586.55 118.17H584.68L590.62 131.43L590.04 132.72C589.67 133.53 589.27 134.1 588.84 134.44C588.41 134.78 587.89 134.95 587.29 134.95C586.35 134.95 585.54 134.61 584.86 133.94L584.03 135.28C584.43 135.68 584.91 135.99 585.47 136.19C586.03 136.39 586.62 136.49 587.26 136.49C588.25 136.49 589.1 136.23 589.81 135.71C590.52 135.19 591.14 134.3 591.68 133.06L598.32 118.18H596.55L591.55 129.46Z" fill="white"/>
<path d="M462.74 63.6101H445.62C441.1 63.6101 437.42 59.9299 437.42 55.4099C437.42 50.8899 441.1 47.21 445.62 47.21H464.64C467.19 47.21 469.27 45.1301 469.27 42.5801C469.27 40.0301 467.19 37.95 464.64 37.95H445.62C436 37.95 428.17 45.7799 428.17 55.3999C428.17 65.0199 436 72.8501 445.62 72.8501H462.74C468.35 72.8501 472.92 77.42 472.92 83.03C472.92 88.64 468.35 93.21 462.74 93.21H432.79C430.24 93.21 428.17 95.2801 428.17 97.8301C428.17 100.38 430.24 102.46 432.79 102.46H462.74C473.45 102.46 482.17 93.74 482.17 83.03C482.17 72.33 473.45 63.6101 462.74 63.6101ZM342.64 48.27H358.72C361.27 48.27 363.34 46.1899 363.34 43.6399C363.34 41.0899 361.27 39.01 358.72 39.01H342.64C325.14 39.01 310.91 53.24 310.91 70.74C310.91 88.23 325.14 102.47 342.64 102.47H358.72C361.27 102.47 363.34 100.39 363.34 97.8401C363.34 95.2901 361.27 93.22 358.72 93.22H342.64C330.25 93.22 320.16 83.14 320.16 70.74C320.16 58.34 330.24 48.27 342.64 48.27ZM397.79 69.95L422.15 45.5901C423.95 43.7901 423.95 40.85 422.15 39.05C421.25 38.15 420.06 37.7 418.88 37.7C417.7 37.7 416.51 38.15 415.61 39.05L387.98 66.6799C386.18 68.4799 386.18 71.42 387.98 73.22L415.88 101.12C417.63 102.87 420.68 102.87 422.42 101.12C424.23 99.3101 424.23 96.3801 422.42 94.5701L397.79 69.95ZM611.69 47.0701H626.97V97.8501C626.97 100.4 629.05 102.48 631.6 102.48C634.15 102.48 636.23 100.4 636.23 97.8501V47.0701H651.51C654.06 47.0701 656.14 44.9899 656.14 42.4399C656.14 39.8899 654.06 37.8101 651.51 37.8101H611.7C609.15 37.8101 607.08 39.8899 607.08 42.4399C607.08 44.9899 609.14 47.0701 611.69 47.0701ZM190.04 63.6101H172.92C168.4 63.6101 164.72 59.9299 164.72 55.4099C164.72 50.8899 168.4 47.21 172.92 47.21H191.94C194.49 47.21 196.57 45.1301 196.57 42.5801C196.57 40.0301 194.49 37.95 191.94 37.95H172.92C163.3 37.95 155.47 45.7799 155.47 55.3999C155.47 65.0199 163.3 72.8501 172.92 72.8501H190.04C195.65 72.8501 200.22 77.42 200.22 83.03C200.22 88.64 195.65 93.21 190.04 93.21H160.09C157.54 93.21 155.46 95.2801 155.46 97.8301C155.46 100.38 157.54 102.46 160.09 102.46H190.04C200.75 102.46 209.47 93.74 209.47 83.03C209.47 72.33 200.75 63.6101 190.04 63.6101ZM261.46 42.4399C261.46 39.8899 259.38 37.8101 256.83 37.8101H207.92C205.37 37.8101 203.3 39.8899 203.3 42.4399C203.3 44.9899 205.37 47.0701 207.92 47.0701H220.69V97.8501C220.69 100.4 222.77 102.48 225.32 102.48C227.87 102.48 229.94 100.4 229.94 97.8501V47.0701H256.83C259.38 47.0701 261.46 44.9899 261.46 42.4399ZM296.65 38.52L296.46 38.5801L296.28 38.6799C295.72 38.9399 295.29 39.2301 294.95 39.5801L239.96 94.5701C238.16 96.3701 238.16 99.3101 239.96 101.11C241.71 102.86 244.75 102.86 246.5 101.11L293.66 53.95L293.7 97.0601C293.7 99.6101 295.78 101.68 298.33 101.68C300.88 101.68 302.96 99.6 302.95 97.05L302.89 42.8201C302.89 39.7501 299.87 37.3 296.65 38.52ZM375.78 38.21C373.23 38.21 371.15 40.2801 371.15 42.8301L371.09 97.0601C371.09 99.6101 373.16 101.69 375.71 101.69C378.26 101.69 380.34 99.6201 380.34 97.0701L380.4 42.8401C380.4 41.6001 379.92 40.4401 379.05 39.5701C378.17 38.6901 377.01 38.21 375.78 38.21ZM577.25 37.8C559.42 37.8 544.91 52.3099 544.91 70.1399C544.91 87.9699 559.42 102.48 577.25 102.48C595.08 102.48 609.59 87.9699 609.59 70.1399C609.59 52.3099 595.08 37.8 577.25 37.8ZM577.25 93.23C564.52 93.23 554.16 82.8699 554.16 70.1399C554.16 57.4099 564.52 47.05 577.25 47.05C589.98 47.05 600.34 57.4099 600.34 70.1399C600.34 82.8799 589.98 93.23 577.25 93.23ZM513.89 37.97H492.87C490.32 37.97 488.24 40.0501 488.24 42.6001V97.8601C488.24 100.41 490.32 102.49 492.87 102.49C495.42 102.49 497.49 100.41 497.49 97.8601V87.78L514.03 87.8C527.62 87.79 538.79 76.6199 538.79 62.8899C538.79 49.1599 527.63 37.97 513.89 37.97ZM513.99 78.53L497.5 78.54V47.21H513.9C522.53 47.21 529.56 54.2301 529.56 62.8701C529.55 71.4701 522.58 78.48 513.99 78.53Z" fill="white"/>
</svg>
