<?xml version="1.0" encoding="UTF-8" standalone="no"?>
<svg
   width="656"
   height="137"
   viewBox="0 0 656 137"
   fill="none"
   version="1.1"
   id="svg44"
   sodipodi:docname="logo-white-footer.svg"
   inkscape:version="1.1.2 (0a00cf5339, 2022-02-04)"
   xmlns:inkscape="http://www.inkscape.org/namespaces/inkscape"
   xmlns:sodipodi="http://sodipodi.sourceforge.net/DTD/sodipodi-0.dtd"
   xmlns="http://www.w3.org/2000/svg"
   xmlns:svg="http://www.w3.org/2000/svg">
  <defs
     id="defs48" />
  <sodipodi:namedview
     id="namedview46"
     pagecolor="#505050"
     bordercolor="#eeeeee"
     borderopacity="1"
     inkscape:pageshadow="0"
     inkscape:pageopacity="0"
     inkscape:pagecheckerboard="0"
     showgrid="false"
     inkscape:snap-global="false"
     inkscape:zoom="2.2713415"
     inkscape:cx="98.4"
     inkscape:cy="108.30604"
     inkscape:window-width="1920"
     inkscape:window-height="923"
     inkscape:window-x="0"
     inkscape:window-y="0"
     inkscape:window-maximized="1"
     inkscape:current-layer="svg44" />
  <path
     d="m 620.56,115.52 c 0.08,-0.12 0.15,-0.24 0.2,-0.38 0.05,-0.14 0.07,-0.28 0.09,-0.42 0.01,-0.09 0.05,-0.17 0.05,-0.26 0,-0.04 -0.02,-0.07 -0.02,-0.11 -0.01,-0.15 -0.05,-0.28 -0.09,-0.43 -0.03,-0.12 -0.06,-0.25 -0.11,-0.36 -0.05,-0.11 -0.14,-0.21 -0.21,-0.31 -0.09,-0.12 -0.17,-0.23 -0.28,-0.33 -0.03,-0.03 -0.04,-0.06 -0.07,-0.09 -0.07,-0.06 -0.16,-0.08 -0.24,-0.12 -0.12,-0.08 -0.24,-0.15 -0.38,-0.2 -0.14,-0.05 -0.28,-0.07 -0.42,-0.08 -0.09,-0.01 -0.17,-0.05 -0.26,-0.05 h -11.33 c -1.15,0 -2.09,0.94 -2.09,2.09 0,1.15 0.94,2.09 2.09,2.09 h 7.03 l -8.92,11.34 c -0.04,0.05 -0.06,0.12 -0.09,0.18 -0.09,0.14 -0.18,0.29 -0.23,0.45 -0.04,0.13 -0.06,0.25 -0.08,0.39 -0.01,0.09 -0.06,0.18 -0.06,0.28 0,0.04 0.02,0.08 0.02,0.12 0.01,0.16 0.05,0.3 0.09,0.46 0.03,0.11 0.05,0.22 0.1,0.32 0.07,0.14 0.17,0.27 0.27,0.39 0.07,0.09 0.13,0.17 0.21,0.25 0.04,0.04 0.06,0.08 0.1,0.12 0.38,0.31 0.73,0.41 1.26,0.44 0.02,0 0.03,0.01 0.05,0.01 h 0.2 c 0.01,0 0.02,0 0.03,0 h 11.3 c 1.15,0 2.09,-0.94 2.09,-2.09 0,-1.15 -0.94,-2.09 -2.09,-2.09 h -7.22 l 8.91,-11.32 c 0.03,-0.12 0.05,-0.21 0.1,-0.29 z m 16.17,-3.16 c -0.61,0 -1.15,0.21 -1.55,0.62 -0.41,0.41 -0.62,0.94 -0.62,1.55 v 9.97 c 0,0.55 -0.14,1.02 -0.42,1.44 -0.3,0.43 -0.71,0.77 -1.26,1.02 -0.57,0.27 -1.25,0.4 -2.02,0.4 -0.73,0 -1.37,-0.13 -1.91,-0.39 -0.52,-0.25 -0.91,-0.58 -1.2,-1.02 -0.27,-0.42 -0.41,-0.89 -0.41,-1.45 v -9.97 c 0,-0.62 -0.22,-1.16 -0.65,-1.57 -0.41,-0.4 -0.94,-0.61 -1.53,-0.61 -0.62,0 -1.15,0.22 -1.56,0.64 -0.39,0.41 -0.6,0.94 -0.6,1.54 v 9.97 c 0,1.36 0.35,2.58 1.03,3.65 0.68,1.06 1.63,1.89 2.83,2.48 1.17,0.58 2.51,0.87 3.99,0.87 1.52,0 2.9,-0.29 4.09,-0.86 1.22,-0.59 2.2,-1.42 2.89,-2.48 0.71,-1.07 1.06,-2.3 1.06,-3.66 v -9.97 c 0,-0.62 -0.22,-1.16 -0.65,-1.57 -0.39,-0.39 -0.92,-0.6 -1.51,-0.6 z m 18.33,3.21 c -0.56,-1 -1.34,-1.8 -2.34,-2.36 -0.98,-0.56 -2.12,-0.84 -3.37,-0.84 h -5.79 c -0.59,0 -1.12,0.21 -1.53,0.61 -0.42,0.41 -0.65,0.95 -0.65,1.57 V 129 c 0,0.6 0.22,1.13 0.63,1.54 0.42,0.42 0.95,0.64 1.55,0.64 0.62,0 1.16,-0.22 1.57,-0.65 0.4,-0.41 0.61,-0.94 0.61,-1.53 v -3.61 h 3.61 c 1.25,0 2.38,-0.27 3.36,-0.82 1,-0.55 1.78,-1.33 2.35,-2.31 0.55,-0.97 0.83,-2.08 0.83,-3.3 0,-1.26 -0.28,-2.4 -0.83,-3.39 z m -3.73,4.57 c -0.19,0.33 -0.44,0.59 -0.78,0.78 -0.34,0.19 -0.73,0.29 -1.2,0.29 h -3.61 v -4.65 h 3.61 c 0.46,0 0.85,0.1 1.18,0.3 0.34,0.2 0.6,0.47 0.79,0.82 0.2,0.36 0.3,0.79 0.3,1.29 -0.01,0.44 -0.1,0.83 -0.29,1.17 z m -71.05,-1.22 c -1.01,-0.56 -2.14,-0.85 -3.38,-0.85 -1.08,0 -2.05,0.22 -2.92,0.67 -0.87,0.45 -1.58,1.1 -2.13,1.96 v -7.98 h -1.79 v 18.74 h 1.72 v -2.63 c 0.54,0.89 1.25,1.57 2.13,2.05 0.88,0.47 1.88,0.71 2.99,0.71 1.25,0 2.37,-0.29 3.38,-0.86 1.01,-0.57 1.8,-1.37 2.38,-2.4 0.57,-1.03 0.86,-2.2 0.86,-3.51 0,-1.31 -0.29,-2.48 -0.86,-3.51 -0.58,-1.03 -1.37,-1.83 -2.38,-2.39 z m 0.79,8.6 c -0.43,0.79 -1.02,1.4 -1.78,1.83 -0.76,0.43 -1.6,0.64 -2.53,0.64 -0.94,0 -1.79,-0.21 -2.54,-0.64 -0.75,-0.43 -1.34,-1.04 -1.77,-1.83 -0.43,-0.79 -0.65,-1.69 -0.65,-2.7 0,-1.01 0.22,-1.91 0.65,-2.7 0.43,-0.79 1.02,-1.4 1.77,-1.83 0.75,-0.43 1.6,-0.64 2.54,-0.64 0.93,0 1.77,0.21 2.53,0.64 0.76,0.43 1.35,1.04 1.78,1.83 0.43,0.79 0.65,1.69 0.65,2.7 0,1.01 -0.22,1.91 -0.65,2.7 z m 10.12,1.94 -5,-11.29 h -1.87 l 5.94,13.26 -0.58,1.29 c -0.37,0.81 -0.77,1.38 -1.2,1.72 -0.43,0.34 -0.95,0.51 -1.55,0.51 -0.94,0 -1.75,-0.34 -2.43,-1.01 l -0.83,1.34 c 0.4,0.4 0.88,0.71 1.44,0.91 0.56,0.2 1.15,0.3 1.79,0.3 0.99,0 1.84,-0.26 2.55,-0.78 0.71,-0.52 1.33,-1.41 1.87,-2.65 l 6.64,-14.88 h -1.77 z"
     fill="#011f4c"
     id="path40"
     style="opacity:1" />
  <path
     d="m 462.37,63.6101 h -17.12 c -4.52,0 -8.2,-3.6802 -8.2,-8.2002 0,-4.52 3.68,-8.1999 8.2,-8.1999 h 19.02 c 2.55,0 4.63,-2.0799 4.63,-4.6299 0,-2.55 -2.08,-4.6301 -4.63,-4.6301 h -19.02 c -9.62,0 -17.45,7.8299 -17.45,17.4499 0,9.62 7.83,17.4502 17.45,17.4502 h 17.12 c 5.61,0 10.18,4.5699 10.18,10.1799 0,5.61 -4.57,10.18 -10.18,10.18 h -29.95 c -2.55,0 -4.62,2.0701 -4.62,4.6201 0,2.5499 2.07,4.6299 4.62,4.6299 h 29.95 c 10.71,0 19.43,-8.72 19.43,-19.43 0.01,-10.7 -8.71,-19.4199 -19.43,-19.4199 z M 342.28,48.27 h 16.08 c 2.55,0 4.62,-2.0801 4.62,-4.6301 0,-2.55 -2.07,-4.6299 -4.62,-4.6299 h -16.08 c -17.5,0 -31.73,14.23 -31.73,31.73 0,17.49 14.23,31.73 31.73,31.73 h 16.08 c 2.55,0 4.62,-2.08 4.62,-4.6299 0,-2.55 -2.07,-4.6201 -4.62,-4.6201 h -16.08 c -12.39,0 -22.48,-10.08 -22.48,-22.48 0,-12.4 10.08,-22.47 22.48,-22.47 z m 55.14,21.68 24.36,-24.3599 c 1.8,-1.8 1.8,-4.7401 0,-6.5401 -0.9,-0.9 -2.09,-1.35 -3.27,-1.35 -1.18,0 -2.37,0.45 -3.27,1.35 l -27.63,27.6299 c -1.8,1.8 -1.8,4.7401 0,6.5401 l 27.9,27.9 c 1.75,1.75 4.8,1.75 6.54,0 1.81,-1.8099 1.81,-4.7399 0,-6.5499 z M 611.33,47.0701 h 15.28 v 50.78 c 0,2.5499 2.08,4.6299 4.63,4.6299 2.55,0 4.63,-2.08 4.63,-4.6299 v -50.78 h 15.28 c 2.55,0 4.63,-2.0802 4.63,-4.6302 0,-2.55 -2.08,-4.6298 -4.63,-4.6298 h -39.81 c -2.55,0 -4.62,2.0798 -4.62,4.6298 0,2.55 2.06,4.6302 4.61,4.6302 z m -421.65,16.54 h -17.12 c -4.52,0 -8.2,-3.6802 -8.2,-8.2002 0,-4.52 3.68,-8.1999 8.2,-8.1999 h 19.02 c 2.55,0 4.63,-2.0799 4.63,-4.6299 0,-2.55 -2.08,-4.6301 -4.63,-4.6301 h -19.02 c -9.62,0 -17.45,7.8299 -17.45,17.4499 0,9.62 7.83,17.4502 17.45,17.4502 h 17.12 c 5.61,0 10.18,4.5699 10.18,10.1799 0,5.61 -4.57,10.18 -10.18,10.18 h -29.95 c -2.55,0 -4.63,2.0701 -4.63,4.6201 0,2.5499 2.08,4.6299 4.63,4.6299 h 29.95 c 10.71,0 19.43,-8.72 19.43,-19.43 0,-10.7 -8.72,-19.4199 -19.43,-19.4199 z M 261.1,42.4399 c 0,-2.55 -2.08,-4.6298 -4.63,-4.6298 h -48.91 c -2.55,0 -4.62,2.0798 -4.62,4.6298 0,2.55 2.07,4.6302 4.62,4.6302 h 12.77 v 50.78 c 0,2.5499 2.08,4.6299 4.63,4.6299 2.55,0 4.62,-2.08 4.62,-4.6299 v -50.78 h 26.89 c 2.55,0 4.63,-2.0802 4.63,-4.6302 z m 35.18,-3.9199 -0.19,0.0601 -0.18,0.0998 c -0.56,0.26 -0.99,0.5502 -1.33,0.9002 l -54.99,54.99 c -1.8,1.8 -1.8,4.74 0,6.5399 1.75,1.75 4.79,1.75 6.54,0 l 47.16,-47.16 0.04,43.1101 c 0,2.55 2.08,4.6199 4.63,4.6199 2.55,0 4.63,-2.08 4.62,-4.63 l -0.06,-54.2299 c 0.01,-3.07 -3.01,-5.5201 -6.24,-4.3001 z m 79.13,-0.31 c -2.55,0 -4.63,2.0701 -4.63,4.6201 l -0.06,54.23 c 0,2.55 2.07,4.6299 4.62,4.6299 2.55,0 4.63,-2.0699 4.63,-4.6199 l 0.06,-54.23 c 0,-1.24 -0.48,-2.4 -1.35,-3.27 -0.87,-0.88 -2.03,-1.3601 -3.27,-1.3601 z M 576.89,37.8 c -17.83,0 -32.34,14.5099 -32.34,32.3399 0,17.83 14.51,32.3401 32.34,32.3401 17.83,0 32.34,-14.5101 32.34,-32.3401 0,-17.83 -14.51,-32.3399 -32.34,-32.3399 z m 0,55.43 c -12.73,0 -23.09,-10.3601 -23.09,-23.0901 0,-12.73 10.36,-23.0899 23.09,-23.0899 12.73,0 23.09,10.3599 23.09,23.0899 0,12.74 -10.36,23.0901 -23.09,23.0901 z M 513.53,37.97 h -21.02 c -2.55,0 -4.63,2.0801 -4.63,4.6301 v 55.26 c 0,2.5499 2.08,4.6299 4.63,4.6299 2.55,0 4.62,-2.08 4.62,-4.6299 V 87.78 l 16.54,0.02 c 13.59,-0.01 24.76,-11.1801 24.76,-24.9101 0,-13.73 -11.17,-24.9199 -24.9,-24.9199 z m 0.1,40.56 -16.49,0.01 V 47.21 h 16.4 c 8.63,0 15.66,7.0201 15.66,15.6601 -0.01,8.6 -6.98,15.6099 -15.57,15.6599 z"
     fill="#011f4c"
     id="path42"
     style="opacity:1" />
  <path
     d="m 76.576885,115.85432 c -0.65,0 -1.2599,0.12 -1.8299,0.33 -0.48,0.18 -0.99,0.3 -1.5,0.33 -0.1,0.01 -0.2,0.01 -0.28,0.01 -3.71,0 -6.92,-2.08 -8.55,-5.14 l -0.0301,-0.05 c -0.22,-0.42 -0.3599,-0.87 -0.4499,-1.33 -0.46,-2.57 -2.6801,-4.52 -5.3801,-4.52 -0.63,0 -1.2298,0.12 -1.7998,0.32 -0.5,0.18 -1.0201,0.31 -1.5501,0.35 -0.1,0.01 -0.2,0.01 -0.28,0.01 -3.8,0 -7.0301,-2.1 -8.6201,-5.27 v -0.01 c -0.19,-0.38 -0.3099,-0.78 -0.3799,-1.189997 -0.44,-2.59 -2.6699,-4.5701 -5.3799,-4.5701 -0.63,0 -1.22,0.1101 -1.78,0.3101 -0.44,0.16 -0.9102,0.26 -1.3802,0.29 -0.16,0.01 -0.3099,0.02 -0.4399,0.02 -4.04,0 -7.51,-2.9099 -8.97,-6.4099 l -0.1999,-0.55 c -0.22,-0.79 -0.6101,-1.5001 -1.1201,-2.1001 -0.4,-0.47 -0.7899,-0.95 -1.1199,-1.47 -0.31,-0.48 -0.6501,-1.0299 -0.8101,-1.3899 -0.57,-1.27 -1.04,-2.6502 -1.04,-3.9302 0,-1.55 0.37,-3.0098 1.01,-4.2998 0.04,-0.08 0.0899,-0.18 0.1499,-0.28 0.36,-0.66 0.8502,-1.24 1.4002,-1.75 1.14,-1.05 1.83,-2.59 1.75,-4.28 -0.13,-2.83 -2.4401,-5.12 -5.2601,-5.23 -3.13,-0.12 -5.7099,2.38 -5.7099,5.48 0,1.59 0.68,3.02 1.76,4.02 0.61,0.56 1.1498,1.2099 1.5498,1.9299 0.07,0.13 0.1402,0.2599 0.1902,0.3699 0.57,1.23 0.8799,2.59 0.8799,4.03 0,1.4 -0.0999,4.0202 -2.1199,5.9202 -1.34,1.27 -2.43,2.8999 -2.25,4.9399 0.22,2.34 1.94,4.2901 4.23,4.8401 1.12,0.27 2.1698,0.1498 3.1098,-0.2002 0.49,-0.18 0.99,-0.2998 1.51,-0.3198 0.1,0 0.1901,-0.01 0.2601,-0.01 3.67,0 6.9,1.9599 8.55,4.959897 v 0.01 c 0.2,0.37 0.3299,0.78 0.3799,1.2 0.31,2.74 2.6202,4.87 5.4402,4.87 0.65,0 1.2798,-0.13 1.8498,-0.34 0.46,-0.17 0.95,-0.29 1.44,-0.32 0.13,-0.01 0.2601,-0.01 0.3501,-0.01 3.52,0 6.61,1.9 8.31,4.72 0.01,0.02 0.0201,0.04 0.0401,0.06 0.31,0.54 0.5399,1.12 0.6399,1.73 0.46,2.57 2.6801,4.52 5.3801,4.52 0.67,0 1.2999,-0.13 1.8899,-0.36 0.55,-0.21 1.1299,-0.31 1.7099,-0.32 0.03,0 0.0501,0 0.0801,0 3.48,0 6.4799,1.79 8.1799,4.54 0.01,0.02 0.0301,0.05 0.0401,0.07 0.36,0.62 0.62,1.29 0.76,2 0.51,2.6 2.8301,4.54 5.6001,4.42 2.83,-0.12 5.13,-2.43 5.24,-5.26 0.15,-3.11 -2.3502,-5.69 -5.4502,-5.69 z m -54.0598,-61.549897 c 3.03,0 5.49,-2.46 5.49,-5.49 0,-3.03 -2.46,-5.49 -5.49,-5.49 -3.03,0 -5.49,2.46 -5.49,5.49 0,3.03 2.46,5.49 5.49,5.49 z m 0,-20.73 c 3.03,0 5.49,-2.459999 5.49,-5.489999 0,-3.03 -2.46,-5.49 -5.49,-5.49 -3.03,0 -5.49,2.46 -5.49,5.49 0,3.03 2.46,5.489999 5.49,5.489999 z"
     fill="#ff9800"
     id="path2-3"
     style="opacity:1" />
  <path
     d="m 95.316885,104.18432 c -1.07,-0.11 -2.0898,0.03 -3.0198,0.36 -0.45,0.16 -0.9101,0.31 -1.3801,0.42 -0.46,0.11 -1.0099,0.21 -1.3899,0.21 -2.42,0 -4.52,-1.38 -5.54,-3.4 -0.15,-0.3 -0.31,-0.82 -0.44,-1.25 -0.1,-0.34 -0.1802,-0.689997 -0.2402,-1.039997 -0.55,-3.23 -3.35,-5.6899 -6.73,-5.6899 -0.93,0 -1.8099,0.19 -2.6199,0.53 -0.14,0.06 -0.2699,0.1199 -0.4099,0.1699 -0.64,0.23 -1.33,0.3599 -2.05,0.3599 -2.54,0 -4.7302,-1.53 -5.6902,-3.72 -0.27,-0.6 -0.5098,-1.9499 -0.5098,-1.9499 -0.53,-3.25 -3.3402,-5.74 -6.7402,-5.74 -0.83,0 -1.6199,0.1499 -2.3499,0.4199 0,0 -1.7499,0.5901 -2.7099,0.5901 -2.64,0 -4.8801,-1.64 -5.7901,-3.96 -0.23,-0.58 -0.4699,-1.8801 -0.4699,-1.8801 -0.3,-1.56 -1.1301,-2.9299 -2.3001,-3.9199 -0.33,-0.28 -0.6499,-0.5699 -0.9299,-0.8899 -0.32,-0.36 -0.7102,-0.8202 -0.9002,-1.1602 -0.53,-0.91 -0.8298,-1.9698 -0.8298,-3.0998 0,-1.32 0.4099,-2.5501 1.1199,-3.5501 0.15,-0.22 0.4101,-0.51 0.6501,-0.76 0.27,-0.29 0.5699,-0.5601 0.8799,-0.8201 1.49,-1.25 2.4399,-3.1299 2.4399,-5.2299 0,-2.1 -0.9499,-3.98 -2.4499,-5.23 -0.33,-0.28 -0.65,-0.5699 -0.95,-0.8799 -0.12,-0.12 -0.23,-0.2401 -0.31,-0.3401 -0.86,-1.07 -1.3799,-2.4299 -1.3799,-3.9099 0,-1.12 0.2898,-2.1601 0.8098,-3.0701 0.21,-0.38 0.65,-0.89 1,-1.27 0.26,-0.28 0.5401,-0.54 0.8401,-0.79 1.6,-1.34 2.5799,-3.4 2.4299,-5.68 -0.22,-3.47 -3.08,-6.240099 -6.55,-6.380099 -3.9,-0.15 -7.1099,2.960099 -7.1099,6.830099 0,2.1 0.95,3.98 2.44,5.23 0.3,0.25 0.5901,0.52 0.8601,0.8 0.29,0.31 0.6298,0.71 0.8198,1 0.61,0.96 0.9702,2.1001 0.9702,3.3301 0,1.48 -0.5201,2.8399 -1.3901,3.9099 -0.08,0.1 -0.1901,0.2201 -0.3001,0.3401 -0.3,0.32 -0.6199,0.5999 -0.9499,0.8799 -1.49,1.25 -2.44,3.13 -2.44,5.23 0,2.11 0.96,3.99 2.46,5.24 0.3,0.25 0.6001,0.52 0.8701,0.8 0.19,0.21 0.3998,0.4301 0.5198,0.6001 0.77,1.04 1.2302,2.32 1.2302,3.71 0,1.29 -0.3901,2.4899 -1.0701,3.4899 -0.16,0.24 -0.4399,0.5599 -0.6999,0.8299 -0.27,0.29 -0.5701,0.5601 -0.8701,0.8201 -1.6,1.34 -2.58,3.3999 -2.43,5.6799 0.22,3.45 3.03,6.2101 6.48,6.3801 1.03,0.05 2.0199,-0.13 2.9099,-0.49 0.59,-0.24 1.2001,-0.42 1.8201,-0.49 0.25,-0.03 0.5,-0.05 0.7,-0.05 2.16,0 4.0601,1.1 5.1701,2.77 0.11,0.16 0.2198,0.3701 0.3198,0.6001 0.34,0.72 0.57,1.49 0.69,2.27 0.51,3.27 3.3302,5.7698 6.7402,5.7698 0.87,0 1.69,-0.16 2.45,-0.46 0.53,-0.21 1.0799,-0.3699 1.6399,-0.4499 0.35,-0.05 0.7099,-0.0901 0.9799,-0.0901 2.24,0 4.2001,1.1802 5.3001,2.9602 0.15,0.24 0.3099,0.61 0.4499,0.969997 0.22,0.5699 0.37,1.1599 0.47,1.7499 0.55,3.22 3.35,5.67 6.73,5.67 0.86,0 1.6802,-0.16 2.4402,-0.46 0.64,-0.24 1.2999,-0.41 1.9699,-0.51 0.24,-0.04 0.47,-0.06 0.66,-0.06 2.49,0 4.6301,1.46 5.6201,3.57 0.11,0.24 0.2298,0.61 0.3198,0.94 0.11,0.38 0.19,0.77 0.25,1.17 0.54,3.24 3.35,5.71 6.74,5.71 3.94,0 7.100095,-3.33 6.820095,-7.33 -0.2,-3.29 -2.800095,-5.97 -6.070095,-6.31 z m -54.7798,-79.619896 c 3.78,0 6.8399,-3.0601 6.8399,-6.8401 0,-3.78 -3.0599,-6.8401 -6.8399,-6.8401 -3.78,0 -6.8401,3.0601 -6.8401,6.8401 0,3.78 3.0601,6.8401 6.8401,6.8401 z"
     fill="#ff9800"
     id="path4-6"
     style="opacity:1" />
  <path
     d="m 4.4970546,84.034423 c 2.25,0 4.07983,-1.8502 4.07983,-4.1402 0,-2.29 -1.82983,-4.1399 -4.07983,-4.1399 -2.25,0 -4.08007998,1.8499 -4.08007998,4.1399 0,2.29 1.83007998,4.1402 4.08007998,4.1402 z m 0,-20.72 c 2.25,0 4.07983,-1.8501 4.07983,-4.1401 0,-2.29 -1.82983,-4.1399 -4.07983,-4.1399 -2.25,0 -4.08007998,1.8499 -4.08007998,4.1399 0,2.28 1.83007998,4.1401 4.08007998,4.1401 z m 0,-20.73 c 2.25,0 4.07983,-1.8501 4.07983,-4.1401 0,-2.29 -1.82983,-4.1399 -4.07983,-4.1399 -2.25,0 -4.08007998,1.8499 -4.08007998,4.1399 0,2.29 1.83007998,4.1401 4.08007998,4.1401 z M 58.556885,127.56432 c -0.16,0 -1.4199,0.09 -1.8799,0.09 -5.17,0 -9.6499,-2.86 -11.8899,-7.04 -0.17,-0.31 -0.55,-1.01 -0.55,-1.01 -0.65,-1.41 -2.05,-2.39 -3.69,-2.39 -0.13,0 -1.3901,0.13 -1.9001,0.13 -5,0 -9.3399,-2.67 -11.6599,-6.63 -0.28,-0.48 -0.8101,-1.53 -0.8101,-1.53 -0.66,-1.38 -2.0399,-2.33 -3.6499,-2.33 -0.11,0 -1.4202,0.11 -1.9602,0.11 -5.23,0 -9.75,-2.92 -11.9699804,-7.179897 -0.11,-0.21 -0.2098,-0.4302 -0.2998,-0.6502 -0.59,-1.54 -2.05003,-2.6399 -3.78003,-2.6399 -2.25,0 -4.08007998,1.8499 -4.08007998,4.139997 0,2.29 1.83007998,4.14 4.08007998,4.14 0.18,0 1.46993,-0.09 1.92993,-0.09 4.7599804,0 8.9300804,2.42 11.3100804,6.06 0.4,0.61 1.0498,1.93 1.0498,1.93 0.63,1.45 2.0602,2.47 3.7202,2.47 0.16,0 1.4399,-0.08 1.8999,-0.08 5.06,0 9.45,2.73 11.74,6.77 0.22,0.4 0.6899,1.27 0.6899,1.27 0.65,1.42 2.0502,2.41 3.6902,2.41 0.14,0 1.4099,-0.09 1.8899,-0.09 4.94,0 9.2601,2.6 11.6001,6.48 0.31,0.51 0.8699,1.62 0.8699,1.62 0.66,1.38 2.0399,2.35 3.6599,2.35 2.25,0 4.0801,-1.85 4.0801,-4.14 -0.02,-2.32 -1.8401,-4.17 -4.0901,-4.17 z"
     fill="#ff9800"
     id="path6-7"
     style="opacity:1" />
  <path
     d="m 58.556885,14.164224 c 3.78,0 6.8401,-3.0598 6.8401,-6.8398002 0,-3.78 -3.0601,-6.84009005 -6.8401,-6.84009005 -3.78,0 -6.8399,3.06009005 -6.8399,6.84009005 0,3.7800002 3.0599,6.8398002 6.8399,6.8398002 z"
     fill="#ff6633"
     id="path8-5"
     style="opacity:1" />
  <path
     d="m 58.556885,34.884223 c 3.78,0 6.8401,-3.059799 6.8401,-6.839799 0,-3.78 -3.0601,-6.8401 -6.8401,-6.8401 -3.78,0 -6.8399,3.0601 -6.8399,6.8401 0,3.78 3.0599,6.839799 6.8399,6.839799 z"
     fill="#ff6633"
     id="path10-3"
     style="opacity:1" />
  <path
     d="m 58.556885,55.604223 c 3.78,0 6.8401,-3.0599 6.8401,-6.8399 0,-3.78 -3.0601,-6.84 -6.8401,-6.84 -3.78,0 -6.8399,3.06 -6.8399,6.84 0,3.78 3.0599,6.8399 6.8399,6.8399 z"
     fill="#ff6633"
     id="path12-5"
     style="opacity:1" />
  <path
     d="m 58.556885,76.334423 c 3.78,0 6.8401,-3.0601 6.8401,-6.8401 0,-3.78 -3.0601,-6.8401 -6.8401,-6.8401 -3.78,0 -6.8399,3.0601 -6.8399,6.8401 0,3.78 3.0599,6.8401 6.8399,6.8401 z"
     fill="#ff6633"
     id="path14-6"
     style="opacity:1" />
  <path
     d="m 76.576885,24.524324 c 3.78,0 6.8401,-3.06 6.8401,-6.84 0,-3.78 -3.0601,-6.8399 -6.8401,-6.8399 -3.78,0 -6.8398,3.0599 -6.8398,6.8399 0,3.78 3.0598,6.84 6.8398,6.84 z"
     fill="#ff6633"
     id="path16-2"
     style="opacity:1" />
  <path
     d="m 76.576885,45.244323 c 3.78,0 6.8401,-3.0601 6.8401,-6.8401 0,-3.78 -3.0601,-6.839799 -6.8401,-6.839799 -3.78,0 -6.8398,3.059799 -6.8398,6.839799 0,3.78 3.0598,6.8401 6.8398,6.8401 z"
     fill="#ff6633"
     id="path18-9"
     style="opacity:1" />
  <path
     d="m 76.576885,65.974323 c 3.78,0 6.8401,-3.0601 6.8401,-6.8401 0,-3.78 -3.0601,-6.8398 -6.8401,-6.8398 -3.78,0 -6.8398,3.0598 -6.8398,6.8398 0,3.77 3.0598,6.8401 6.8398,6.8401 z"
     fill="#ff6633"
     id="path20-1"
     style="opacity:1" />
  <path
     d="m 76.576885,86.694323 c 3.78,0 6.8401,-3.0601 6.8401,-6.8401 0,-3.78 -3.0601,-6.8399 -6.8401,-6.8399 -3.78,0 -6.8398,3.0599 -6.8398,6.8399 0,3.78 3.0598,6.8401 6.8398,6.8401 z"
     fill="#ff6633"
     id="path22-2"
     style="opacity:1" />
  <path
     d="m 94.586885,34.884223 c 3.78,0 6.840095,-3.059799 6.840095,-6.839799 0,-3.78 -3.060095,-6.8401 -6.840095,-6.8401 -3.78,0 -6.8398,3.0601 -6.8398,6.8401 0.01,3.78 3.0698,6.839799 6.8398,6.839799 z"
     fill="#ff6633"
     id="path24-7"
     style="opacity:1" />
  <path
     d="m 94.586885,55.604223 c 3.78,0 6.840095,-3.0599 6.840095,-6.8399 0,-3.78 -3.060095,-6.84 -6.840095,-6.84 -3.78,0 -6.8398,3.06 -6.8398,6.84 0.01,3.78 3.0698,6.8399 6.8398,6.8399 z"
     fill="#ff6633"
     id="path26-0"
     style="opacity:1" />
  <path
     d="m 94.586885,76.334423 c 3.78,0 6.840095,-3.0601 6.840095,-6.8401 0,-3.78 -3.060095,-6.8401 -6.840095,-6.8401 -3.78,0 -6.8398,3.0601 -6.8398,6.8401 0.01,3.78 3.0698,6.8401 6.8398,6.8401 z"
     fill="#ff6633"
     id="path28-9"
     style="opacity:1" />
  <path
     d="m 94.586885,97.054423 c 3.78,0 6.840095,-3.0601 6.840095,-6.8401 0,-3.78 -3.060095,-6.8401 -6.840095,-6.8401 -3.78,0 -6.8398,3.0601 -6.8398,6.8401 0.01,3.78 3.0698,6.8401 6.8398,6.8401 z"
     fill="#ff6633"
     id="path30-3"
     style="opacity:1" />
  <path
     d="m 112.60698,45.244323 c 3.78,0 6.84,-3.0601 6.84,-6.8401 0,-3.78 -3.06,-6.839799 -6.84,-6.839799 -3.78,0 -6.84,3.059799 -6.84,6.839799 0.01,3.78 3.07,6.8401 6.84,6.8401 z"
     fill="#ff6633"
     id="path32-6"
     style="opacity:1" />
  <path
     d="m 112.60698,65.964323 c 3.78,0 6.84,-3.0601 6.84,-6.8401 0,-3.78 -3.06,-6.8398 -6.84,-6.8398 -3.78,0 -6.84,3.0598 -6.84,6.8398 0.01,3.78 3.07,6.8401 6.84,6.8401 z"
     fill="#ff6633"
     id="path34-0"
     style="opacity:1" />
  <path
     d="m 112.60698,86.694323 c 3.78,0 6.84,-3.0601 6.84,-6.8401 0,-3.78 -3.06,-6.8399 -6.84,-6.8399 -3.78,0 -6.84,3.0599 -6.84,6.8399 0.01,3.78 3.07,6.8401 6.84,6.8401 z"
     fill="#ff6633"
     id="path36-6"
     style="opacity:1" />
  <path
     d="m 112.60698,107.41432 c 3.78,0 6.84,-3.06 6.84,-6.84 0,-3.779897 -3.06,-6.839997 -6.84,-6.839997 -3.78,0 -6.84,3.0601 -6.84,6.839997 0.01,3.78 3.07,6.84 6.84,6.84 z"
     fill="#ff6633"
     id="path38-2"
     style="opacity:1" />
</svg>
