<svg width="106" height="51" viewBox="0 0 106 51" fill="none" xmlns="http://www.w3.org/2000/svg">
<path fill-rule="evenodd" clip-rule="evenodd" d="M3.57483 19.7376C4.23092 19.7376 4.87071 19.546 5.3638 19.2363C5.85689 18.9266 6.25625 18.5517 6.25625 18.5517L9.28405 15.6829C9.28405 15.6829 18.3878 6.8684 18.6038 6.64834C18.6038 6.64834 19.7652 5.47471 19.7652 3.91802C19.7652 1.85195 18.0944 0.181152 16.0283 0.181152C14.6917 0.181152 13.9011 0.85762 13.0576 1.64819L1.34167 13.5597C0.176192 14.6763 0.119141 15.8296 0.119141 16.286C0.119141 18.1931 1.6636 19.7376 3.57483 19.7376ZM56.2859 16.665C56.2533 16.7139 56.2207 16.7588 56.184 16.8077L56.1776 16.8167C56.1601 16.8413 56.1451 16.8624 56.1269 16.8769L43.6286 32.7698H53.7675C55.3893 32.7698 56.7015 34.082 56.7015 35.7039C56.7015 37.3258 55.3853 38.638 53.7675 38.638H37.9071H37.899H37.8134H37.5771C37.4059 38.638 37.2388 38.6217 37.0758 38.5932C36.5624 38.5239 36.1712 38.3568 35.7433 38.0145C35.0994 37.501 34.7326 36.7716 34.6593 36.0096V35.9973C34.6511 35.9117 34.6471 35.8221 34.6471 35.7365V35.708C34.6471 35.6632 34.6511 35.6183 34.6552 35.5735C34.6552 35.5368 34.6552 35.5042 34.6593 35.4676C34.7123 34.7992 34.9934 34.1961 35.4213 33.7275L47.8056 17.9731H37.9397C36.3179 17.9731 35.0057 16.6569 35.0057 15.0391C35.0057 13.4172 36.3219 12.105 37.9397 12.105H53.8408C53.8571 12.105 53.8734 12.106 53.8897 12.107C53.906 12.108 53.9223 12.1091 53.9386 12.1091C53.9957 12.1091 54.0568 12.1131 54.1138 12.1172C54.1342 12.1193 54.1556 12.1223 54.177 12.1254C54.1984 12.1284 54.2198 12.1315 54.2402 12.1335C54.289 12.1417 54.3419 12.1498 54.3948 12.1579L54.395 12.158C54.4398 12.1661 54.4847 12.1783 54.5295 12.1906L54.5295 12.1906C54.5539 12.1967 54.5774 12.2028 54.6008 12.2089C54.6242 12.215 54.6477 12.2211 54.6721 12.2272C54.717 12.2395 54.7659 12.2558 54.8107 12.2721C54.8331 12.2802 54.8545 12.2884 54.8759 12.2965L54.9088 12.309L54.9411 12.321L54.9733 12.3359L55.0104 12.3536C55.0338 12.3648 55.0572 12.376 55.0796 12.3862C55.1 12.3964 55.1194 12.4055 55.1387 12.4147C55.1581 12.4239 55.1774 12.433 55.1978 12.4432C55.2334 12.461 55.2668 12.481 55.3012 12.5015L55.3013 12.5015L55.3015 12.5016C55.3143 12.5093 55.3272 12.517 55.3404 12.5247C55.3496 12.5308 55.3588 12.5365 55.3679 12.5418L55.3883 12.5535C55.4084 12.565 55.4281 12.5762 55.4464 12.5899C55.4993 12.6266 55.5482 12.6632 55.597 12.6999L55.5972 12.7C55.6094 12.7101 55.6216 12.7183 55.6339 12.7264C55.6461 12.7346 55.6583 12.7427 55.6705 12.7529L55.6828 12.7652C55.7192 12.7925 55.7534 12.8244 55.787 12.8557C55.7985 12.8664 55.8099 12.877 55.8213 12.8874C55.8498 12.9119 55.8784 12.9363 55.9028 12.9608C55.936 12.994 55.9626 13.0239 55.9915 13.0565L55.9917 13.0567L55.9918 13.0568L56.0006 13.0667C56.1555 13.2338 56.2859 13.4172 56.3959 13.6128C56.3983 13.6164 56.4008 13.6197 56.4031 13.6229C56.4086 13.6302 56.4134 13.6368 56.4163 13.6454C56.4259 13.6622 56.4341 13.6805 56.4426 13.6994L56.4426 13.6995L56.448 13.7115C56.4522 13.7206 56.4565 13.7299 56.4611 13.7391C56.5956 14.0121 56.6893 14.3055 56.7341 14.6153C56.7362 14.6336 56.7392 14.6529 56.7423 14.6723C56.7453 14.6916 56.7484 14.711 56.7504 14.7294C56.7524 14.7512 56.7534 14.7721 56.7544 14.7924V14.7925C56.7555 14.8139 56.7565 14.8348 56.7586 14.8557C56.7627 14.9127 56.7667 14.9698 56.7667 15.0268V15.0472C56.7667 15.0635 56.7657 15.0798 56.7647 15.0961C56.7637 15.1124 56.7627 15.1287 56.7627 15.145C56.7627 15.2021 56.7586 15.2632 56.7545 15.3202C56.7525 15.3406 56.7494 15.362 56.7464 15.3834C56.7433 15.4048 56.7402 15.4262 56.7382 15.4466L56.7138 15.6055C56.7076 15.6279 56.7026 15.6503 56.6975 15.6727C56.6924 15.6951 56.6873 15.7176 56.6812 15.74C56.669 15.7847 56.6568 15.8334 56.6446 15.8821L56.6445 15.8826C56.6323 15.9315 56.616 15.9763 56.5997 16.0212L56.5508 16.1556C56.5391 16.1905 56.5234 16.2232 56.5079 16.2554L56.5079 16.2555C56.5017 16.2685 56.4955 16.2813 56.4896 16.2942C56.4733 16.3349 56.4529 16.3757 56.4326 16.4164C56.4081 16.4613 56.3796 16.5102 56.3511 16.555C56.3307 16.5917 56.3103 16.6284 56.2859 16.665ZM77.0529 12.7773C77.5867 12.3453 78.251 12.1171 78.9967 12.1171C79.828 12.1171 80.5697 12.4146 81.1484 12.9729C81.7433 13.5434 82.0571 14.3095 82.0571 15.1735V29.1674C82.0571 29.9335 81.9715 30.6711 81.8126 31.3761C81.5722 32.4274 81.1606 33.4095 80.5656 34.3061C79.8525 35.3941 78.9193 36.3151 77.7986 37.0527C77.3952 37.3216 76.9632 37.5662 76.5068 37.7862C74.832 38.5931 72.9004 39.0006 70.765 39.0006C68.6867 39.0006 66.7999 38.589 65.1617 37.7781C63.4828 36.9508 62.1421 35.7813 61.1885 34.2938C60.2309 32.7942 59.7419 31.0704 59.7419 29.1674V15.1775C59.7419 14.334 60.0312 13.5842 60.5813 13.0136C61.1478 12.4309 61.9017 12.1212 62.7656 12.1212C63.5928 12.1212 64.3386 12.4146 64.9172 12.9729C65.5122 13.5434 65.826 14.3095 65.826 15.1735V29.1592C65.826 29.9416 66.0134 30.6059 66.4006 31.1886C66.804 31.7958 67.3501 32.2644 68.0795 32.6149C68.8375 32.9857 69.7422 33.1691 70.765 33.1691C71.8368 33.1691 72.7863 32.9776 73.5931 32.6068C74.3593 32.2481 74.9338 31.7795 75.3536 31.1723C75.7529 30.5936 75.9445 29.9335 75.9445 29.1592V15.1694C75.9445 14.6804 76.0463 14.228 76.2379 13.8205C76.3805 13.5149 76.572 13.2337 76.8206 12.9892C76.8858 12.924 76.951 12.8629 77.0203 12.8058C77.0232 12.8029 77.0255 12.8001 77.0277 12.7974L77.0278 12.7973C77.0318 12.7924 77.0354 12.7881 77.0407 12.7854L77.0423 12.784C77.0438 12.7828 77.0453 12.7821 77.0468 12.7814L77.0498 12.7798C77.0508 12.7791 77.0519 12.7783 77.0529 12.7773ZM105.88 21.3717C105.88 19.6072 105.489 18.0057 104.719 16.616C103.936 15.2101 102.832 14.0935 101.438 13.2989C100.057 12.5165 98.4677 12.1171 96.7113 12.1171H88.5896C87.7624 12.1171 87.0207 12.4146 86.442 12.9688C85.8471 13.5434 85.5333 14.3055 85.5333 15.1694V35.4512C85.5333 36.2906 85.843 37.0405 86.4217 37.6191C87.0044 38.2019 87.7542 38.5116 88.5896 38.5116C89.4576 38.5116 90.2237 38.1978 90.7902 37.6028C91.3525 37.0242 91.6459 36.2784 91.6459 35.4512V30.451H96.7072C98.4554 30.451 100.041 30.0639 101.414 29.3059C102.812 28.5357 103.916 27.4477 104.703 26.0662C105.477 24.7051 105.872 23.1444 105.872 21.4287V21.4124C105.876 21.4002 105.88 21.388 105.88 21.3717ZM91.6459 17.9934H96.7072C97.3552 17.9934 97.8972 18.132 98.3617 18.4091C98.8344 18.6903 99.1971 19.0693 99.4661 19.5664C99.7432 20.0758 99.8817 20.6667 99.8817 21.3758C99.8817 22.0156 99.7473 22.5575 99.4783 23.0303C99.2134 23.4989 98.8589 23.8534 98.3902 24.1183C97.9175 24.3873 97.3674 24.5217 96.7072 24.5217H91.6459V17.9934ZM1.85912 38.2018C1.82244 38.1773 1.78576 38.1488 1.74909 38.1203C1.68389 38.0755 1.62276 38.0306 1.57386 37.9858C1.54365 37.9611 1.5153 37.9345 1.4863 37.9074L1.48625 37.9073C1.47223 37.8942 1.45806 37.8809 1.44345 37.8676C1.42104 37.8452 1.39658 37.8238 1.37213 37.8024C1.34768 37.781 1.32324 37.7596 1.30083 37.7372C1.26877 37.7052 1.23971 37.6716 1.21091 37.6384L1.21084 37.6383L1.21081 37.6383C1.19205 37.6166 1.1734 37.5951 1.15412 37.5742C1.11745 37.5375 1.08485 37.5009 1.05224 37.4642C0.995193 37.399 0.946292 37.3297 0.897391 37.2604C0.889942 37.2505 0.882493 37.2409 0.87516 37.2315C0.858421 37.2101 0.842282 37.1894 0.828114 37.1667C0.795511 37.1205 0.766531 37.0707 0.737551 37.0209C0.723063 36.996 0.708576 36.9711 0.693635 36.9466C0.67326 36.914 0.652884 36.8814 0.636584 36.8488C0.595833 36.7714 0.559157 36.6981 0.526556 36.6206C0.506181 36.584 0.48988 36.5473 0.47358 36.5106C0.440979 36.4373 0.412453 36.3598 0.388003 36.2824C0.381898 36.2621 0.374777 36.2417 0.367655 36.2214L0.367631 36.2213C0.360498 36.2009 0.353365 36.1805 0.347252 36.1602C0.326602 36.1012 0.312358 36.04 0.298338 35.9798C0.292991 35.9569 0.287676 35.9341 0.28205 35.9116C0.277974 35.8932 0.272879 35.8739 0.267784 35.8545L0.267768 35.8544L0.267753 35.8544C0.262671 35.8351 0.25759 35.8158 0.253524 35.7975C0.233149 35.6915 0.216848 35.5896 0.204623 35.4837L0.202851 35.475C0.199445 35.4585 0.196473 35.444 0.196473 35.4266C0.172022 35.1699 0.172022 34.9132 0.196473 34.6564C0.196473 34.6503 0.197491 34.6442 0.19851 34.6381C0.199529 34.632 0.200548 34.6259 0.200548 34.6198C0.212773 34.5097 0.229074 34.3997 0.249449 34.2897C0.253524 34.2734 0.257599 34.2581 0.261674 34.2428L0.26172 34.2426C0.26578 34.2274 0.26984 34.2122 0.2739 34.196C0.294275 34.1063 0.314651 34.0166 0.343177 33.927C0.351327 33.8944 0.363552 33.8618 0.375777 33.8292C0.404303 33.7436 0.432829 33.6621 0.469505 33.5765C0.475617 33.5623 0.48173 33.549 0.487843 33.5358L0.487912 33.5356C0.494001 33.5224 0.500091 33.5092 0.506181 33.495C0.542856 33.4095 0.583608 33.3239 0.628434 33.2383C0.634302 33.2236 0.642283 33.2111 0.650855 33.1976C0.654188 33.1923 0.657611 33.187 0.661035 33.1813C0.709936 33.0916 0.762912 33.006 0.819964 32.9204C0.822248 32.9159 0.825812 32.9113 0.829939 32.906L0.829962 32.906L0.82998 32.906C0.833206 32.9018 0.836772 32.8973 0.840339 32.8919C0.970743 32.7004 1.11745 32.5211 1.28453 32.354L13.897 19.7416H5.67341C5.75084 19.6845 13.2246 12.5938 13.6606 12.1293H23.0537C23.1882 12.1293 23.3227 12.1374 23.4572 12.1496C23.4746 12.1496 23.489 12.1526 23.5055 12.156L23.5142 12.1578C23.6202 12.17 23.7261 12.1863 23.828 12.2067C23.8508 12.2112 23.8723 12.2171 23.8933 12.2228L23.8933 12.2228C23.9098 12.2273 23.926 12.2316 23.9421 12.2352C24.0277 12.2556 24.1092 12.276 24.1907 12.3004C24.2111 12.3065 24.2304 12.3137 24.2498 12.3208C24.2691 12.3279 24.2885 12.3351 24.3089 12.3412C24.3347 12.3507 24.3605 12.3597 24.3863 12.3688C24.4379 12.3869 24.4895 12.405 24.5411 12.4267C24.5656 12.4349 24.59 12.4467 24.6145 12.4584L24.6145 12.4584C24.6267 12.4643 24.6389 12.4702 24.6512 12.4756C24.6736 12.4863 24.696 12.4965 24.7183 12.5067C24.773 12.5319 24.8272 12.5567 24.8794 12.5857C24.9119 12.602 24.9445 12.6223 24.9771 12.6427L24.9772 12.6427C25.0016 12.6576 25.026 12.6721 25.0504 12.6865L25.0506 12.6867C25.0994 12.7156 25.1483 12.7446 25.1972 12.7772C25.2071 12.7846 25.2167 12.7921 25.2261 12.7994L25.2262 12.7994L25.2262 12.7995L25.2262 12.7995C25.2476 12.8162 25.2683 12.8323 25.291 12.8465C25.3643 12.8954 25.4336 12.9443 25.4988 13.0013C25.5171 13.0176 25.5345 13.0339 25.5518 13.0502C25.5691 13.0665 25.5864 13.0828 25.6047 13.0991C25.6618 13.148 25.7189 13.1969 25.7718 13.2499C25.7942 13.2744 25.8156 13.2988 25.837 13.3233L25.8372 13.3235C25.8585 13.3479 25.8799 13.3722 25.9022 13.3966C25.9155 13.4112 25.9288 13.4254 25.9419 13.4394C25.9691 13.4684 25.9957 13.4968 26.0204 13.527C26.0549 13.5701 26.0873 13.6152 26.1192 13.6595C26.1325 13.6781 26.1457 13.6965 26.159 13.7145C26.1875 13.7512 26.216 13.7878 26.2405 13.8245C26.2682 13.8649 26.2929 13.9069 26.3173 13.9485L26.3173 13.9485C26.3323 13.974 26.3472 13.9994 26.3627 14.0242C26.3729 14.0446 26.3851 14.0649 26.3974 14.0853L26.3974 14.0853C26.4096 14.1057 26.4218 14.1261 26.432 14.1464C26.4505 14.1811 26.4677 14.2185 26.4851 14.2562L26.4851 14.2563L26.4851 14.2563C26.4983 14.285 26.5117 14.3139 26.5257 14.342C26.5339 14.36 26.5427 14.378 26.5517 14.3963C26.5651 14.4235 26.5787 14.4513 26.5909 14.4806C26.6032 14.5132 26.6144 14.5448 26.6256 14.5764C26.6368 14.608 26.648 14.6395 26.6602 14.6721C26.6806 14.7251 26.701 14.7781 26.7173 14.8351C26.7304 14.8745 26.7401 14.9155 26.7497 14.9561C26.7551 14.9785 26.7604 15.0008 26.7662 15.0226C26.7723 15.0511 26.7794 15.0796 26.7865 15.1081C26.7937 15.1367 26.8008 15.1652 26.8069 15.1937L26.8115 15.2212C26.8221 15.2846 26.8324 15.3456 26.8395 15.4097C26.8415 15.4362 26.8456 15.4617 26.8497 15.4871L26.8497 15.4872C26.8538 15.5127 26.8578 15.5381 26.8599 15.5646C26.8843 15.8132 26.8843 16.0658 26.8599 16.3144C26.8572 16.3524 26.8508 16.3904 26.8445 16.4284L26.8445 16.4285C26.8413 16.4475 26.8382 16.4665 26.8354 16.4855C26.8273 16.5548 26.8191 16.62 26.8069 16.6852C26.7967 16.7394 26.7838 16.7908 26.7703 16.8441L26.7703 16.8442L26.7621 16.8768C26.7539 16.9053 26.7468 16.9338 26.7397 16.9623C26.7325 16.9909 26.7254 17.0194 26.7173 17.0479C26.7071 17.0785 26.6959 17.109 26.6847 17.1396C26.6734 17.1702 26.6622 17.2007 26.6521 17.2313C26.6493 17.2389 26.6467 17.2465 26.6441 17.254C26.6411 17.2624 26.6383 17.2708 26.6354 17.2791C26.6218 17.3187 26.6084 17.3575 26.5909 17.3984C26.5787 17.4269 26.5655 17.4544 26.5522 17.4819C26.539 17.5094 26.5257 17.5369 26.5135 17.5655C26.489 17.6225 26.4605 17.6796 26.432 17.7366C26.4035 17.7896 26.3749 17.8385 26.3423 17.8915L26.3274 17.916L26.3155 17.9356L26.3155 17.9357C26.2916 17.9753 26.2671 18.016 26.2405 18.0545C26.1997 18.1115 26.159 18.1645 26.1182 18.2175C26.0999 18.2399 26.0836 18.2623 26.0673 18.2847C26.051 18.3071 26.0347 18.3295 26.0163 18.3519L26.0163 18.352C25.9348 18.4457 25.8533 18.5394 25.7637 18.6291L13.1512 31.2415H21.3952C21.2892 31.323 13.9133 38.4218 13.5058 38.8456H3.97002C3.84369 38.8456 3.72144 38.8375 3.59511 38.8253C3.54621 38.8212 3.49323 38.813 3.44433 38.8049C3.38019 38.7978 3.31917 38.7875 3.25581 38.7769L3.22835 38.7723C3.19982 38.7662 3.1713 38.759 3.14277 38.7519C3.11425 38.7448 3.08572 38.7377 3.0572 38.7315C3.03701 38.7265 3.01682 38.7218 2.99675 38.7172C2.95201 38.7069 2.90787 38.6967 2.86567 38.6826C2.81269 38.6663 2.75971 38.646 2.70674 38.6256C2.65559 38.6096 2.60695 38.5911 2.55689 38.5721L2.51521 38.5563C2.48592 38.5441 2.4581 38.5305 2.43087 38.5171C2.41262 38.5081 2.39464 38.4993 2.37665 38.4911L2.33325 38.4709L2.33316 38.4708L2.33313 38.4708C2.27975 38.4461 2.22836 38.4222 2.17697 38.3933C2.14749 38.3786 2.12015 38.3617 2.09185 38.3442L2.09177 38.3442C2.08097 38.3375 2.07004 38.3308 2.0588 38.324C2.03399 38.3085 2.0086 38.2936 1.98307 38.2786L1.983 38.2786L1.98296 38.2786C1.9414 38.2542 1.89948 38.2295 1.85912 38.2018ZM21.7376 31.7632C22.2307 31.4535 22.8705 31.262 23.5266 31.262C25.4378 31.262 26.9823 32.8105 26.9823 34.7136C26.9823 35.17 26.9252 36.3233 25.7597 37.4398L14.0438 49.3514C13.2003 50.1419 12.4097 50.8184 11.0731 50.8184C9.00697 50.8184 7.33618 49.1476 7.33618 47.0815C7.33618 45.5248 8.49759 44.3512 8.49759 44.3512C8.71357 44.1312 17.8173 35.3167 17.8173 35.3167L20.8452 32.4478C20.8452 32.4478 21.2445 32.0729 21.7376 31.7632Z" fill="#2F2F3C"/>
</svg>
