<svg width="859" height="137" viewBox="0 0 859 137" fill="none" xmlns="http://www.w3.org/2000/svg">
<path d="M76.16 115.37C75.51 115.37 74.9 115.49 74.33 115.7C73.85 115.88 73.34 116 72.83 116.03C72.73 116.04 72.63 116.04 72.55 116.04C68.84 116.04 65.63 113.96 64 110.9L63.97 110.85C63.75 110.43 63.61 109.98 63.52 109.52C63.06 106.95 60.84 105 58.14 105C57.51 105 56.9099 105.12 56.3399 105.32C55.8399 105.5 55.32 105.63 54.79 105.67C54.69 105.68 54.59 105.68 54.51 105.68C50.71 105.68 47.48 103.58 45.89 100.41V100.4C45.7 100.02 45.58 99.62 45.51 99.21C45.07 96.62 42.84 94.6399 40.13 94.6399C39.5 94.6399 38.91 94.75 38.35 94.95C37.91 95.11 37.44 95.21 36.97 95.24C36.81 95.25 36.66 95.26 36.53 95.26C32.49 95.26 29.02 92.3501 27.56 88.8501L27.36 88.3C27.14 87.51 26.75 86.8 26.24 86.2C25.84 85.73 25.45 85.25 25.12 84.73C24.81 84.25 24.47 83.7001 24.31 83.3401C23.74 82.0701 23.27 80.6899 23.27 79.4099C23.27 77.8599 23.64 76.4001 24.28 75.1101C24.32 75.0301 24.37 74.9301 24.43 74.8301C24.79 74.1701 25.28 73.5901 25.83 73.0801C26.97 72.0301 27.66 70.49 27.58 68.8C27.45 65.97 25.14 63.6801 22.32 63.5701C19.19 63.4501 16.61 65.95 16.61 69.05C16.61 70.64 17.29 72.0701 18.37 73.0701C18.98 73.6301 19.52 74.28 19.92 75C19.99 75.13 20.06 75.2599 20.11 75.3699C20.68 76.5999 20.99 77.9599 20.99 79.3999C20.99 80.7999 20.89 83.4201 18.87 85.3201C17.53 86.5901 16.44 88.22 16.62 90.26C16.84 92.6 18.56 94.5501 20.85 95.1001C21.97 95.3701 23.02 95.2499 23.96 94.8999C24.45 94.7199 24.96 94.6001 25.47 94.5801C25.57 94.5801 25.66 94.5701 25.73 94.5701C29.4 94.5701 32.63 96.53 34.28 99.53V99.54C34.48 99.91 34.61 100.32 34.66 100.74C34.97 103.48 37.28 105.61 40.1 105.61C40.75 105.61 41.38 105.48 41.95 105.27C42.41 105.1 42.9 104.98 43.39 104.95C43.52 104.94 43.65 104.94 43.74 104.94C47.26 104.94 50.35 106.84 52.05 109.66C52.06 109.68 52.0699 109.7 52.0899 109.72C52.3999 110.26 52.63 110.84 52.73 111.45C53.19 114.02 55.41 115.97 58.11 115.97C58.78 115.97 59.41 115.84 60 115.61C60.54 115.4 61.13 115.3 61.71 115.29C61.74 115.29 61.76 115.29 61.79 115.29C65.27 115.29 68.27 117.08 69.97 119.83C69.98 119.85 70 119.88 70.01 119.9C70.37 120.52 70.63 121.19 70.77 121.9C71.28 124.5 73.6 126.44 76.37 126.32C79.2 126.2 81.5 123.89 81.61 121.06C81.77 117.95 79.26 115.37 76.16 115.37ZM22.1 53.8201C25.13 53.8201 27.59 51.3601 27.59 48.3301C27.59 45.3001 25.13 42.8401 22.1 42.8401C19.07 42.8401 16.61 45.3001 16.61 48.3301C16.61 51.3601 19.07 53.8201 22.1 53.8201ZM22.1 33.0901C25.13 33.0901 27.59 30.6301 27.59 27.6001C27.59 24.5701 25.13 22.1101 22.1 22.1101C19.07 22.1101 16.61 24.5701 16.61 27.6001C16.61 30.6301 19.07 33.0901 22.1 33.0901Z" fill="#FF9800"/>
<path d="M94.9 103.7C93.83 103.59 92.81 103.73 91.88 104.06C91.43 104.22 90.97 104.37 90.5 104.48C90.04 104.59 89.49 104.69 89.11 104.69C86.69 104.69 84.59 103.31 83.57 101.29C83.42 100.99 83.26 100.47 83.13 100.04C83.03 99.7 82.95 99.35 82.89 99C82.34 95.77 79.54 93.3101 76.16 93.3101C75.23 93.3101 74.35 93.5001 73.54 93.8401C73.4 93.9001 73.27 93.96 73.13 94.01C72.49 94.24 71.8 94.3699 71.08 94.3699C68.54 94.3699 66.35 92.8399 65.39 90.6499C65.12 90.0499 64.88 88.7 64.88 88.7C64.35 85.45 61.54 82.96 58.14 82.96C57.31 82.96 56.52 83.1099 55.79 83.3799C55.79 83.3799 54.04 83.97 53.08 83.97C50.44 83.97 48.2 82.33 47.29 80.01C47.06 79.43 46.82 78.1299 46.82 78.1299C46.52 76.5699 45.69 75.2 44.52 74.21C44.19 73.93 43.87 73.6401 43.59 73.3201C43.27 72.9601 42.88 72.4999 42.69 72.1599C42.16 71.2499 41.86 70.1901 41.86 69.0601C41.86 67.7401 42.27 66.51 42.98 65.51C43.13 65.29 43.39 65 43.63 64.75C43.9 64.46 44.2 64.1899 44.51 63.9299C46 62.6799 46.95 60.8 46.95 58.7C46.95 56.6 46 54.72 44.5 53.47C44.17 53.19 43.85 52.9001 43.55 52.5901C43.43 52.4701 43.32 52.35 43.24 52.25C42.38 51.18 41.86 49.8201 41.86 48.3401C41.86 47.2201 42.15 46.18 42.67 45.27C42.88 44.89 43.32 44.38 43.67 44C43.93 43.72 44.21 43.46 44.51 43.21C46.11 41.87 47.09 39.81 46.94 37.53C46.72 34.06 43.86 31.2899 40.39 31.1499C36.49 30.9999 33.28 34.11 33.28 37.98C33.28 40.08 34.23 41.96 35.72 43.21C36.02 43.46 36.31 43.73 36.58 44.01C36.87 44.32 37.21 44.72 37.4 45.01C38.01 45.97 38.37 47.1101 38.37 48.3401C38.37 49.8201 37.85 51.18 36.98 52.25C36.9 52.35 36.79 52.4701 36.68 52.5901C36.38 52.9101 36.06 53.19 35.73 53.47C34.24 54.72 33.29 56.6 33.29 58.7C33.29 60.81 34.25 62.6899 35.75 63.9399C36.05 64.1899 36.35 64.46 36.62 64.74C36.81 64.95 37.02 65.1701 37.14 65.3401C37.91 66.3801 38.37 67.66 38.37 69.05C38.37 70.34 37.98 71.54 37.3 72.54C37.14 72.78 36.86 73.0999 36.6 73.3699C36.33 73.6599 36.03 73.9299 35.73 74.1899C34.13 75.5299 33.15 77.5899 33.3 79.8699C33.52 83.3199 36.33 86.08 39.78 86.25C40.81 86.3 41.8 86.12 42.69 85.76C43.28 85.52 43.89 85.34 44.51 85.27C44.76 85.24 45.0101 85.22 45.2101 85.22C47.3701 85.22 49.27 86.32 50.38 87.99C50.49 88.15 50.6 88.3601 50.7 88.5901C51.04 89.3101 51.27 90.0801 51.39 90.8601C51.9 94.1301 54.72 96.6299 58.13 96.6299C59 96.6299 59.82 96.4699 60.58 96.1699C61.11 95.9599 61.66 95.8 62.22 95.72C62.57 95.67 62.93 95.6299 63.2 95.6299C65.44 95.6299 67.4 96.8101 68.5 98.5901C68.65 98.8301 68.81 99.2001 68.95 99.5601C69.17 100.13 69.32 100.72 69.42 101.31C69.97 104.53 72.77 106.98 76.15 106.98C77.01 106.98 77.83 106.82 78.59 106.52C79.23 106.28 79.89 106.11 80.56 106.01C80.8 105.97 81.03 105.95 81.22 105.95C83.71 105.95 85.85 107.41 86.84 109.52C86.95 109.76 87.07 110.13 87.16 110.46C87.27 110.84 87.35 111.23 87.41 111.63C87.95 114.87 90.76 117.34 94.15 117.34C98.09 117.34 101.25 114.01 100.97 110.01C100.77 106.72 98.18 104.04 94.9 103.7ZM40.12 24.0801C43.9 24.0801 46.9601 21.02 46.9601 17.24C46.9601 13.46 43.9 10.3999 40.12 10.3999C36.34 10.3999 33.28 13.46 33.28 17.24C33.28 21.02 36.35 24.0801 40.12 24.0801Z" fill="#FF9800"/>
<path d="M4.07999 83.55C6.32999 83.55 8.16 81.6999 8.16 79.4099C8.16 77.1199 6.32999 75.27 4.07999 75.27C1.82999 75.27 0 77.1199 0 79.4099C0.01 81.6999 1.82999 83.55 4.07999 83.55ZM4.07999 62.8301C6.32999 62.8301 8.16 60.9799 8.16 58.6899C8.16 56.3999 6.32999 54.55 4.07999 54.55C1.82999 54.55 0 56.3999 0 58.6899C0.01 60.9699 1.82999 62.8301 4.07999 62.8301ZM4.07999 42.1001C6.32999 42.1001 8.16 40.25 8.16 37.96C8.16 35.67 6.32999 33.8201 4.07999 33.8201C1.82999 33.8201 0 35.67 0 37.96C0.01 40.25 1.82999 42.1001 4.07999 42.1001ZM58.14 127.08C57.98 127.08 56.72 127.17 56.26 127.17C51.09 127.17 46.61 124.31 44.37 120.13C44.2 119.82 43.81 119.12 43.81 119.12C43.16 117.71 41.76 116.73 40.12 116.73C39.99 116.73 38.73 116.86 38.22 116.86C33.22 116.86 28.88 114.19 26.56 110.23C26.28 109.75 25.75 108.7 25.75 108.7C25.09 107.32 23.71 106.37 22.1 106.37C21.99 106.37 20.68 106.48 20.14 106.48C14.91 106.48 10.39 103.56 8.16998 99.3C8.05998 99.09 7.96 98.8699 7.87 98.6499C7.28 97.1099 5.82 96.01 4.09 96.01C1.84 96.01 0.00997925 97.8599 0.00997925 100.15C0.00997925 102.44 1.84 104.29 4.09 104.29C4.27 104.29 5.55999 104.2 6.01999 104.2C10.78 104.2 14.95 106.62 17.33 110.26C17.73 110.87 18.38 112.19 18.38 112.19C19.01 113.64 20.44 114.66 22.1 114.66C22.26 114.66 23.54 114.58 24 114.58C29.06 114.58 33.45 117.31 35.74 121.35C35.96 121.75 36.43 122.62 36.43 122.62C37.08 124.04 38.48 125.03 40.12 125.03C40.26 125.03 41.53 124.94 42.01 124.94C46.95 124.94 51.27 127.54 53.61 131.42C53.92 131.93 54.48 133.04 54.48 133.04C55.14 134.42 56.52 135.39 58.14 135.39C60.39 135.39 62.22 133.54 62.22 131.25C62.22 128.93 60.39 127.08 58.14 127.08Z" fill="#FF9800"/>
<path d="M58.1401 13.6799C61.9201 13.6799 64.98 10.6201 64.98 6.84009C64.98 3.06009 61.9201 0 58.1401 0C54.3601 0 51.3 3.06009 51.3 6.84009C51.3 10.6201 54.3601 13.6799 58.1401 13.6799Z" fill="#FF6633"/>
<path d="M58.1401 34.3999C61.9201 34.3999 64.98 31.3401 64.98 27.5601C64.98 23.7801 61.9201 20.72 58.1401 20.72C54.3601 20.72 51.3 23.7801 51.3 27.5601C51.3 31.3401 54.3601 34.3999 58.1401 34.3999Z" fill="#FF6633"/>
<path d="M58.1401 55.1199C61.9201 55.1199 64.98 52.06 64.98 48.28C64.98 44.5 61.9201 41.4399 58.1401 41.4399C54.3601 41.4399 51.3 44.5 51.3 48.28C51.3 52.06 54.3601 55.1199 58.1401 55.1199Z" fill="#FF6633"/>
<path d="M58.1401 75.8501C61.9201 75.8501 64.98 72.79 64.98 69.01C64.98 65.23 61.9201 62.1699 58.1401 62.1699C54.3601 62.1699 51.3 65.23 51.3 69.01C51.3 72.79 54.3601 75.8501 58.1401 75.8501Z" fill="#FF6633"/>
<path d="M76.16 24.04C79.94 24.04 83.0001 20.98 83.0001 17.2C83.0001 13.42 79.94 10.3601 76.16 10.3601C72.38 10.3601 69.3201 13.42 69.3201 17.2C69.3201 20.98 72.38 24.04 76.16 24.04Z" fill="#FF6633"/>
<path d="M76.16 44.76C79.94 44.76 83.0001 41.6999 83.0001 37.9199C83.0001 34.1399 79.94 31.0801 76.16 31.0801C72.38 31.0801 69.3201 34.1399 69.3201 37.9199C69.3201 41.6999 72.38 44.76 76.16 44.76Z" fill="#FF6633"/>
<path d="M76.16 65.49C79.94 65.49 83.0001 62.4299 83.0001 58.6499C83.0001 54.8699 79.94 51.8101 76.16 51.8101C72.38 51.8101 69.3201 54.8699 69.3201 58.6499C69.3201 62.4199 72.38 65.49 76.16 65.49Z" fill="#FF6633"/>
<path d="M76.16 86.21C79.94 86.21 83.0001 83.1499 83.0001 79.3699C83.0001 75.5899 79.94 72.53 76.16 72.53C72.38 72.53 69.3201 75.5899 69.3201 79.3699C69.3201 83.1499 72.38 86.21 76.16 86.21Z" fill="#FF6633"/>
<path d="M94.1801 34.3999C97.9601 34.3999 101.02 31.3401 101.02 27.5601C101.02 23.7801 97.9601 20.72 94.1801 20.72C90.4001 20.72 87.3401 23.7801 87.3401 27.5601C87.3401 31.3401 90.4001 34.3999 94.1801 34.3999Z" fill="#FF6633"/>
<path d="M94.1801 55.1199C97.9601 55.1199 101.02 52.06 101.02 48.28C101.02 44.5 97.9601 41.4399 94.1801 41.4399C90.4001 41.4399 87.3401 44.5 87.3401 48.28C87.3401 52.06 90.4001 55.1199 94.1801 55.1199Z" fill="#FF6633"/>
<path d="M94.1801 75.8501C97.9601 75.8501 101.02 72.79 101.02 69.01C101.02 65.23 97.9601 62.1699 94.1801 62.1699C90.4001 62.1699 87.3401 65.23 87.3401 69.01C87.3401 72.79 90.4001 75.8501 94.1801 75.8501Z" fill="#FF6633"/>
<path d="M94.1801 96.5701C97.9601 96.5701 101.02 93.51 101.02 89.73C101.02 85.95 97.9601 82.8899 94.1801 82.8899C90.4001 82.8899 87.3401 85.95 87.3401 89.73C87.3401 93.51 90.4001 96.5701 94.1801 96.5701Z" fill="#FF6633"/>
<path d="M112.2 44.76C115.98 44.76 119.04 41.6999 119.04 37.9199C119.04 34.1399 115.98 31.0801 112.2 31.0801C108.42 31.0801 105.36 34.1399 105.36 37.9199C105.36 41.6999 108.42 44.76 112.2 44.76Z" fill="#FF6633"/>
<path d="M112.2 65.48C115.98 65.48 119.04 62.4199 119.04 58.6399C119.04 54.8599 115.98 51.8 112.2 51.8C108.42 51.8 105.36 54.8599 105.36 58.6399C105.36 62.4199 108.42 65.48 112.2 65.48Z" fill="#FF6633"/>
<path d="M112.2 86.21C115.98 86.21 119.04 83.1499 119.04 79.3699C119.04 75.5899 115.98 72.53 112.2 72.53C108.42 72.53 105.36 75.5899 105.36 79.3699C105.36 83.1499 108.42 86.21 112.2 86.21Z" fill="#FF6633"/>
<path d="M112.2 106.93C115.98 106.93 119.04 103.87 119.04 100.09C119.04 96.3101 115.98 93.25 112.2 93.25C108.42 93.25 105.36 96.3101 105.36 100.09C105.36 103.87 108.42 106.93 112.2 106.93Z" fill="#FF6633"/>
<path d="M620.18 115.26C620.26 115.14 620.33 115.02 620.38 114.88C620.43 114.74 620.45 114.6 620.47 114.46C620.48 114.37 620.52 114.29 620.52 114.2C620.52 114.16 620.5 114.13 620.5 114.09C620.49 113.94 620.45 113.81 620.41 113.66C620.38 113.54 620.35 113.41 620.3 113.3C620.25 113.19 620.16 113.09 620.09 112.99C620 112.87 619.92 112.76 619.81 112.66C619.78 112.63 619.77 112.6 619.74 112.57C619.67 112.51 619.58 112.49 619.5 112.45C619.38 112.37 619.26 112.3 619.12 112.25C618.98 112.2 618.84 112.18 618.7 112.17C618.61 112.16 618.53 112.12 618.44 112.12H607.11C605.96 112.12 605.02 113.06 605.02 114.21C605.02 115.36 605.96 116.3 607.11 116.3H614.14L605.22 127.64C605.18 127.69 605.16 127.76 605.13 127.82C605.04 127.96 604.95 128.11 604.9 128.27C604.86 128.4 604.84 128.52 604.82 128.66C604.81 128.75 604.76 128.84 604.76 128.94C604.76 128.98 604.78 129.02 604.78 129.06C604.79 129.22 604.83 129.36 604.87 129.52C604.9 129.63 604.92 129.74 604.97 129.84C605.04 129.98 605.14 130.11 605.24 130.23C605.31 130.32 605.37 130.4 605.45 130.48C605.49 130.52 605.51 130.56 605.55 130.6C605.93 130.91 606.28 131.01 606.81 131.04C606.83 131.04 606.84 131.05 606.86 131.05H607.06C607.07 131.05 607.08 131.05 607.09 131.05H618.39C619.54 131.05 620.48 130.11 620.48 128.96C620.48 127.81 619.54 126.87 618.39 126.87H611.17L620.08 115.55C620.12 115.43 620.14 115.34 620.18 115.26ZM636.35 112.1C635.74 112.1 635.2 112.31 634.8 112.72C634.39 113.13 634.18 113.66 634.18 114.27V124.24C634.18 124.79 634.04 125.26 633.76 125.68C633.46 126.11 633.05 126.45 632.5 126.7C631.93 126.97 631.25 127.1 630.48 127.1C629.75 127.1 629.11 126.97 628.57 126.71C628.05 126.46 627.66 126.13 627.37 125.69C627.1 125.27 626.96 124.8 626.96 124.24V114.27C626.96 113.65 626.74 113.11 626.31 112.7C625.9 112.3 625.37 112.09 624.78 112.09C624.16 112.09 623.63 112.31 623.22 112.73C622.83 113.14 622.62 113.67 622.62 114.27V124.24C622.62 125.6 622.97 126.82 623.65 127.89C624.33 128.95 625.28 129.78 626.48 130.37C627.65 130.95 628.99 131.24 630.47 131.24C631.99 131.24 633.37 130.95 634.56 130.38C635.78 129.79 636.76 128.96 637.45 127.9C638.16 126.83 638.51 125.6 638.51 124.24V114.27C638.51 113.65 638.29 113.11 637.86 112.7C637.47 112.31 636.95 112.1 636.35 112.1ZM654.68 115.31C654.12 114.31 653.34 113.51 652.34 112.95C651.36 112.39 650.22 112.11 648.97 112.11H643.18C642.59 112.11 642.06 112.32 641.65 112.72C641.23 113.13 641 113.67 641 114.29V128.74C641 129.34 641.22 129.87 641.63 130.28C642.05 130.7 642.58 130.92 643.18 130.92C643.8 130.92 644.34 130.7 644.75 130.27C645.15 129.86 645.36 129.33 645.36 128.74V125.13H648.97C650.22 125.13 651.35 124.86 652.33 124.31C653.33 123.76 654.11 122.98 654.68 122C655.23 121.03 655.51 119.92 655.51 118.7C655.51 117.44 655.23 116.3 654.68 115.31ZM650.95 119.88C650.76 120.21 650.51 120.47 650.17 120.66C649.83 120.85 649.44 120.95 648.97 120.95H645.36V116.3H648.97C649.43 116.3 649.82 116.4 650.15 116.6C650.49 116.8 650.75 117.07 650.94 117.42C651.14 117.78 651.24 118.21 651.24 118.71C651.24 119.15 651.14 119.54 650.95 119.88ZM579.9 118.66C578.89 118.1 577.76 117.81 576.52 117.81C575.44 117.81 574.47 118.03 573.6 118.48C572.73 118.93 572.02 119.58 571.47 120.44V112.46H569.68V131.2H571.4V128.57C571.94 129.46 572.65 130.14 573.53 130.62C574.41 131.09 575.41 131.33 576.52 131.33C577.77 131.33 578.89 131.04 579.9 130.47C580.91 129.9 581.7 129.1 582.28 128.07C582.85 127.04 583.14 125.87 583.14 124.56C583.14 123.25 582.85 122.08 582.28 121.05C581.71 120.02 580.91 119.22 579.9 118.66ZM580.7 127.26C580.27 128.05 579.68 128.66 578.92 129.09C578.16 129.52 577.32 129.73 576.39 129.73C575.45 129.73 574.6 129.52 573.85 129.09C573.1 128.66 572.51 128.05 572.08 127.26C571.65 126.47 571.43 125.57 571.43 124.56C571.43 123.55 571.65 122.65 572.08 121.86C572.51 121.07 573.1 120.46 573.85 120.03C574.6 119.6 575.45 119.39 576.39 119.39C577.32 119.39 578.16 119.6 578.92 120.03C579.68 120.46 580.27 121.07 580.7 121.86C581.13 122.65 581.35 123.55 581.35 124.56C581.34 125.57 581.13 126.47 580.7 127.26ZM590.82 129.2L585.82 117.91H583.95L589.89 131.17L589.31 132.46C588.94 133.27 588.54 133.84 588.11 134.18C587.68 134.52 587.16 134.69 586.56 134.69C585.62 134.69 584.81 134.35 584.13 133.68L583.3 135.02C583.7 135.42 584.18 135.73 584.74 135.93C585.3 136.13 585.89 136.23 586.53 136.23C587.52 136.23 588.37 135.97 589.08 135.45C589.79 134.93 590.41 134.04 590.95 132.8L597.59 117.92H595.82L590.82 129.2Z" fill="#011F4C"/>
<path d="M462 63.3501H444.88C440.36 63.3501 436.68 59.6699 436.68 55.1499C436.68 50.6299 440.36 46.95 444.88 46.95H463.9C466.45 46.95 468.53 44.8701 468.53 42.3201C468.53 39.7701 466.45 37.6899 463.9 37.6899H444.88C435.26 37.6899 427.43 45.5199 427.43 55.1399C427.43 64.7599 435.26 72.5901 444.88 72.5901H462C467.61 72.5901 472.18 77.16 472.18 82.77C472.18 88.38 467.61 92.95 462 92.95H432.05C429.5 92.95 427.43 95.0201 427.43 97.5701C427.43 100.12 429.5 102.2 432.05 102.2H462C472.71 102.2 481.43 93.48 481.43 82.77C481.43 72.07 472.71 63.3501 462 63.3501ZM341.9 48.01H357.98C360.53 48.01 362.6 45.9299 362.6 43.3799C362.6 40.8299 360.53 38.75 357.98 38.75H341.9C324.4 38.75 310.17 52.98 310.17 70.48C310.17 87.97 324.4 102.21 341.9 102.21H357.98C360.53 102.21 362.6 100.13 362.6 97.5801C362.6 95.0301 360.53 92.96 357.98 92.96H341.9C329.51 92.96 319.42 82.88 319.42 70.48C319.42 58.08 329.51 48.01 341.9 48.01ZM397.05 69.6899L421.41 45.3301C423.21 43.5301 423.21 40.59 421.41 38.79C420.51 37.89 419.32 37.4399 418.14 37.4399C416.96 37.4399 415.77 37.89 414.87 38.79L387.24 66.4199C385.44 68.2199 385.44 71.16 387.24 72.96L415.14 100.86C416.89 102.61 419.94 102.61 421.68 100.86C423.49 99.0501 423.49 96.1201 421.68 94.3101L397.05 69.6899ZM610.96 46.8101H626.24V97.5901C626.24 100.14 628.32 102.22 630.87 102.22C633.42 102.22 635.5 100.14 635.5 97.5901V46.8101H650.78C653.33 46.8101 655.41 44.7299 655.41 42.1799C655.41 39.6299 653.33 37.55 650.78 37.55H610.97C608.42 37.55 606.35 39.6299 606.35 42.1799C606.35 44.7299 608.41 46.8101 610.96 46.8101ZM189.3 63.3501H172.18C167.66 63.3501 163.98 59.6699 163.98 55.1499C163.98 50.6299 167.66 46.95 172.18 46.95H191.2C193.75 46.95 195.83 44.8701 195.83 42.3201C195.83 39.7701 193.75 37.6899 191.2 37.6899H172.18C162.56 37.6899 154.73 45.5199 154.73 55.1399C154.73 64.7599 162.56 72.5901 172.18 72.5901H189.3C194.91 72.5901 199.48 77.16 199.48 82.77C199.48 88.38 194.91 92.95 189.3 92.95H159.35C156.8 92.95 154.72 95.0201 154.72 97.5701C154.72 100.12 156.8 102.2 159.35 102.2H189.3C200.01 102.2 208.73 93.48 208.73 82.77C208.73 72.07 200.01 63.3501 189.3 63.3501ZM260.72 42.1799C260.72 39.6299 258.64 37.55 256.09 37.55H207.18C204.63 37.55 202.56 39.6299 202.56 42.1799C202.56 44.7299 204.63 46.8101 207.18 46.8101H219.95V97.5901C219.95 100.14 222.03 102.22 224.58 102.22C227.13 102.22 229.2 100.14 229.2 97.5901V46.8101H256.09C258.64 46.8101 260.72 44.7299 260.72 42.1799ZM295.91 38.26L295.72 38.3201L295.54 38.4199C294.98 38.6799 294.55 38.9701 294.21 39.3201L239.22 94.3101C237.42 96.1101 237.42 99.0501 239.22 100.85C240.97 102.6 244.01 102.6 245.76 100.85L292.92 53.6899L292.96 96.8C292.96 99.35 295.04 101.42 297.59 101.42C300.14 101.42 302.22 99.34 302.21 96.79L302.15 42.5601C302.16 39.4901 299.13 37.04 295.91 38.26ZM375.04 37.95C372.49 37.95 370.41 40.0201 370.41 42.5701L370.35 96.8C370.35 99.35 372.42 101.43 374.97 101.43C377.52 101.43 379.6 99.3601 379.6 96.8101L379.66 42.5801C379.66 41.3401 379.18 40.1801 378.31 39.3101C377.44 38.4301 376.28 37.95 375.04 37.95ZM576.51 37.54C558.68 37.54 544.17 52.0499 544.17 69.8799C544.17 87.7099 558.68 102.22 576.51 102.22C594.34 102.22 608.85 87.7099 608.85 69.8799C608.85 52.0499 594.35 37.54 576.51 37.54ZM576.51 92.97C563.78 92.97 553.42 82.6099 553.42 69.8799C553.42 57.1499 563.78 46.79 576.51 46.79C589.24 46.79 599.6 57.1499 599.6 69.8799C599.6 82.6199 589.25 92.97 576.51 92.97ZM513.16 37.71H492.14C489.59 37.71 487.51 39.7901 487.51 42.3401V97.6001C487.51 100.15 489.59 102.23 492.14 102.23C494.69 102.23 496.76 100.15 496.76 97.6001V87.52L513.3 87.54C526.89 87.53 538.06 76.3599 538.06 62.6299C538.06 48.8999 526.89 37.71 513.16 37.71ZM513.25 78.27L496.76 78.28V46.95H513.16C521.79 46.95 528.82 53.9701 528.82 62.6101C528.81 71.2101 521.84 78.22 513.25 78.27Z" fill="#011F4C"/>
<path fill-rule="evenodd" clip-rule="evenodd" d="M682 38H858.987V106.619H682V38ZM698.825 56.7799V92.1729H714.299C718.142 92.1729 721.515 91.4315 724.412 89.9482C727.312 88.465 729.57 86.4089 731.188 83.7797C732.806 81.1169 733.615 78.0157 733.615 74.4764C733.615 70.9035 732.806 67.8023 731.188 65.1731C729.57 62.5439 727.312 60.4879 724.412 59.0046C721.515 57.5214 718.142 56.7799 714.299 56.7799H698.825ZM713.995 86.6112H705.399V62.3417H713.995C716.661 62.3417 718.951 62.8473 720.872 63.8585C722.83 64.8698 724.329 66.2855 725.373 68.1057C726.453 69.8923 726.991 72.0159 726.991 74.4764C726.991 76.9034 726.453 79.027 725.373 80.8472C724.329 82.6674 722.83 84.0831 720.872 85.0943C718.951 86.1056 716.661 86.6112 713.995 86.6112ZM749.555 91.3134C751.881 92.2235 754.424 92.6785 757.191 92.6785C759.921 92.6785 762.432 92.2235 764.725 91.3134C767.051 90.4033 769.074 89.1392 770.793 87.5213C772.513 85.9033 773.842 83.982 774.788 81.7573C775.731 79.5326 776.204 77.1056 776.204 74.4764C776.204 71.8472 775.731 69.4373 774.788 67.2461C773.842 65.0214 772.513 63.1001 770.793 61.4822C769.074 59.8306 767.051 58.5496 764.725 57.6395C762.432 56.7294 759.903 56.2743 757.14 56.2743C754.409 56.2743 751.881 56.7294 749.555 57.6395C747.229 58.5496 745.206 59.8306 743.487 61.4822C741.768 63.1001 740.435 65.0214 739.492 67.2461C738.546 69.4373 738.076 71.8472 738.076 74.4764C738.076 77.1056 738.546 79.5326 739.492 81.7573C740.435 83.9484 741.768 85.8697 743.487 87.5213C745.206 89.1392 747.229 90.4033 749.555 91.3134ZM762.096 86.0044C760.579 86.6112 758.924 86.9145 757.14 86.9145C755.352 86.9145 753.702 86.6112 752.185 86.0044C750.668 85.3977 749.353 84.5381 748.24 83.4258C747.128 82.2799 746.25 80.9483 745.611 79.4314C745.004 77.9146 744.7 76.2631 744.7 74.4764C744.7 72.6562 745.004 71.0047 745.611 69.5214C746.25 68.0046 747.128 66.69 748.24 65.5776C749.385 64.4317 750.7 63.5552 752.185 62.9484C753.702 62.3417 755.352 62.0383 757.14 62.0383C758.924 62.0383 760.579 62.3417 762.096 62.9484C763.613 63.5552 764.928 64.4317 766.04 65.5776C767.153 66.69 768.012 68.0046 768.619 69.5214C769.258 71.0047 769.58 72.6562 769.58 74.4764C769.58 76.2966 769.258 77.9652 768.619 79.482C768.012 80.9653 767.153 82.2799 766.04 83.4258C764.928 84.5381 763.613 85.3977 762.096 86.0044ZM792.021 91.3639C794.347 92.2405 796.857 92.6785 799.556 92.6785C802.489 92.6785 805.151 92.1729 807.545 91.1617C809.94 90.1505 811.963 88.6842 813.613 86.7629L809.366 82.7179C808.083 84.1337 806.653 85.1954 805.067 85.9033C803.482 86.5776 801.763 86.9145 799.91 86.9145C798.057 86.9145 796.352 86.6112 794.802 86.0044C793.285 85.3977 791.952 84.5381 790.807 83.4258C789.695 82.3134 788.817 80.9988 788.178 79.482C787.571 77.9652 787.268 76.2966 787.268 74.4764C787.268 72.6562 787.571 70.9877 788.178 69.4709C788.817 67.954 789.695 66.6394 790.807 65.5271C791.952 64.4147 793.285 63.5552 794.802 62.9484C796.352 62.3417 798.057 62.0383 799.91 62.0383C801.763 62.0383 803.482 62.3923 805.067 63.1001C806.653 63.7744 808.083 64.8022 809.366 66.1844L813.613 62.19C811.963 60.2351 809.94 58.7688 807.545 57.7912C805.151 56.7799 802.507 56.2743 799.606 56.2743C796.876 56.2743 794.365 56.7294 792.072 57.6395C789.778 58.516 787.773 59.78 786.054 61.4316C784.335 63.0496 783.002 64.9709 782.059 67.1956C781.116 69.4203 780.643 71.8472 780.643 74.4764C780.643 77.1056 781.116 79.5326 782.059 81.7573C783.002 83.982 784.317 85.9203 786.003 87.5718C787.723 89.1898 789.727 90.4538 792.021 91.3639ZM822.896 91.5156C825.425 92.291 828.072 92.6785 830.835 92.6785C834.072 92.6785 836.752 92.2065 838.876 91.2628C840.999 90.2852 842.567 89.0045 843.578 87.4201C844.622 85.8022 845.146 84.0495 845.146 82.1618C845.146 80.308 844.759 78.7742 843.983 77.5607C843.242 76.3472 842.246 75.3865 840.999 74.6787C839.786 73.9708 838.42 73.3977 836.903 72.9596C835.419 72.5215 833.92 72.1336 832.403 71.7967C830.886 71.4258 829.503 71.0552 828.256 70.6843C827.043 70.3134 826.049 69.8078 825.273 69.1675C824.532 68.4932 824.16 67.6171 824.16 66.5383C824.16 65.6282 824.413 64.8192 824.919 64.1113C825.457 63.4035 826.284 62.8303 827.397 62.3923C828.542 61.9542 830.026 61.735 831.847 61.735C833.396 61.735 835.014 61.9708 836.701 62.4428C838.388 62.8809 840.021 63.5721 841.606 64.5158L843.679 59.4091C842.13 58.3979 840.31 57.6225 838.218 57.0833C836.127 56.5441 834.021 56.2743 831.897 56.2743C828.661 56.2743 825.981 56.763 823.857 57.7406C821.766 58.6843 820.198 59.9653 819.154 61.5833C818.143 63.1677 817.637 64.9203 817.637 66.8417C817.637 68.7294 818.024 70.2798 818.8 71.4933C819.577 72.7068 820.57 73.6844 821.784 74.4259C823.03 75.1337 824.395 75.7235 825.88 76.1955C827.397 76.6336 828.896 77.0215 830.38 77.3584C831.897 77.6954 833.263 78.0663 834.476 78.4708C835.722 78.8417 836.734 79.3639 837.51 80.0382C838.287 80.6785 838.673 81.5381 838.673 82.6168C838.673 83.4933 838.402 84.2853 837.864 84.9932C837.326 85.6675 836.481 86.2067 835.336 86.6112C834.191 87.0157 832.688 87.2179 830.835 87.2179C828.643 87.2179 826.505 86.847 824.413 86.1055C822.322 85.3641 820.57 84.437 819.154 83.3247L816.879 88.4314C818.363 89.6784 820.368 90.7066 822.896 91.5156Z" fill="#FF6633"/>
</svg>
