<svg width="62" height="61" viewBox="0 0 62 61" fill="none" xmlns="http://www.w3.org/2000/svg">
<path fill-rule="evenodd" clip-rule="evenodd" d="M59.4929 10.2653L59.5335 10.7565L59.5376 11.2558V49.7562L59.5254 50.2514L59.4848 50.7385L59.4239 51.2216L59.3427 51.6924L59.2372 52.1592L59.1114 52.6179L58.9612 53.0603L58.7948 53.4987L58.5999 53.929L58.3888 54.3389L58.1615 54.7448L57.918 55.1345L57.6542 55.512L57.37 55.8733L57.0737 56.2223L56.7571 56.5593L56.4283 56.8759L56.0792 57.1803L55.718 57.4644L55.3486 57.7323L54.963 57.9799L54.5652 58.2113L54.1552 58.4224L53.7331 58.6172L53.3028 58.7877L52.8604 58.9379L52.4057 59.0678L51.9471 59.1774L51.4803 59.2586L51.0013 59.3194L50.5223 59.36L50.0271 59.3722H11.9732L11.482 59.36L10.999 59.3194L10.52 59.2586L10.0532 59.1774L9.59047 59.0678L9.13991 58.9379L8.69747 58.7877L8.26721 58.6172L7.841 58.4224L7.43103 58.2113L7.03324 57.9799L6.64357 57.7323L6.27419 57.4644L5.91293 57.1803L5.56791 56.8759L5.23913 56.5593L4.92252 56.2223L4.6262 55.8733L4.34613 55.512L4.07823 55.1345L3.83062 54.7448L3.60331 54.3389L3.39224 53.929L3.20146 53.4987L3.03504 53.0603L2.88485 52.6179L2.75496 52.1592L2.64943 51.6924L2.56824 51.2216L2.50736 50.7385L2.46677 50.2514L2.45459 49.7562V11.2558L2.46271 10.7605L2.5033 10.2694L2.56824 9.79042L2.64943 9.31551L2.75496 8.84871L2.88485 8.3941L3.03504 7.9476L3.20146 7.50922L3.39224 7.08301L3.60331 6.66898L3.83062 6.26307L4.07823 5.8734L4.34613 5.49591L4.6262 5.13059L4.92252 4.78557L5.23913 4.45272L5.56791 4.13611L5.91293 3.83168L6.27419 3.54348L6.64357 3.27558L7.03324 3.02392L7.43103 2.78849L7.841 2.57742L8.26721 2.38664L8.69747 2.2121L9.13991 2.06192L9.59047 1.93203L10.0532 1.82243L10.52 1.73719L10.999 1.6763L11.482 1.63571L11.9732 1.62354H50.0271L50.5264 1.63165L51.0054 1.67224L51.4843 1.73313L51.9511 1.81837L52.4098 1.92797L52.8644 2.05786L53.3069 2.20804L53.7371 2.38258L54.1593 2.57336L54.5692 2.78443L54.967 3.01986L55.3526 3.27153L55.722 3.53943L56.0833 3.82762L56.4324 4.13205L56.7612 4.44866L57.0778 4.78151L57.3741 5.12653L57.6582 5.49185L57.9261 5.86528L58.1697 6.25496L58.397 6.66087L58.608 7.07489L58.8029 7.5011L58.9693 7.93948L59.1195 8.38598L59.2453 8.84466L59.3508 9.31145L59.432 9.78636L59.4929 10.2653ZM7.21184 49.7481H11.6484H11.6525V30.4958H7.21184V49.7481ZM52.9456 30.4918H48.7526L46.0776 34.3844H49.1747L52.9456 30.4918ZM22.7054 49.7603L22.9246 49.6791H22.9286V46.3344L22.8718 46.3547L22.7947 46.375L22.7054 46.3953L22.5958 46.4115L22.47 46.4278L22.332 46.4399L22.1818 46.4521L22.0194 46.4562L21.8773 46.4521L21.7434 46.444L21.6176 46.4278L21.4958 46.4075L21.3821 46.3831L21.2766 46.3547L21.1711 46.3182L21.0736 46.2735L20.9843 46.2248L20.8991 46.1761L20.8179 46.1152L20.7448 46.0543L20.6758 45.9853L20.6109 45.9123L20.55 45.8311L20.4972 45.7458L20.4485 45.6606L20.3998 45.5632L20.3592 45.4658L20.3186 45.3602L20.2862 45.2466L20.2537 45.1329L20.2293 45.0111L20.205 44.8894L20.1888 44.7595L20.1685 44.6215L20.1563 44.4835L20.1441 44.3373L20.136 44.1871L20.1279 44.037L20.1238 43.8787V43.7163V38.6018H22.8759V35.314H20.1238V30.4958H15.8131V35.314H13.7916V38.6018H15.8131V44.4713L15.8171 44.6499L15.809 44.8285L15.8131 45.0071L15.8212 45.1776L15.8333 45.348L15.8496 45.5145L15.8658 45.6768L15.8821 45.8392L15.8983 45.9934L15.9186 46.1477L15.9429 46.2979L15.9714 46.444L15.9998 46.5901L16.0322 46.7363L16.0647 46.8743L16.1012 47.0123L16.1418 47.1462L16.1865 47.2761L16.2311 47.4019L16.2758 47.5237L16.3245 47.6455L16.3732 47.7592L16.426 47.8728L16.4828 47.9824L16.5396 48.092L16.6005 48.1975L16.6655 48.299L16.7345 48.4005L16.8035 48.4938L16.8765 48.5831L16.9496 48.6724L17.0227 48.7536L17.0957 48.8267L17.1688 48.8998L17.2419 48.9688L17.3149 49.0378L17.3961 49.1027L17.4773 49.1677L17.5666 49.2326L17.6559 49.2935L17.7452 49.3544L17.8426 49.4112L17.94 49.464L18.0415 49.5208L18.147 49.5695L18.2485 49.6182L18.3581 49.6669L18.4636 49.7116L18.5773 49.7603L18.6909 49.8009L18.8087 49.8415L18.9264 49.878L19.0481 49.9145L19.174 49.9429L19.2998 49.9714L19.4297 49.9957L19.5555 50.0201L19.6895 50.0404L19.8194 50.0566L19.9574 50.0728L20.0954 50.0891L20.2334 50.0972L20.3714 50.1012L20.5135 50.1053L20.7489 50.1012L20.964 50.0931L21.167 50.0809L21.3537 50.0647L21.5283 50.0485L21.6906 50.0282L21.8449 50.0038L21.9829 49.9754L22.1209 49.947L22.2467 49.9145L22.3644 49.878L22.4821 49.8415L22.7054 49.7603ZM34.5214 49.7481H38.134V41.2118L38.1299 40.8871L38.1137 40.5705L38.0893 40.2579L38.0528 39.9454L38.0041 39.641L37.9432 39.3406L37.8742 39.0483L37.793 38.7642L37.6956 38.4841L37.5941 38.2122L37.4724 37.9483L37.3425 37.6926L37.1963 37.445L37.038 37.2055L36.8635 36.9741L36.6768 36.755L36.4779 36.5439L36.2587 36.345L36.0273 36.1583L35.7797 35.9797L35.5199 35.8132L35.2399 35.6631L34.9476 35.521L34.6351 35.3952L34.3103 35.2815L33.9653 35.1841L33.604 35.0989L33.2265 35.0258L32.8288 34.973L32.4147 34.9324L31.9845 34.9081L31.538 34.9H31.2863L31.0346 34.9081L30.7911 34.9121L30.5516 34.9284L30.3162 34.9405L30.0848 34.9608L29.8575 34.9852L29.6343 35.0095L29.4151 35.042L29.1999 35.0745L28.9889 35.111L28.7818 35.1516L28.583 35.1922L28.3881 35.2328L28.1933 35.2815L28.0066 35.3302L27.8239 35.3789L27.6453 35.4317L27.4748 35.4845L27.3084 35.5372L27.142 35.59L26.9877 35.6468L26.8335 35.7037L26.6874 35.7645L26.5453 35.8214L26.4073 35.8823L26.2733 35.9431L26.1434 36.004L26.0217 36.0649L25.904 36.1258L25.7944 36.1867L25.6888 36.2476L26.525 39.0849L26.6224 39.028L26.7239 38.9712L26.8254 38.9144L26.9309 38.8616L27.0405 38.8089L27.1542 38.7561L27.2719 38.7033L27.3936 38.6546L27.5195 38.6018L27.6453 38.5491L27.7752 38.4963L27.9051 38.4517L28.039 38.407L28.177 38.3624L28.3151 38.3177L28.4531 38.2771L28.5951 38.2365L28.7372 38.2L28.8833 38.1635L29.0254 38.131L29.1715 38.0985L29.3217 38.0701L29.4678 38.0457L29.618 38.0214L29.7641 38.0011L29.9143 37.9849L30.0645 37.9646L30.2106 37.9524L30.3608 37.9402L30.507 37.928L30.6571 37.924H30.8033L31.0387 37.928L31.266 37.9402L31.4811 37.9605L31.68 37.9808L31.8749 38.0133L32.0575 38.0498L32.228 38.0904L32.3863 38.1391L32.5406 38.1919L32.6826 38.2487L32.8125 38.3096L32.9343 38.3745L33.048 38.4435L33.1535 38.5166L33.255 38.5937L33.3443 38.6668L33.4254 38.748L33.5026 38.8332L33.5716 38.9144L33.6325 38.9996L33.6852 39.0849L33.7339 39.1701L33.7745 39.2513L33.8151 39.3365L33.8476 39.4218L33.8719 39.503L33.8922 39.5841L33.9125 39.6572L33.9247 39.7343L33.9328 39.8074L33.9409 39.8764V39.9413V40.0996L33.4092 40.1037L32.8896 40.1159L32.3823 40.1402L31.8911 40.1768L31.4121 40.2255L30.9494 40.2864L30.4948 40.3554L30.0605 40.4406L29.6383 40.5299L29.2365 40.6354L28.8427 40.7491L28.4693 40.8749L28.1121 41.0129L27.7711 41.1591L27.4423 41.3174L27.1298 41.4879L26.8375 41.6665L26.5615 41.8572L26.3017 42.0602L26.0623 42.2794L25.839 42.5026L25.6361 42.7381L25.4493 42.9857L25.2789 43.2414L25.1327 43.5093L25.0028 43.7894L24.8932 44.0776L24.8039 44.382L24.7309 44.6905L24.6781 45.0111L24.6497 45.348L24.6416 45.689L24.6456 45.896L24.6578 46.103L24.6822 46.3101L24.7187 46.513L24.7633 46.716L24.8161 46.9189L24.8811 47.1178L24.9582 47.3126L25.0394 47.5034L25.1368 47.6901L25.2423 47.8728L25.3519 48.0514L25.4737 48.23L25.6076 48.4005L25.7497 48.5669L25.8999 48.7252L26.0582 48.8754L26.2246 49.0215L26.4032 49.1595L26.5899 49.2894L26.7848 49.4112L26.9918 49.5249L27.2069 49.6304L27.4302 49.7237L27.6615 49.809L27.901 49.8861L28.1527 49.9511L28.4084 50.0038L28.6763 50.0485L28.9523 50.0809L29.2365 50.0972L29.5287 50.1053L29.7073 50.1012L29.8819 50.0931L30.0523 50.085L30.2228 50.0688L30.3892 50.0525L30.5557 50.0322L30.7221 50.0079L30.8885 49.9795L31.0468 49.9429L31.2051 49.9064L31.3594 49.8658L31.5136 49.8212L31.6638 49.7725L31.814 49.7237L31.9601 49.6669L32.1022 49.6101L32.2402 49.5492L32.3782 49.4843L32.5162 49.4193L32.6502 49.3463L32.776 49.2691L32.9018 49.192L33.0277 49.1108L33.1454 49.0296L33.2631 48.9444L33.3767 48.8551L33.4863 48.7617L33.5919 48.6643L33.6933 48.5669L33.7948 48.4654L33.8922 48.3599L33.9856 48.2503H34.0343L34.5214 49.7481ZM51.2692 49.7481H54.7803V35.3221H50.3843V43.7853V43.9111L50.3762 44.0329L50.364 44.1506L50.3478 44.2643L50.3275 44.3779L50.3031 44.4875L50.2707 44.5971L50.2301 44.6986L50.1976 44.7798L50.157 44.861L50.1164 44.9421L50.0718 45.0233L50.0271 45.1045L49.9784 45.1857L49.9256 45.2669L49.8688 45.348L49.8079 45.4292L49.747 45.5104L49.678 45.5916L49.609 45.6687L49.54 45.7418L49.4629 45.8148L49.3858 45.8839L49.3046 45.9529L49.2194 46.0178L49.1341 46.0827L49.0408 46.1396L48.9474 46.1964L48.8459 46.2451L48.7485 46.2938L48.643 46.3425L48.5374 46.3831L48.4278 46.4237L48.3142 46.4562L48.1965 46.4846L48.0747 46.5049L47.9529 46.5252L47.823 46.5374L47.6972 46.5495H47.5592L47.3928 46.5455L47.2345 46.5333L47.0762 46.5171L46.926 46.4887L46.7839 46.4562L46.6459 46.4115L46.516 46.3628L46.3902 46.306L46.2684 46.2451L46.1548 46.172L46.0452 46.0909L45.9396 46.0056L45.8422 45.9163L45.7448 45.8148L45.6595 45.7093L45.5784 45.5957L45.5012 45.4779L45.4322 45.3521L45.3673 45.2182L45.3023 45.0802L45.2496 44.934L45.1968 44.7838L45.1522 44.6255L45.1116 44.4632L45.075 44.2927L45.0426 44.1181L45.0182 43.9395L44.9979 43.7528L44.9817 43.562L44.9695 43.3632L44.9614 43.1602L44.9573 42.9491V35.314H40.6263V43.7447V43.9558L40.6344 44.1628L40.6425 44.3617L40.6506 44.5606L40.6669 44.7554L40.6831 44.9462L40.7034 45.1289L40.7237 45.3115L40.7521 45.4901L40.7805 45.6647L40.813 45.8351L40.8536 46.0016L40.8942 46.1639L40.9348 46.3222L40.9794 46.4765L41.0281 46.6226L41.0768 46.7687L41.1337 46.9149L41.1864 47.0569L41.2473 47.1949L41.3082 47.3289L41.3691 47.4588L41.4381 47.5846L41.5071 47.7104L41.5761 47.8282L41.6492 47.9459L41.7263 48.0595L41.8034 48.1691L41.8805 48.2787L41.9617 48.3842L42.0429 48.4857L42.1281 48.5831L42.2174 48.6806L42.3108 48.7699L42.4042 48.8592L42.4975 48.9403L42.5949 49.0215L42.6923 49.1027L42.7938 49.1798L42.8994 49.2529L43.0049 49.3219L43.1104 49.3868L43.22 49.4477L43.3296 49.5086L43.4433 49.5614L43.561 49.6142L43.6787 49.6629L43.8005 49.7116L43.9263 49.7562L44.0481 49.7968L44.178 49.8374L44.3038 49.8699L44.4378 49.9023L44.5636 49.9308L44.6975 49.9592L44.8355 49.9795L44.9695 49.9998L45.1075 50.016L45.2455 50.0322L45.3835 50.0485L45.5256 50.0607L45.6677 50.0647L45.8138 50.0728H45.9599H46.0898L46.2156 50.0688L46.3374 50.0647L46.4592 50.0566L46.581 50.0444L46.6987 50.0322L46.8164 50.0201L46.93 50.0038L47.0396 49.9876L47.1492 49.9673L47.2588 49.9511L47.3644 49.9267L47.4699 49.9064L47.5754 49.878L47.6769 49.8496L47.7784 49.8212L47.9692 49.7562L48.1599 49.6872L48.3385 49.6142L48.5131 49.5411L48.6795 49.4599L48.8419 49.3787L48.9961 49.2935L49.1422 49.2082L49.2803 49.1189L49.4183 49.0296L49.5481 48.9363L49.674 48.8429L49.7917 48.7455L49.9013 48.644L50.0068 48.5426L50.1042 48.437L50.2017 48.3355L50.291 48.2341L50.3721 48.1366L50.4493 48.0433L50.5264 47.954L50.5954 47.8647L50.6563 47.7835L50.7131 47.6983L51.2692 49.7481ZM33.738 42.8926H33.8435H33.9572H34.0708V44.4229V44.5122L34.0668 44.6015L34.0587 44.6908L34.0546 44.7841L34.0424 44.8775L34.0302 44.9708L34.0181 45.0601L33.9978 45.1494L33.9897 45.1819L33.9734 45.2306L33.9653 45.2712L33.9531 45.2996L33.9409 45.3362L33.9247 45.3727L33.8841 45.462L33.8435 45.5513L33.7948 45.6365L33.7461 45.7258L33.6933 45.807L33.6365 45.8922L33.5756 45.9775L33.5107 46.0546L33.4417 46.1358L33.3767 46.2129L33.2996 46.29L33.2225 46.3672L33.1454 46.4402L33.0601 46.5052L32.9708 46.5742L32.8815 46.6391L32.7882 46.7041L32.6948 46.7649L32.5974 46.8177L32.4959 46.8705L32.3944 46.9233L32.2889 46.9638L32.1793 47.0085L32.0656 47.0491L31.952 47.0816L31.8383 47.114L31.7166 47.1384L31.5948 47.1587L31.473 47.179L31.3472 47.1912L31.2173 47.1993H31.0874H30.9738L30.8642 47.1912L30.7546 47.1871L30.649 47.1709L30.5476 47.1546L30.4461 47.1343L30.3446 47.11L30.2472 47.0816L30.1579 47.0531L30.0686 47.0166L29.9833 46.976L29.8981 46.9314L29.8169 46.8908L29.7439 46.838L29.6667 46.7852L29.6018 46.7325L29.5328 46.6675L29.4719 46.6026L29.411 46.5376L29.3582 46.4686L29.3055 46.3915L29.2568 46.3144L29.2162 46.2332L29.1756 46.148L29.1431 46.0627L29.1106 45.9694L29.0863 45.876L29.066 45.7786L29.0457 45.6731L29.0376 45.5675L29.0295 45.462L29.0254 45.3483L29.0295 45.2225L29.0416 45.1048L29.0579 44.983L29.0782 44.8694L29.1066 44.7598L29.1431 44.6502L29.1878 44.5527L29.2324 44.4513L29.2852 44.3539L29.342 44.2605L29.4069 44.1712L29.48 44.086L29.5531 44.0007L29.6343 43.9276L29.7195 43.8505L29.8129 43.7775L29.9103 43.7044L30.0117 43.6395L30.1173 43.5786L30.2269 43.5177L30.3446 43.4608L30.4623 43.4081L30.5841 43.3553L30.714 43.3107L30.8479 43.262L30.9859 43.2214L31.1239 43.1848L31.2701 43.1442L31.4162 43.1118L31.5704 43.0793L31.7247 43.0509L31.883 43.0225L32.0332 43.0022L32.1915 42.9819L32.3457 42.9616L32.5121 42.9453L32.6745 42.9332L32.845 42.921L33.0155 42.9129L33.1941 42.9048L33.2996 42.9007L33.4051 42.8966L33.5188 42.8926H33.6243H33.738Z" fill="#FFF"/>
</svg>
