<svg width="865" height="137" viewBox="0 0 865 137" fill="none" xmlns="http://www.w3.org/2000/svg">
<path d="M76.1599 115.37C75.5099 115.37 74.9001 115.49 74.3301 115.7C73.8501 115.88 73.3401 116 72.8301 116.03C72.7301 116.04 72.63 116.04 72.55 116.04C68.84 116.04 65.63 113.96 64 110.9L63.97 110.85C63.75 110.43 63.61 109.98 63.52 109.52C63.06 106.95 60.8399 105 58.1399 105C57.5099 105 56.9101 105.12 56.3401 105.32C55.8401 105.5 55.32 105.63 54.79 105.67C54.69 105.68 54.59 105.68 54.51 105.68C50.71 105.68 47.4799 103.58 45.8899 100.41V100.4C45.6999 100.02 45.58 99.62 45.51 99.21C45.07 96.62 42.8401 94.6399 40.1301 94.6399C39.5001 94.6399 38.9101 94.75 38.3501 94.95C37.9101 95.11 37.44 95.21 36.97 95.24C36.81 95.25 36.66 95.26 36.53 95.26C32.49 95.26 29.02 92.3501 27.56 88.8501L27.3601 88.3C27.1401 87.51 26.75 86.8 26.24 86.2C25.84 85.73 25.4501 85.25 25.1201 84.73C24.8101 84.25 24.47 83.7001 24.31 83.3401C23.74 82.0701 23.27 80.6899 23.27 79.4099C23.27 77.8599 23.64 76.4001 24.28 75.1101C24.32 75.0301 24.3699 74.9301 24.4299 74.8301C24.7899 74.1701 25.2801 73.5901 25.8301 73.0801C26.9701 72.0301 27.6601 70.49 27.5801 68.8C27.4501 65.97 25.1401 63.6801 22.3201 63.5701C19.1901 63.4501 16.6101 65.95 16.6101 69.05C16.6101 70.64 17.2901 72.0701 18.3701 73.0701C18.9801 73.6301 19.5199 74.28 19.9199 75C19.9899 75.13 20.0601 75.2599 20.1101 75.3699C20.6801 76.5999 20.99 77.9599 20.99 79.3999C20.99 80.7999 20.8901 83.4201 18.8701 85.3201C17.5301 86.5901 16.4401 88.22 16.6201 90.26C16.8401 92.6 18.5601 94.5501 20.8501 95.1001C21.9701 95.3701 23.0199 95.2499 23.9599 94.8999C24.4499 94.7199 24.95 94.6001 25.47 94.5801C25.57 94.5801 25.66 94.5701 25.73 94.5701C29.4 94.5701 32.63 96.53 34.28 99.53V99.54C34.48 99.91 34.6099 100.32 34.6599 100.74C34.9699 103.48 37.2801 105.61 40.1001 105.61C40.7501 105.61 41.3799 105.48 41.9499 105.27C42.4099 105.1 42.8999 104.98 43.3899 104.95C43.5199 104.94 43.65 104.94 43.74 104.94C47.26 104.94 50.35 106.84 52.05 109.66C52.06 109.68 52.0701 109.7 52.0901 109.72C52.4001 110.26 52.63 110.84 52.73 111.45C53.19 114.02 55.4101 115.97 58.1101 115.97C58.7801 115.97 59.41 115.84 60 115.61C60.55 115.4 61.1299 115.3 61.7099 115.29C61.7399 115.29 61.76 115.29 61.79 115.29C65.27 115.29 68.27 117.08 69.97 119.83C69.98 119.85 70 119.88 70.01 119.9C70.37 120.52 70.63 121.19 70.77 121.9C71.28 124.5 73.6001 126.44 76.3701 126.32C79.2001 126.2 81.5001 123.89 81.6101 121.06C81.7601 117.95 79.2599 115.37 76.1599 115.37ZM22.1001 53.8201C25.1301 53.8201 27.5901 51.3601 27.5901 48.3301C27.5901 45.3001 25.1301 42.8401 22.1001 42.8401C19.0701 42.8401 16.6101 45.3001 16.6101 48.3301C16.6101 51.3601 19.0701 53.8201 22.1001 53.8201ZM22.1001 33.0901C25.1301 33.0901 27.5901 30.6301 27.5901 27.6001C27.5901 24.5701 25.1301 22.1101 22.1001 22.1101C19.0701 22.1101 16.6101 24.5701 16.6101 27.6001C16.6101 30.6301 19.0701 33.0901 22.1001 33.0901Z" fill="#FF9800"/>
<path d="M94.8999 103.7C93.8299 103.59 92.8101 103.73 91.8801 104.06C91.4301 104.22 90.97 104.37 90.5 104.48C90.04 104.59 89.4901 104.69 89.1101 104.69C86.6901 104.69 84.5901 103.31 83.5701 101.29C83.4201 100.99 83.2601 100.47 83.1301 100.04C83.0301 99.7 82.9499 99.35 82.8899 99C82.3399 95.77 79.5399 93.3101 76.1599 93.3101C75.2299 93.3101 74.35 93.5001 73.54 93.8401C73.4 93.9001 73.2701 93.96 73.1301 94.01C72.4901 94.24 71.8001 94.3699 71.0801 94.3699C68.5401 94.3699 66.3499 92.8399 65.3899 90.6499C65.1199 90.0499 64.8801 88.7 64.8801 88.7C64.3501 85.45 61.5399 82.96 58.1399 82.96C57.3099 82.96 56.52 83.1099 55.79 83.3799C55.79 83.3799 54.0401 83.97 53.0801 83.97C50.4401 83.97 48.2 82.33 47.29 80.01C47.06 79.43 46.8201 78.1299 46.8201 78.1299C46.5201 76.5699 45.69 75.2 44.52 74.21C44.19 73.93 43.8701 73.6401 43.5901 73.3201C43.2701 72.9601 42.8799 72.4999 42.6899 72.1599C42.1599 71.2499 41.8601 70.1901 41.8601 69.0601C41.8601 67.7401 42.27 66.51 42.98 65.51C43.13 65.29 43.3901 65 43.6301 64.75C43.9001 64.46 44.2 64.1899 44.51 63.9299C46 62.6799 46.95 60.8 46.95 58.7C46.95 56.6 46 54.72 44.5 53.47C44.17 53.19 43.85 52.9001 43.55 52.5901C43.43 52.4701 43.32 52.35 43.24 52.25C42.38 51.18 41.8601 49.8201 41.8601 48.3401C41.8601 47.2201 42.1499 46.18 42.6699 45.27C42.8799 44.89 43.3199 44.38 43.6699 44C43.9299 43.72 44.21 43.46 44.51 43.21C46.11 41.87 47.0899 39.81 46.9399 37.53C46.7199 34.06 43.8599 31.2899 40.3899 31.1499C36.4899 30.9999 33.28 34.11 33.28 37.98C33.28 40.08 34.23 41.96 35.72 43.21C36.02 43.46 36.3101 43.73 36.5801 44.01C36.8701 44.32 37.2099 44.72 37.3999 45.01C38.0099 45.97 38.3701 47.1101 38.3701 48.3401C38.3701 49.8201 37.85 51.18 36.98 52.25C36.9 52.35 36.7899 52.4701 36.6799 52.5901C36.3799 52.9101 36.06 53.19 35.73 53.47C34.24 54.72 33.29 56.6 33.29 58.7C33.29 60.81 34.25 62.6899 35.75 63.9399C36.05 64.1899 36.3501 64.46 36.6201 64.74C36.8101 64.95 37.0199 65.1701 37.1399 65.3401C37.9099 66.3801 38.3701 67.66 38.3701 69.05C38.3701 70.34 37.98 71.54 37.3 72.54C37.14 72.78 36.8601 73.0999 36.6001 73.3699C36.3301 73.6599 36.03 73.9299 35.73 74.1899C34.13 75.5299 33.15 77.5899 33.3 79.8699C33.52 83.3199 36.33 86.08 39.78 86.25C40.81 86.3 41.7999 86.12 42.6899 85.76C43.2799 85.52 43.89 85.34 44.51 85.27C44.76 85.24 45.01 85.22 45.21 85.22C47.37 85.22 49.2701 86.32 50.3801 87.99C50.4901 88.15 50.6 88.3601 50.7 88.5901C51.04 89.3101 51.2699 90.0801 51.3899 90.8601C51.8999 94.1301 54.7201 96.6299 58.1301 96.6299C59.0001 96.6299 59.8201 96.4699 60.5801 96.1699C61.1101 95.9599 61.66 95.8 62.22 95.72C62.57 95.67 62.93 95.6299 63.2 95.6299C65.44 95.6299 67.4 96.8101 68.5 98.5901C68.65 98.8301 68.81 99.2001 68.95 99.5601C69.17 100.13 69.3199 100.72 69.4199 101.31C69.9699 104.53 72.7699 106.98 76.1499 106.98C77.0099 106.98 77.8301 106.82 78.5901 106.52C79.2301 106.28 79.8901 106.11 80.5601 106.01C80.8001 105.97 81.03 105.95 81.22 105.95C83.71 105.95 85.8501 107.41 86.8401 109.52C86.9501 109.76 87.0699 110.13 87.1599 110.46C87.2699 110.84 87.3499 111.23 87.4099 111.63C87.9499 114.87 90.7599 117.34 94.1499 117.34C98.0899 117.34 101.25 114.01 100.97 110.01C100.77 106.72 98.1699 104.04 94.8999 103.7ZM40.1201 24.0801C43.9001 24.0801 46.96 21.02 46.96 17.24C46.96 13.46 43.9001 10.3999 40.1201 10.3999C36.3401 10.3999 33.28 13.46 33.28 17.24C33.28 21.02 36.3401 24.0801 40.1201 24.0801Z" fill="#FF9800"/>
<path d="M4.08008 83.55C6.33008 83.55 8.15991 81.6999 8.15991 79.4099C8.15991 77.1199 6.33008 75.27 4.08008 75.27C1.83008 75.27 0 77.1199 0 79.4099C0 81.6999 1.83008 83.55 4.08008 83.55ZM4.08008 62.8301C6.33008 62.8301 8.15991 60.9799 8.15991 58.6899C8.15991 56.3999 6.33008 54.55 4.08008 54.55C1.83008 54.55 0 56.3999 0 58.6899C0 60.9699 1.83008 62.8301 4.08008 62.8301ZM4.08008 42.1001C6.33008 42.1001 8.15991 40.25 8.15991 37.96C8.15991 35.67 6.33008 33.8201 4.08008 33.8201C1.83008 33.8201 0 35.67 0 37.96C0 40.25 1.83008 42.1001 4.08008 42.1001ZM58.1399 127.08C57.9799 127.08 56.72 127.17 56.26 127.17C51.09 127.17 46.6101 124.31 44.3701 120.13C44.2001 119.82 43.8201 119.12 43.8201 119.12C43.1701 117.71 41.7701 116.73 40.1301 116.73C40.0001 116.73 38.74 116.86 38.23 116.86C33.23 116.86 28.8901 114.19 26.5701 110.23C26.2901 109.75 25.76 108.7 25.76 108.7C25.1 107.32 23.7201 106.37 22.1101 106.37C22.0001 106.37 20.6899 106.48 20.1499 106.48C14.9199 106.48 10.3999 103.56 8.17993 99.3C8.06993 99.09 7.97013 98.8699 7.88013 98.6499C7.29013 97.1099 5.8301 96.01 4.1001 96.01C1.8501 96.01 0.0200195 97.8599 0.0200195 100.15C0.0200195 102.44 1.8501 104.29 4.1001 104.29C4.2801 104.29 5.57003 104.2 6.03003 104.2C10.79 104.2 14.9601 106.62 17.3401 110.26C17.7401 110.87 18.3899 112.19 18.3899 112.19C19.0199 113.64 20.4501 114.66 22.1101 114.66C22.2701 114.66 23.55 114.58 24.01 114.58C29.07 114.58 33.46 117.31 35.75 121.35C35.97 121.75 36.4399 122.62 36.4399 122.62C37.0899 124.04 38.4901 125.03 40.1301 125.03C40.2701 125.03 41.54 124.94 42.02 124.94C46.96 124.94 51.2801 127.54 53.6201 131.42C53.9301 131.93 54.49 133.04 54.49 133.04C55.15 134.42 56.5299 135.39 58.1499 135.39C60.3999 135.39 62.23 133.54 62.23 131.25C62.21 128.93 60.3899 127.08 58.1399 127.08Z" fill="#FF9800"/>
<path d="M58.1399 13.6799C61.9199 13.6799 64.98 10.6201 64.98 6.84009C64.98 3.06009 61.9199 0 58.1399 0C54.3599 0 51.3 3.06009 51.3 6.84009C51.3 10.6201 54.3599 13.6799 58.1399 13.6799Z" fill="#FF6633"/>
<path d="M58.1399 34.3999C61.9199 34.3999 64.98 31.3401 64.98 27.5601C64.98 23.7801 61.9199 20.72 58.1399 20.72C54.3599 20.72 51.3 23.7801 51.3 27.5601C51.3 31.3401 54.3599 34.3999 58.1399 34.3999Z" fill="#FF6633"/>
<path d="M58.1399 55.1199C61.9199 55.1199 64.98 52.06 64.98 48.28C64.98 44.5 61.9199 41.4399 58.1399 41.4399C54.3599 41.4399 51.3 44.5 51.3 48.28C51.3 52.06 54.3599 55.1199 58.1399 55.1199Z" fill="#FF6633"/>
<path d="M58.1399 75.8501C61.9199 75.8501 64.98 72.79 64.98 69.01C64.98 65.23 61.9199 62.1699 58.1399 62.1699C54.3599 62.1699 51.3 65.23 51.3 69.01C51.3 72.79 54.3599 75.8501 58.1399 75.8501Z" fill="#FF6633"/>
<path d="M76.1599 24.04C79.9399 24.04 83 20.98 83 17.2C83 13.42 79.9399 10.3601 76.1599 10.3601C72.3799 10.3601 69.3201 13.42 69.3201 17.2C69.3201 20.98 72.3799 24.04 76.1599 24.04Z" fill="#FF6633"/>
<path d="M76.1599 44.76C79.9399 44.76 83 41.6999 83 37.9199C83 34.1399 79.9399 31.0801 76.1599 31.0801C72.3799 31.0801 69.3201 34.1399 69.3201 37.9199C69.3201 41.6999 72.3799 44.76 76.1599 44.76Z" fill="#FF6633"/>
<path d="M76.1599 65.49C79.9399 65.49 83 62.4299 83 58.6499C83 54.8699 79.9399 51.8101 76.1599 51.8101C72.3799 51.8101 69.3201 54.8699 69.3201 58.6499C69.3201 62.4199 72.3799 65.49 76.1599 65.49Z" fill="#FF6633"/>
<path d="M76.1599 86.21C79.9399 86.21 83 83.1499 83 79.3699C83 75.5899 79.9399 72.53 76.1599 72.53C72.3799 72.53 69.3201 75.5899 69.3201 79.3699C69.3201 83.1499 72.3799 86.21 76.1599 86.21Z" fill="#FF6633"/>
<path d="M94.1699 34.3999C97.9499 34.3999 101.01 31.3401 101.01 27.5601C101.01 23.7801 97.9499 20.72 94.1699 20.72C90.3899 20.72 87.3301 23.7801 87.3301 27.5601C87.3401 31.3401 90.3999 34.3999 94.1699 34.3999Z" fill="#FF6633"/>
<path d="M94.1699 55.1199C97.9499 55.1199 101.01 52.06 101.01 48.28C101.01 44.5 97.9499 41.4399 94.1699 41.4399C90.3899 41.4399 87.3301 44.5 87.3301 48.28C87.3401 52.06 90.3999 55.1199 94.1699 55.1199Z" fill="#FF6633"/>
<path d="M94.1699 75.8501C97.9499 75.8501 101.01 72.79 101.01 69.01C101.01 65.23 97.9499 62.1699 94.1699 62.1699C90.3899 62.1699 87.3301 65.23 87.3301 69.01C87.3401 72.79 90.3999 75.8501 94.1699 75.8501Z" fill="#FF6633"/>
<path d="M94.1699 96.5701C97.9499 96.5701 101.01 93.51 101.01 89.73C101.01 85.95 97.9499 82.8899 94.1699 82.8899C90.3899 82.8899 87.3301 85.95 87.3301 89.73C87.3401 93.51 90.3999 96.5701 94.1699 96.5701Z" fill="#FF6633"/>
<path d="M112.19 44.76C115.97 44.76 119.03 41.6999 119.03 37.9199C119.03 34.1399 115.97 31.0801 112.19 31.0801C108.41 31.0801 105.35 34.1399 105.35 37.9199C105.36 41.6999 108.42 44.76 112.19 44.76Z" fill="#FF6633"/>
<path d="M112.19 65.48C115.97 65.48 119.03 62.4199 119.03 58.6399C119.03 54.8599 115.97 51.8 112.19 51.8C108.41 51.8 105.35 54.8599 105.35 58.6399C105.36 62.4199 108.42 65.48 112.19 65.48Z" fill="#FF6633"/>
<path d="M112.19 86.21C115.97 86.21 119.03 83.1499 119.03 79.3699C119.03 75.5899 115.97 72.53 112.19 72.53C108.41 72.53 105.35 75.5899 105.35 79.3699C105.36 83.1499 108.42 86.21 112.19 86.21Z" fill="#FF6633"/>
<path d="M112.19 106.93C115.97 106.93 119.03 103.87 119.03 100.09C119.03 96.3101 115.97 93.25 112.19 93.25C108.41 93.25 105.35 96.3101 105.35 100.09C105.36 103.87 108.42 106.93 112.19 106.93Z" fill="#FF6633"/>
<path d="M620.18 115.26C620.26 115.14 620.33 115.02 620.38 114.88C620.43 114.74 620.45 114.6 620.47 114.46C620.48 114.37 620.52 114.29 620.52 114.2C620.52 114.16 620.5 114.13 620.5 114.09C620.49 113.94 620.45 113.81 620.41 113.66C620.38 113.54 620.35 113.41 620.3 113.3C620.25 113.19 620.16 113.09 620.09 112.99C620 112.87 619.92 112.76 619.81 112.66C619.78 112.63 619.77 112.6 619.74 112.57C619.67 112.51 619.58 112.49 619.5 112.45C619.38 112.37 619.26 112.3 619.12 112.25C618.98 112.2 618.84 112.18 618.7 112.17C618.61 112.16 618.53 112.12 618.44 112.12H607.11C605.96 112.12 605.02 113.06 605.02 114.21C605.02 115.36 605.96 116.3 607.11 116.3H614.14L605.22 127.64C605.18 127.69 605.16 127.76 605.13 127.82C605.04 127.96 604.95 128.11 604.9 128.27C604.86 128.4 604.84 128.52 604.82 128.66C604.81 128.75 604.76 128.84 604.76 128.94C604.76 128.98 604.78 129.02 604.78 129.06C604.79 129.22 604.83 129.36 604.87 129.52C604.9 129.63 604.92 129.74 604.97 129.84C605.04 129.98 605.14 130.11 605.24 130.23C605.31 130.32 605.37 130.4 605.45 130.48C605.49 130.52 605.51 130.56 605.55 130.6C605.93 130.91 606.28 131.01 606.81 131.04C606.83 131.04 606.84 131.05 606.86 131.05H607.06C607.07 131.05 607.08 131.05 607.09 131.05H618.39C619.54 131.05 620.48 130.11 620.48 128.96C620.48 127.81 619.54 126.87 618.39 126.87H611.17L620.08 115.55C620.11 115.43 620.13 115.34 620.18 115.26ZM636.35 112.1C635.74 112.1 635.2 112.31 634.8 112.72C634.39 113.13 634.18 113.66 634.18 114.27V124.24C634.18 124.79 634.04 125.26 633.76 125.68C633.46 126.11 633.05 126.45 632.5 126.7C631.93 126.97 631.25 127.1 630.48 127.1C629.75 127.1 629.11 126.97 628.57 126.71C628.05 126.46 627.66 126.13 627.37 125.69C627.1 125.27 626.96 124.8 626.96 124.24V114.27C626.96 113.65 626.74 113.11 626.31 112.7C625.9 112.3 625.37 112.09 624.78 112.09C624.16 112.09 623.63 112.31 623.22 112.73C622.83 113.14 622.62 113.67 622.62 114.27V124.24C622.62 125.6 622.97 126.82 623.65 127.89C624.33 128.95 625.28 129.78 626.48 130.37C627.65 130.95 628.99 131.24 630.47 131.24C631.99 131.24 633.37 130.95 634.56 130.38C635.78 129.79 636.76 128.96 637.45 127.9C638.16 126.83 638.51 125.6 638.51 124.24V114.27C638.51 113.65 638.29 113.11 637.86 112.7C637.47 112.31 636.94 112.1 636.35 112.1ZM654.68 115.31C654.12 114.31 653.34 113.51 652.34 112.95C651.36 112.39 650.22 112.11 648.97 112.11H643.18C642.59 112.11 642.06 112.32 641.65 112.72C641.23 113.13 641 113.67 641 114.29V128.74C641 129.34 641.22 129.87 641.63 130.28C642.05 130.7 642.58 130.92 643.18 130.92C643.8 130.92 644.34 130.7 644.75 130.27C645.15 129.86 645.36 129.33 645.36 128.74V125.13H648.97C650.22 125.13 651.35 124.86 652.33 124.31C653.33 123.76 654.11 122.98 654.68 122C655.23 121.03 655.51 119.92 655.51 118.7C655.51 117.44 655.23 116.3 654.68 115.31ZM650.95 119.88C650.76 120.21 650.51 120.47 650.17 120.66C649.83 120.85 649.44 120.95 648.97 120.95H645.36V116.3H648.97C649.43 116.3 649.82 116.4 650.15 116.6C650.49 116.8 650.75 117.07 650.94 117.42C651.14 117.78 651.24 118.21 651.24 118.71C651.24 119.15 651.14 119.54 650.95 119.88ZM579.9 118.66C578.89 118.1 577.76 117.81 576.52 117.81C575.44 117.81 574.47 118.03 573.6 118.48C572.73 118.93 572.02 119.58 571.47 120.44V112.46H569.68V131.2H571.4V128.57C571.94 129.46 572.65 130.14 573.53 130.62C574.41 131.09 575.41 131.33 576.52 131.33C577.77 131.33 578.89 131.04 579.9 130.47C580.91 129.9 581.7 129.1 582.28 128.07C582.85 127.04 583.14 125.87 583.14 124.56C583.14 123.25 582.85 122.08 582.28 121.05C581.7 120.02 580.91 119.22 579.9 118.66ZM580.7 127.26C580.27 128.05 579.68 128.66 578.92 129.09C578.16 129.52 577.32 129.73 576.39 129.73C575.45 129.73 574.6 129.52 573.85 129.09C573.1 128.66 572.51 128.05 572.08 127.26C571.65 126.47 571.43 125.57 571.43 124.56C571.43 123.55 571.65 122.65 572.08 121.86C572.51 121.07 573.1 120.46 573.85 120.03C574.6 119.6 575.45 119.39 576.39 119.39C577.32 119.39 578.16 119.6 578.92 120.03C579.68 120.46 580.27 121.07 580.7 121.86C581.13 122.65 581.35 123.55 581.35 124.56C581.34 125.57 581.13 126.47 580.7 127.26ZM590.81 129.2L585.81 117.91H583.94L589.88 131.17L589.3 132.46C588.93 133.27 588.53 133.84 588.1 134.18C587.67 134.52 587.15 134.69 586.55 134.69C585.61 134.69 584.8 134.35 584.12 133.68L583.29 135.02C583.69 135.42 584.17 135.73 584.73 135.93C585.29 136.13 585.88 136.23 586.52 136.23C587.51 136.23 588.36 135.97 589.07 135.45C589.78 134.93 590.4 134.04 590.94 132.8L597.58 117.92H595.81L590.81 129.2Z" fill="white"/>
<path d="M462 63.3501H444.88C440.36 63.3501 436.68 59.6699 436.68 55.1499C436.68 50.6299 440.36 46.95 444.88 46.95H463.9C466.45 46.95 468.53 44.8701 468.53 42.3201C468.53 39.7701 466.45 37.6899 463.9 37.6899H444.88C435.26 37.6899 427.43 45.5199 427.43 55.1399C427.43 64.7599 435.26 72.5901 444.88 72.5901H462C467.61 72.5901 472.18 77.16 472.18 82.77C472.18 88.38 467.61 92.95 462 92.95H432.05C429.5 92.95 427.43 95.0201 427.43 97.5701C427.43 100.12 429.5 102.2 432.05 102.2H462C472.71 102.2 481.43 93.48 481.43 82.77C481.43 72.07 472.71 63.3501 462 63.3501ZM341.9 48.01H357.98C360.53 48.01 362.6 45.9299 362.6 43.3799C362.6 40.8299 360.53 38.75 357.98 38.75H341.9C324.4 38.75 310.17 52.98 310.17 70.48C310.17 87.97 324.4 102.21 341.9 102.21H357.98C360.53 102.21 362.6 100.13 362.6 97.5801C362.6 95.0301 360.53 92.96 357.98 92.96H341.9C329.51 92.96 319.42 82.88 319.42 70.48C319.42 58.08 329.5 48.01 341.9 48.01ZM397.05 69.6899L421.41 45.3301C423.21 43.5301 423.21 40.59 421.41 38.79C420.51 37.89 419.32 37.4399 418.14 37.4399C416.96 37.4399 415.77 37.89 414.87 38.79L387.24 66.4199C385.44 68.2199 385.44 71.16 387.24 72.96L415.14 100.86C416.89 102.61 419.94 102.61 421.68 100.86C423.49 99.0501 423.49 96.1201 421.68 94.3101L397.05 69.6899ZM610.95 46.8101H626.23V97.5901C626.23 100.14 628.31 102.22 630.86 102.22C633.41 102.22 635.49 100.14 635.49 97.5901V46.8101H650.77C653.32 46.8101 655.4 44.7299 655.4 42.1799C655.4 39.6299 653.32 37.55 650.77 37.55H610.96C608.41 37.55 606.34 39.6299 606.34 42.1799C606.34 44.7299 608.4 46.8101 610.95 46.8101ZM189.3 63.3501H172.18C167.66 63.3501 163.98 59.6699 163.98 55.1499C163.98 50.6299 167.66 46.95 172.18 46.95H191.2C193.75 46.95 195.83 44.8701 195.83 42.3201C195.83 39.7701 193.75 37.6899 191.2 37.6899H172.18C162.56 37.6899 154.73 45.5199 154.73 55.1399C154.73 64.7599 162.56 72.5901 172.18 72.5901H189.3C194.91 72.5901 199.48 77.16 199.48 82.77C199.48 88.38 194.91 92.95 189.3 92.95H159.35C156.8 92.95 154.72 95.0201 154.72 97.5701C154.72 100.12 156.8 102.2 159.35 102.2H189.3C200.01 102.2 208.73 93.48 208.73 82.77C208.73 72.07 200.01 63.3501 189.3 63.3501ZM260.72 42.1799C260.72 39.6299 258.64 37.55 256.09 37.55H207.18C204.63 37.55 202.56 39.6299 202.56 42.1799C202.56 44.7299 204.63 46.8101 207.18 46.8101H219.95V97.5901C219.95 100.14 222.03 102.22 224.58 102.22C227.13 102.22 229.2 100.14 229.2 97.5901V46.8101H256.09C258.64 46.8101 260.72 44.7299 260.72 42.1799ZM295.91 38.26L295.72 38.3201L295.54 38.4199C294.98 38.6799 294.55 38.9701 294.21 39.3201L239.22 94.3101C237.42 96.1101 237.42 99.0501 239.22 100.85C240.97 102.6 244.01 102.6 245.76 100.85L292.92 53.6899L292.96 96.8C292.96 99.35 295.04 101.42 297.59 101.42C300.14 101.42 302.22 99.34 302.21 96.79L302.15 42.5601C302.15 39.4901 299.13 37.04 295.91 38.26ZM375.04 37.95C372.49 37.95 370.41 40.0201 370.41 42.5701L370.35 96.8C370.35 99.35 372.42 101.43 374.97 101.43C377.52 101.43 379.6 99.3601 379.6 96.8101L379.66 42.5801C379.66 41.3401 379.18 40.1801 378.31 39.3101C377.43 38.4301 376.27 37.95 375.04 37.95ZM576.51 37.54C558.68 37.54 544.17 52.0499 544.17 69.8799C544.17 87.7099 558.68 102.22 576.51 102.22C594.34 102.22 608.85 87.7099 608.85 69.8799C608.85 52.0499 594.34 37.54 576.51 37.54ZM576.51 92.97C563.78 92.97 553.42 82.6099 553.42 69.8799C553.42 57.1499 563.78 46.79 576.51 46.79C589.24 46.79 599.6 57.1499 599.6 69.8799C599.6 82.6199 589.24 92.97 576.51 92.97ZM513.15 37.71H492.13C489.58 37.71 487.5 39.7901 487.5 42.3401V97.6001C487.5 100.15 489.58 102.23 492.13 102.23C494.68 102.23 496.75 100.15 496.75 97.6001V87.52L513.29 87.54C526.88 87.53 538.05 76.3599 538.05 62.6299C538.05 48.8999 526.89 37.71 513.15 37.71ZM513.25 78.27L496.76 78.28V46.95H513.16C521.79 46.95 528.82 53.9701 528.82 62.6101C528.81 71.2101 521.84 78.22 513.25 78.27Z" fill="white"/>
<path fill-rule="evenodd" clip-rule="evenodd" d="M687.26 37.74H864.247V106.359H687.26V37.74ZM704.085 56.5199V91.9129H719.559C723.402 91.9129 726.775 91.1715 729.672 89.6882C732.572 88.205 734.83 86.1489 736.448 83.5197C738.066 80.8569 738.875 77.7557 738.875 74.2164C738.875 70.6435 738.066 67.5423 736.448 64.9131C734.83 62.2839 732.572 60.2279 729.672 58.7446C726.775 57.2614 723.402 56.5199 719.559 56.5199H704.085ZM719.255 86.3512H710.659V62.0817H719.255C721.921 62.0817 724.211 62.5873 726.132 63.5985C728.09 64.6098 729.589 66.0255 730.633 67.8457C731.713 69.6323 732.251 71.7559 732.251 74.2164C732.251 76.6434 731.713 78.7669 730.633 80.5872C729.589 82.4074 728.09 83.8231 726.132 84.8343C724.211 85.8455 721.921 86.3512 719.255 86.3512ZM754.815 91.0534C757.141 91.9635 759.684 92.4185 762.451 92.4185C765.181 92.4185 767.692 91.9635 769.985 91.0534C772.311 90.1433 774.334 88.8792 776.053 87.2613C777.773 85.6433 779.102 83.722 780.048 81.4973C780.991 79.2726 781.464 76.8456 781.464 74.2164C781.464 71.5872 780.991 69.1773 780.048 66.9861C779.102 64.7614 777.773 62.8401 776.053 61.2221C774.334 59.5706 772.311 58.2896 769.985 57.3795C767.692 56.4694 765.163 56.0143 762.4 56.0143C759.669 56.0143 757.141 56.4694 754.815 57.3795C752.489 58.2896 750.466 59.5706 748.747 61.2221C747.028 62.8401 745.695 64.7614 744.752 66.9861C743.806 69.1773 743.336 71.5872 743.336 74.2164C743.336 76.8456 743.806 79.2726 744.752 81.4973C745.695 83.6884 747.028 85.6097 748.747 87.2613C750.466 88.8792 752.489 90.1433 754.815 91.0534ZM767.356 85.7444C765.839 86.3512 764.184 86.6545 762.4 86.6545C760.612 86.6545 758.962 86.3512 757.445 85.7444C755.928 85.1377 754.613 84.2781 753.5 83.1658C752.388 82.0198 751.51 80.6883 750.871 79.1714C750.264 77.6546 749.961 76.003 749.961 74.2164C749.961 72.3962 750.264 70.7447 750.871 69.2614C751.51 67.7446 752.388 66.43 753.5 65.3176C754.645 64.1717 755.96 63.2952 757.445 62.6884C758.962 62.0817 760.612 61.7783 762.4 61.7783C764.184 61.7783 765.839 62.0817 767.356 62.6884C768.873 63.2952 770.188 64.1717 771.3 65.3176C772.413 66.43 773.272 67.7446 773.879 69.2614C774.518 70.7447 774.84 72.3962 774.84 74.2164C774.84 76.0366 774.518 77.7052 773.879 79.222C773.272 80.7053 772.413 82.0198 771.3 83.1658C770.188 84.2781 768.873 85.1377 767.356 85.7444ZM797.281 91.1039C799.607 91.9804 802.117 92.4185 804.816 92.4185C807.749 92.4185 810.411 91.9129 812.805 90.9017C815.2 89.8904 817.223 88.4242 818.873 86.5028L814.626 82.4579C813.343 83.8736 811.913 84.9354 810.328 85.6433C808.742 86.3176 807.023 86.6545 805.17 86.6545C803.317 86.6545 801.612 86.3512 800.062 85.7444C798.545 85.1377 797.212 84.2781 796.067 83.1658C794.955 82.0534 794.077 80.7388 793.438 79.222C792.831 77.7052 792.528 76.0366 792.528 74.2164C792.528 72.3962 792.831 70.7277 793.438 69.2108C794.077 67.694 794.955 66.3794 796.067 65.267C797.212 64.1547 798.545 63.2952 800.062 62.6884C801.612 62.0817 803.317 61.7783 805.17 61.7783C807.023 61.7783 808.742 62.1322 810.328 62.8401C811.913 63.5144 813.343 64.5422 814.626 65.9244L818.873 61.93C817.223 59.9751 815.2 58.5088 812.805 57.5312C810.411 56.5199 807.767 56.0143 804.866 56.0143C802.136 56.0143 799.625 56.4694 797.332 57.3795C795.038 58.256 793.033 59.52 791.314 61.1716C789.595 62.7895 788.262 64.7109 787.319 66.9356C786.376 69.1603 785.903 71.5872 785.903 74.2164C785.903 76.8456 786.376 79.2726 787.319 81.4973C788.262 83.722 789.577 85.6603 791.263 87.3118C792.983 88.9298 794.987 90.1938 797.281 91.1039ZM828.156 91.2556C830.685 92.031 833.332 92.4185 836.095 92.4185C839.332 92.4185 842.012 91.9465 844.136 91.0028C846.259 90.0252 847.827 88.7445 848.838 87.1601C849.882 85.5422 850.406 83.7895 850.406 81.9018C850.406 80.048 850.019 78.5141 849.243 77.3007C848.502 76.0872 847.506 75.1265 846.259 74.4187C845.046 73.7108 843.68 73.1377 842.163 72.6996C840.679 72.2615 839.18 71.8736 837.663 71.5367C836.146 71.1658 834.763 70.7952 833.516 70.4243C832.303 70.0534 831.309 69.5478 830.533 68.9075C829.792 68.2332 829.42 67.357 829.42 66.2783C829.42 65.3682 829.673 64.5592 830.179 63.8513C830.717 63.1435 831.544 62.5703 832.657 62.1322C833.802 61.6942 835.286 61.4749 837.107 61.4749C838.656 61.4749 840.274 61.7108 841.961 62.1828C843.648 62.6209 845.281 63.3121 846.866 64.2558L848.939 59.1491C847.39 58.1379 845.57 57.3625 843.478 56.8233C841.387 56.2841 839.281 56.0143 837.157 56.0143C833.921 56.0143 831.241 56.503 829.117 57.4806C827.026 58.4243 825.458 59.7053 824.414 61.3233C823.403 62.9076 822.897 64.6603 822.897 66.5816C822.897 68.4694 823.284 70.0198 824.06 71.2333C824.837 72.4468 825.83 73.4244 827.044 74.1659C828.29 74.8737 829.655 75.4635 831.14 75.9355C832.657 76.3736 834.156 76.7615 835.64 77.0984C837.157 77.4354 838.523 77.8063 839.736 78.2108C840.982 78.5817 841.994 79.1039 842.77 79.7782C843.547 80.4185 843.933 81.278 843.933 82.3568C843.933 83.2333 843.662 84.0253 843.124 84.7332C842.586 85.4075 841.741 85.9467 840.596 86.3512C839.451 86.7556 837.948 86.9579 836.095 86.9579C833.903 86.9579 831.765 86.587 829.673 85.8455C827.582 85.1041 825.83 84.177 824.414 83.0647L822.139 88.1714C823.623 89.4184 825.628 90.4466 828.156 91.2556Z" fill="#FF6633"/>
</svg>
