<svg width="510" height="90" viewBox="0 0 510 90" fill="none" xmlns="http://www.w3.org/2000/svg">
<g clip-path="url(#clip0_2617_239002)">
<path d="M49.7936 76.1874C49.3706 76.1874 48.9659 76.2702 48.598 76.4082C48.2853 76.5277 47.9542 76.6013 47.6139 76.6289C47.5495 76.6289 47.4852 76.6289 47.43 76.6289C45.0111 76.6289 42.905 75.2677 41.8381 73.2719L41.8197 73.2443C41.6725 72.9684 41.5806 72.6741 41.5254 72.3706C41.2311 70.6875 39.7779 69.4183 38.012 69.4183C37.5982 69.4183 37.2027 69.4919 36.8348 69.6298C36.5037 69.7494 36.1634 69.8322 35.8231 69.8598C35.7587 69.8598 35.6944 69.8598 35.6392 69.8598C33.1559 69.8598 31.0406 68.4802 30.0013 66.4108C29.8817 66.1625 29.7989 65.8958 29.753 65.6291C29.4678 63.9368 28.0055 62.64 26.2304 62.64C25.8258 62.64 25.4303 62.7135 25.0716 62.8423C24.7773 62.9435 24.483 63.0171 24.1703 63.0355C24.0691 63.0355 23.9679 63.0446 23.8852 63.0446C21.2456 63.0446 18.9739 61.1408 18.0173 58.8507L17.8886 58.492C17.7414 57.977 17.4931 57.5079 17.1528 57.1217C16.8861 56.8181 16.6378 56.4962 16.417 56.1559C16.2147 55.8432 15.994 55.4846 15.8836 55.2454C15.5065 54.4177 15.203 53.5164 15.203 52.6794C15.203 51.6677 15.4421 50.7112 15.8652 49.8651C15.8928 49.8099 15.9296 49.7455 15.9664 49.6811C16.2055 49.2489 16.5182 48.8718 16.8769 48.5315C17.6219 47.8417 18.0725 46.8392 18.0265 45.7355C17.9438 43.8869 16.4354 42.3878 14.5868 42.3142C12.5358 42.2314 10.8527 43.8685 10.8527 45.9011C10.8527 46.9404 11.2942 47.8785 12.0024 48.5315C12.3979 48.8994 12.7565 49.3224 13.0141 49.8007C13.0601 49.8927 13.106 49.9754 13.1428 50.0398C13.5107 50.84 13.7223 51.7321 13.7223 52.6794C13.7223 53.6267 13.6579 55.3098 12.3335 56.5514C11.4505 57.3792 10.7424 58.4461 10.8619 59.7796C10.9999 61.3156 12.1311 62.5848 13.6303 62.9435C14.3661 63.1182 15.0466 63.0446 15.6629 62.8147C15.9848 62.6951 16.3159 62.6216 16.6562 62.6032C16.7205 62.6032 16.7757 62.6032 16.8217 62.6032C19.2222 62.6032 21.3375 63.8816 22.4136 65.8406C22.5516 66.0889 22.6343 66.3556 22.6619 66.6315C22.8643 68.425 24.3818 69.8138 26.2212 69.8138C26.6535 69.8138 27.0582 69.731 27.4353 69.593C27.7388 69.4827 28.0515 69.3999 28.3734 69.3815C28.4654 69.3815 28.5389 69.3723 28.6033 69.3723C30.9026 69.3723 32.926 70.6139 34.0389 72.4626C34.0389 72.4718 34.0573 72.4902 34.0664 72.5086C34.2688 72.858 34.4159 73.2443 34.4895 73.6398C34.7838 75.3229 36.2462 76.5921 38.0028 76.5921C38.4443 76.5921 38.8582 76.5093 39.2445 76.3622C39.6032 76.2242 39.9802 76.1598 40.3665 76.1506C40.3849 76.1506 40.4033 76.1506 40.4217 76.1506C42.7026 76.1506 44.6616 77.3279 45.7653 79.1213C45.7745 79.1397 45.7837 79.1489 45.7929 79.1673C46.032 79.572 46.1975 80.0135 46.2895 80.4733C46.6206 82.1748 48.1382 83.444 49.95 83.3612C51.7986 83.2785 53.2978 81.7701 53.3806 79.9215C53.4633 77.8705 51.8262 76.1874 49.7936 76.1874ZM14.4488 35.9313C16.4262 35.9313 18.0357 34.3218 18.0357 32.3444C18.0357 30.367 16.4262 28.7575 14.4488 28.7575C12.4714 28.7575 10.8619 30.367 10.8619 32.3444C10.8619 34.3218 12.4714 35.9313 14.4488 35.9313ZM14.4488 22.3839C16.4262 22.3839 18.0357 20.7743 18.0357 18.7969C18.0357 16.8196 16.4262 15.21 14.4488 15.21C12.4714 15.21 10.8619 16.8196 10.8619 18.7969C10.8619 20.7743 12.4714 22.3839 14.4488 22.3839Z" fill="#FF9800"/>
<path d="M62.0534 68.5538C61.3544 68.4803 60.6831 68.5722 60.076 68.793C59.7817 68.9033 59.4782 68.9953 59.1747 69.0689C58.8712 69.1424 58.5217 69.2068 58.2642 69.2068C56.6823 69.2068 55.3119 68.3055 54.6405 66.9811C54.5393 66.788 54.4382 66.4477 54.3554 66.1626C54.291 65.9418 54.2358 65.7119 54.199 65.482C53.8403 63.3666 52.0101 61.7571 49.7936 61.7571C49.1866 61.7571 48.6071 61.8859 48.0829 62.0974C47.9909 62.1342 47.9082 62.171 47.8162 62.2078C47.3931 62.3549 46.9516 62.4377 46.4734 62.4377C44.8087 62.4377 43.3831 61.4352 42.7485 60.0096C42.5738 59.6142 42.4174 58.7312 42.4174 58.7312C42.0771 56.6067 40.2377 54.9788 38.012 54.9788C37.4693 54.9788 36.9543 55.0799 36.476 55.2547C36.476 55.2547 35.3356 55.641 34.7102 55.641C32.9903 55.641 31.5188 54.5649 30.9301 53.0566C30.783 52.6795 30.6266 51.8333 30.6266 51.8333C30.4335 50.8124 29.8908 49.9203 29.1275 49.2765C28.9159 49.0926 28.7044 48.8994 28.5205 48.6879C28.3089 48.4488 28.0606 48.1545 27.9318 47.9337C27.5824 47.3359 27.3892 46.6461 27.3892 45.9103C27.3892 45.0458 27.6559 44.2456 28.1158 43.5834C28.217 43.4455 28.3825 43.2523 28.5389 43.0868C28.7228 42.8937 28.9159 42.7189 29.1183 42.5534C30.0932 41.7348 30.7186 40.5116 30.7186 39.132C30.7186 37.7524 30.0932 36.5292 29.1183 35.7106C28.8976 35.5267 28.6952 35.3428 28.4929 35.1312C28.4193 35.0484 28.3457 34.9749 28.2905 34.9105C27.7295 34.2115 27.3892 33.3194 27.3892 32.3537C27.3892 31.6271 27.5824 30.9373 27.9226 30.3487C28.0606 30.1004 28.3457 29.7693 28.5756 29.5209C28.7412 29.337 28.9251 29.1622 29.1183 29.0059C30.1668 28.1322 30.8014 26.7802 30.7094 25.2902C30.5622 23.0185 28.6952 21.2067 26.4235 21.1147C23.8759 21.0135 21.7697 23.0553 21.7697 25.5845C21.7697 26.9549 22.3951 28.1873 23.37 29.0059C23.5632 29.1714 23.7563 29.3462 23.9311 29.5301C24.1242 29.7325 24.3449 29.99 24.4645 30.1831C24.86 30.8085 25.0991 31.5627 25.0991 32.3629C25.0991 33.3286 24.7588 34.2207 24.1886 34.9197C24.1334 34.9841 24.069 35.0576 23.9954 35.1404C23.8023 35.3428 23.5908 35.5359 23.37 35.7198C22.3951 36.5384 21.7697 37.7616 21.7697 39.1412C21.7697 40.5208 22.3951 41.7532 23.3792 42.5718C23.5816 42.7373 23.7655 42.912 23.9495 43.096C24.0782 43.234 24.207 43.3811 24.2898 43.4915C24.7956 44.1721 25.0991 45.009 25.0991 45.9195C25.0991 46.7657 24.8416 47.5474 24.4001 48.2004C24.299 48.3568 24.1058 48.5683 23.9495 48.7431C23.7747 48.9362 23.5816 49.111 23.3792 49.2765C22.3308 50.1502 21.6961 51.493 21.7881 52.9922C21.9353 55.2455 23.7747 57.0573 26.028 57.1677C26.6994 57.2045 27.3432 57.0849 27.9318 56.8458C28.3181 56.6894 28.7136 56.5699 29.1275 56.5239C29.293 56.5055 29.4586 56.4871 29.5781 56.4871C30.9853 56.4871 32.2269 57.2045 32.9627 58.299C33.0271 58.4001 33.1007 58.5381 33.1742 58.6944C33.395 59.1635 33.5421 59.6693 33.6249 60.1844C33.956 62.3181 35.8046 63.9552 38.0396 63.9552C38.6098 63.9552 39.1432 63.8449 39.6399 63.6517C39.9894 63.5138 40.3481 63.4126 40.7159 63.3574C40.9459 63.3206 41.185 63.3022 41.3506 63.3022C42.8129 63.3022 44.1005 64.0748 44.8179 65.2428C44.9191 65.3992 45.0202 65.6475 45.1122 65.8774C45.2594 66.2453 45.3513 66.6316 45.4157 67.0271C45.7744 69.1332 47.6046 70.7336 49.8212 70.7336C50.3822 70.7336 50.9248 70.6232 51.4215 70.4392C51.8354 70.2829 52.2676 70.1725 52.7091 70.1081C52.8654 70.0806 53.0218 70.0714 53.1414 70.0714C54.7693 70.0714 56.1672 71.0279 56.8202 72.4074C56.8938 72.5638 56.9674 72.8029 57.0318 73.0237C57.1053 73.272 57.1513 73.5295 57.1973 73.787C57.5468 75.9024 59.3862 77.5211 61.612 77.5211C64.1872 77.5211 66.2565 75.3414 66.0726 72.7293C65.9255 70.5772 64.224 68.8297 62.0902 68.5998M26.2304 16.4885C28.6952 16.4885 30.7002 14.4835 30.7002 12.0187C30.7002 9.55383 28.6952 7.54884 26.2304 7.54884C23.7655 7.54884 21.7605 9.55383 21.7605 12.0187C21.7605 14.4835 23.7655 16.4885 26.2304 16.4885Z" fill="#FF9800"/>
<path d="M2.66719 55.3743C4.13874 55.3743 5.33437 54.1602 5.33437 52.6703C5.33437 51.1804 4.13874 49.9663 2.66719 49.9663C1.19564 49.9663 0 51.1804 0 52.6703C0 54.1602 1.19564 55.3743 2.66719 55.3743ZM2.66719 41.8268C4.13874 41.8268 5.33437 40.6128 5.33437 39.1228C5.33437 37.6329 4.13874 36.4189 2.66719 36.4189C1.19564 36.4189 0 37.6329 0 39.1228C0 40.6128 1.19564 41.8268 2.66719 41.8268ZM2.66719 28.2793C4.13874 28.2793 5.33437 27.0653 5.33437 25.5754C5.33437 24.0854 4.13874 22.8714 2.66719 22.8714C1.19564 22.8714 0 24.0854 0 25.5754C0 27.0653 1.19564 28.2793 2.66719 28.2793ZM38.012 83.8488C37.9108 83.8488 37.0831 83.904 36.7796 83.904C33.395 83.904 30.4703 82.0369 28.9988 79.2962C28.8884 79.0938 28.6401 78.634 28.6401 78.634C28.217 77.7143 27.2973 77.0705 26.2304 77.0705C26.1384 77.0705 25.3199 77.1532 24.9888 77.1532C21.7238 77.1532 18.8818 75.4058 17.3643 72.8214C17.1804 72.5086 16.8401 71.8189 16.8401 71.8189C16.4078 70.9175 15.5065 70.2921 14.4488 70.2921C14.3752 70.2921 13.5199 70.3657 13.1612 70.3657C9.73983 70.3657 6.78753 68.4527 5.33437 65.6659C5.2608 65.528 5.19641 65.39 5.14123 65.2429C4.75495 64.2312 3.79844 63.5138 2.66719 63.5138C1.19564 63.5138 0 64.7278 0 66.2178C0 67.7077 1.19564 68.9217 2.66719 68.9217C2.78675 68.9217 3.63289 68.8574 3.9272 68.8574C7.03585 68.8574 9.76742 70.4393 11.3217 72.8214C11.5793 73.2168 12.0115 74.0814 12.0115 74.0814C12.4254 75.0287 13.3543 75.6909 14.4488 75.6909C14.55 75.6909 15.3869 75.6449 15.6904 75.6449C19.0014 75.6449 21.8709 77.4291 23.3701 80.0687C23.5172 80.3263 23.8207 80.8965 23.8207 80.8965C24.2438 81.8254 25.1635 82.4692 26.2396 82.4692C26.3316 82.4692 27.1593 82.414 27.472 82.414C30.7002 82.414 33.5238 84.1155 35.0505 86.6539C35.2528 86.985 35.6207 87.7208 35.6207 87.7208C36.053 88.6221 36.9543 89.2567 38.012 89.2567C39.4836 89.2567 40.6792 88.0427 40.6792 86.5528C40.6792 85.0628 39.4836 83.8488 38.012 83.8488Z" fill="#FF9800"/>
<path d="M38.0119 9.68261C40.4768 9.68261 42.4818 7.67762 42.4818 5.21278C42.4818 2.74793 40.4768 0.742939 38.0119 0.742939C35.5471 0.742939 33.5421 2.74793 33.5421 5.21278C33.5421 7.67762 35.5471 9.68261 38.0119 9.68261Z" fill="#FF6633"/>
<path d="M38.0119 23.2392C40.4767 23.2392 42.4817 21.2342 42.4817 18.7694C42.4817 16.3045 40.4767 14.2995 38.0119 14.2995C35.547 14.2995 33.542 16.3045 33.542 18.7694C33.542 21.2342 35.547 23.2392 38.0119 23.2392Z" fill="#FF6633"/>
<path d="M38.0119 36.7867C40.4767 36.7867 42.4817 34.7817 42.4817 32.3169C42.4817 29.852 40.4767 27.847 38.0119 27.847C35.547 27.847 33.542 29.852 33.542 32.3169C33.542 34.7817 35.547 36.7867 38.0119 36.7867Z" fill="#FF6633"/>
<path d="M38.0119 50.3342C40.4767 50.3342 42.4817 48.3292 42.4817 45.8644C42.4817 43.3996 40.4767 41.3946 38.0119 41.3946C35.547 41.3946 33.542 43.3996 33.542 45.8644C33.542 48.3292 35.547 50.3342 38.0119 50.3342Z" fill="#FF6633"/>
<path d="M49.7934 16.4609C52.2583 16.4609 54.2633 14.4559 54.2633 11.991C54.2633 9.5262 52.2583 7.52121 49.7934 7.52121C47.3286 7.52121 45.3236 9.5262 45.3236 11.991C45.3236 14.4559 47.3286 16.4609 49.7934 16.4609Z" fill="#FF6633"/>
<path d="M49.7934 30.0084C52.2583 30.0084 54.2633 28.0034 54.2633 25.5386C54.2633 23.0737 52.2583 21.0687 49.7934 21.0687C47.3286 21.0687 45.3236 23.0737 45.3236 25.5386C45.3236 28.0034 47.3286 30.0084 49.7934 30.0084Z" fill="#FF6633"/>
<path d="M49.7934 43.5651C52.2583 43.5651 54.2633 41.5602 54.2633 39.0953C54.2633 36.6305 52.2583 34.6255 49.7934 34.6255C47.3286 34.6255 45.3236 36.6305 45.3236 39.0953C45.3236 41.5602 47.3286 43.5651 49.7934 43.5651Z" fill="#FF6633"/>
<path d="M49.7934 57.1125C52.2583 57.1125 54.2633 55.1075 54.2633 52.6427C54.2633 50.1778 52.2583 48.1729 49.7934 48.1729C47.3286 48.1729 45.3236 50.1778 45.3236 52.6427C45.3236 55.1075 47.3286 57.1125 49.7934 57.1125Z" fill="#FF6633"/>
<path d="M61.5843 23.2392C64.0492 23.2392 66.0542 21.2342 66.0542 18.7694C66.0542 16.3045 64.0492 14.2995 61.5843 14.2995C59.1195 14.2995 57.1145 16.3045 57.1145 18.7694C57.1145 21.2342 59.1195 23.2392 61.5843 23.2392Z" fill="#FF6633"/>
<path d="M61.5843 36.7867C64.0492 36.7867 66.0542 34.7817 66.0542 32.3169C66.0542 29.852 64.0492 27.847 61.5843 27.847C59.1195 27.847 57.1145 29.852 57.1145 32.3169C57.1145 34.7817 59.1195 36.7867 61.5843 36.7867Z" fill="#FF6633"/>
<path d="M61.5843 50.3342C64.0492 50.3342 66.0542 48.3292 66.0542 45.8644C66.0542 43.3996 64.0492 41.3946 61.5843 41.3946C59.1195 41.3946 57.1145 43.3996 57.1145 45.8644C57.1145 48.3292 59.1195 50.3342 61.5843 50.3342Z" fill="#FF6633"/>
<path d="M61.5843 63.8908C64.0492 63.8908 66.0542 61.8858 66.0542 59.421C66.0542 56.9561 64.0492 54.9512 61.5843 54.9512C59.1195 54.9512 57.1145 56.9561 57.1145 59.421C57.1145 61.8858 59.1195 63.8908 61.5843 63.8908Z" fill="#FF6633"/>
<path d="M73.3659 30.0084C75.8308 30.0084 77.8357 28.0034 77.8357 25.5386C77.8357 23.0737 75.8308 21.0687 73.3659 21.0687C70.9011 21.0687 68.8961 23.0737 68.8961 25.5386C68.8961 28.0034 70.9011 30.0084 73.3659 30.0084Z" fill="#FF6633"/>
<path d="M73.3659 43.5651C75.8308 43.5651 77.8357 41.5602 77.8357 39.0953C77.8357 36.6305 75.8308 34.6255 73.3659 34.6255C70.9011 34.6255 68.8961 36.6305 68.8961 39.0953C68.8961 41.5602 70.9011 43.5651 73.3659 43.5651Z" fill="#FF6633"/>
<path d="M73.3659 57.1125C75.8308 57.1125 77.8357 55.1075 77.8357 52.6427C77.8357 50.1778 75.8308 48.1729 73.3659 48.1729C70.9011 48.1729 68.8961 50.1778 68.8961 52.6427C68.8961 55.1075 70.9011 57.1125 73.3659 57.1125Z" fill="#FF6633"/>
<path d="M73.3659 70.6599C75.8308 70.6599 77.8357 68.6549 77.8357 66.1901C77.8357 63.7252 75.8308 61.7203 73.3659 61.7203C70.9011 61.7203 68.8961 63.7252 68.8961 66.1901C68.8961 68.6549 70.9011 70.6599 73.3659 70.6599Z" fill="#FF6633"/>
<path d="M302.1 42.167H290.907C287.955 42.167 285.545 39.7666 285.545 36.8051C285.545 33.8436 287.946 31.4431 290.907 31.4431H303.342C305.007 31.4431 306.368 30.0819 306.368 28.4172C306.368 26.7525 305.007 25.3914 303.342 25.3914H290.907C284.616 25.3914 279.494 30.5142 279.494 36.8051C279.494 43.096 284.616 48.2188 290.907 48.2188H302.1C305.77 48.2188 308.759 51.2079 308.759 54.8776C308.759 58.5472 305.77 61.5363 302.1 61.5363H282.519C280.855 61.5363 279.494 62.8883 279.494 64.5622C279.494 66.2361 280.846 67.5881 282.519 67.5881H302.1C309.109 67.5881 314.811 61.8858 314.811 54.8868C314.811 47.8877 309.109 42.1762 302.1 42.1762V42.167ZM223.565 32.1329H234.078C235.743 32.1329 237.104 30.7717 237.104 29.107C237.104 27.4423 235.752 26.0811 234.078 26.0811H223.565C212.124 26.0811 202.817 35.3887 202.817 46.83C202.817 58.2713 212.124 67.5789 223.565 67.5789H234.078C235.743 67.5789 237.104 66.2177 237.104 64.553C237.104 62.8883 235.752 61.5271 234.078 61.5271H223.565C215.463 61.5271 208.868 54.9327 208.868 46.83C208.868 38.7273 215.463 32.1329 223.565 32.1329ZM259.628 46.3058L275.557 30.3762C276.734 29.199 276.734 27.2768 275.557 26.0995C274.969 25.5109 274.196 25.2166 273.414 25.2166C272.632 25.2166 271.869 25.5109 271.271 26.0995L253.208 44.1628C252.031 45.3401 252.031 47.2623 253.208 48.4395L271.446 66.6776C272.586 67.818 274.582 67.818 275.723 66.6776C276.9 65.5003 276.9 63.5781 275.723 62.4009L259.618 46.2966L259.628 46.3058ZM399.508 31.3419H409.496V64.5438C409.496 66.2085 410.857 67.5697 412.522 67.5697C414.186 67.5697 415.548 66.2085 415.548 64.5438V31.3419H425.536C427.2 31.3419 428.562 29.9808 428.562 28.3161C428.562 26.6514 427.2 25.2902 425.536 25.2902H399.508C397.843 25.2902 396.482 26.6514 396.482 28.3161C396.482 29.9808 397.834 31.3419 399.508 31.3419ZM123.776 42.1578H112.583C109.631 42.1578 107.221 39.7574 107.221 36.7959C107.221 33.8344 109.621 31.4339 112.583 31.4339H125.027C126.691 31.4339 128.053 30.0727 128.053 28.408C128.053 26.7433 126.691 25.3822 125.027 25.3822H112.583C106.292 25.3822 101.169 30.505 101.169 36.7959C101.169 43.0868 106.292 48.2096 112.583 48.2096H123.776C127.446 48.2096 130.435 51.1987 130.435 54.8684C130.435 58.538 127.446 61.5271 123.776 61.5271H104.195C102.53 61.5271 101.169 62.8791 101.169 64.553C101.169 66.2269 102.53 67.5789 104.195 67.5789H123.776C130.784 67.5789 136.486 61.8766 136.486 54.8776C136.486 47.8785 130.784 42.167 123.776 42.167V42.1578ZM170.479 28.3161C170.479 26.6514 169.118 25.2902 167.453 25.2902H135.466C133.801 25.2902 132.44 26.6514 132.44 28.3161C132.44 29.9808 133.792 31.3419 135.466 31.3419H143.817V64.5438C143.817 66.2085 145.178 67.5697 146.842 67.5697C148.507 67.5697 149.868 66.2085 149.868 64.5438V31.3419H167.453C169.118 31.3419 170.479 29.9808 170.479 28.3161ZM193.491 25.75L193.371 25.796L193.251 25.8604C192.884 26.0352 192.608 26.2191 192.378 26.449L156.417 62.4101C155.239 63.5873 155.239 65.5095 156.417 66.6868C157.557 67.8272 159.553 67.8272 160.693 66.6868L191.532 35.8486L191.559 64.038C191.559 65.7027 192.92 67.0546 194.585 67.0546C196.259 67.0546 197.611 65.6935 197.611 64.0288L197.574 28.5644C197.574 26.5502 195.597 24.9499 193.491 25.75ZM245.234 25.5385C243.569 25.5385 242.208 26.8905 242.208 28.5644L242.171 64.0288C242.171 65.6935 243.523 67.0546 245.188 67.0546C246.862 67.0546 248.214 65.7027 248.214 64.038L248.251 28.5736C248.251 27.7642 247.938 27.0101 247.368 26.4306C246.798 25.8604 246.034 25.5477 245.234 25.5385ZM376.984 25.2718C365.322 25.2718 355.83 34.7633 355.83 46.4161C355.83 58.069 365.322 67.5605 376.984 67.5605C388.646 67.5605 398.128 58.0782 398.128 46.4161C398.128 34.7541 388.646 25.2718 376.984 25.2718ZM376.984 61.5179C368.66 61.5179 361.882 54.7488 361.882 46.4161C361.882 38.0835 368.66 31.3144 376.984 31.3144C385.307 31.3144 392.086 38.0835 392.086 46.4161C392.086 54.7488 385.316 61.5179 376.984 61.5179ZM335.55 25.373H321.801C320.136 25.373 318.775 26.7341 318.775 28.3988V64.5346C318.775 66.1993 320.136 67.5605 321.801 67.5605C323.465 67.5605 324.827 66.1993 324.827 64.5346V57.9494H335.642C344.527 57.9494 351.839 50.6469 351.839 41.6704C351.839 32.6939 344.536 25.3822 335.55 25.3822V25.373ZM335.615 51.8977H324.827V31.4247H335.55C341.198 31.4247 345.787 36.0141 345.787 41.6612C345.787 47.3083 341.225 51.8609 335.615 51.8977Z" fill="#FAFAFB"/>
</g>
<path d="M489.074 24.2094L488.954 24.2554L488.835 24.3198C488.467 24.4945 488.191 24.6785 487.961 24.9084L452 60.8694C450.823 62.0467 450.823 63.9689 452 65.1461C453.14 66.2866 455.136 66.2866 456.277 65.1461L487.115 34.3079L487.142 62.4973C487.142 64.162 488.503 65.514 490.168 65.514C491.842 65.514 493.194 64.1528 493.194 62.4881L493.157 27.0238C493.157 25.0096 491.18 23.4093 489.074 24.2094ZM506.983 23.9979C505.319 23.9979 503.957 25.3499 503.957 27.0238L503.921 62.4881C503.921 64.1528 505.273 65.514 506.937 65.514C508.611 65.514 509.963 64.162 509.963 62.4973L510 27.033C510 26.2236 509.687 25.4694 509.117 24.89C508.547 24.3198 507.783 24.0071 506.983 23.9979Z" fill="#FF6633"/>
<defs>
<clipPath id="clip0_2617_239002">
<rect width="428.562" height="88.5138" fill="white" transform="translate(0 0.742962)"/>
</clipPath>
</defs>
</svg>
