<?xml version="1.0" encoding="UTF-8" standalone="no"?>
<svg
   width="161"
   height="25"
   viewBox="0 0 161 25"
   fill="none"
   version="1.1"
   id="svg56"
   sodipodi:docname="stackspot-hub-dark.svg"
   inkscape:version="1.1.2 (0a00cf5339, 2022-02-04)"
   xmlns:inkscape="http://www.inkscape.org/namespaces/inkscape"
   xmlns:sodipodi="http://sodipodi.sourceforge.net/DTD/sodipodi-0.dtd"
   xmlns="http://www.w3.org/2000/svg"
   xmlns:svg="http://www.w3.org/2000/svg">
  <sodipodi:namedview
     id="namedview58"
     pagecolor="#505050"
     bordercolor="#eeeeee"
     borderopacity="1"
     inkscape:pageshadow="0"
     inkscape:pageopacity="0"
     inkscape:pagecheckerboard="0"
     showgrid="false"
     inkscape:zoom="8.3240223"
     inkscape:cx="90.34094"
     inkscape:cy="22.945638"
     inkscape:window-width="1920"
     inkscape:window-height="923"
     inkscape:window-x="0"
     inkscape:window-y="0"
     inkscape:window-maximized="1"
     inkscape:current-layer="svg56" />
  <g
     id="g462"
     transform="matrix(0.97890998,0,0,0.97890998,-6.422707,0.92071624)">
    <path
       d="M 90.623987,11.346253 H 87.56458 c -0.806876,0 -1.465607,-0.669403 -1.465607,-1.4952821 0,-0.8258788 0.656271,-1.4953105 1.465607,-1.4953105 h 3.398886 c 0.455098,0 0.827103,-0.3796002 0.827103,-0.8438381 0,-0.4642378 -0.372005,-0.8438102 -0.827103,-0.8438102 H 87.56458 c -1.719532,0 -3.11954,1.4286043 -3.11954,3.1829588 0,1.7543541 1.400008,3.1829591 3.11954,3.1829591 h 3.059407 c 1.00313,0 1.820119,0.833575 1.820119,1.856951 0,1.023348 -0.816989,1.856923 -1.820119,1.856923 H 85.27187 c -0.454824,0 -0.82683,0.377035 -0.82683,0.843838 0,0.466804 0.369546,0.843839 0.82683,0.843839 h 5.352117 c 1.915786,0 3.474326,-1.590211 3.474326,-3.542034 0,-1.951852 -1.55854,-3.544628 -3.474326,-3.544628 z M 69.157845,8.5480262 h 2.873542 c 0.455098,0 0.827103,-0.3796003 0.827103,-0.8438381 0,-0.4642379 -0.369545,-0.8438381 -0.827103,-0.8438381 h -2.873542 c -3.127193,0 -5.671095,2.5956269 -5.671095,5.786282 0,3.190656 2.543902,5.786283 5.671095,5.786283 h 2.873542 c 0.455098,0 0.827103,-0.3796 0.827103,-0.843838 0,-0.464238 -0.369545,-0.843838 -0.827103,-0.843838 h -2.873542 c -2.214537,0 -4.017162,-1.838992 -4.017162,-4.098607 0,-2.259614 1.802625,-4.0986058 4.017162,-4.0986058 z m 9.857179,3.9524218 4.353908,-4.4423159 c 0.321712,-0.3282878 0.321712,-0.8643351 0,-1.1926509 -0.16072,-0.1641439 -0.372005,-0.2462159 -0.585751,-0.2462159 -0.213746,0 -0.422298,0.082072 -0.585751,0.2462159 l -4.937199,5.0373448 c -0.321712,0.328315 -0.321712,0.864363 0,1.192651 l 4.985032,5.086091 c 0.311599,0.318025 0.85717,0.318025 1.169042,0 0.321712,-0.328316 0.321712,-0.864363 0,-1.192651 L 79.01229,12.497882 Z M 117.24873,8.3274386 h 2.73004 v 9.2590724 c 0,0.464238 0.372,0.843838 0.8271,0.843838 0.45483,0 0.82711,-0.3796 0.82711,-0.843838 V 8.3274386 h 2.73004 c 0.45482,0 0.8271,-0.3795724 0.8271,-0.8438102 0,-0.4642378 -0.37228,-0.8438381 -0.8271,-0.8438381 h -7.11429 c -0.4551,0 -0.82711,0.3796003 -0.82711,0.8438381 0,0.4642378 0.36955,0.8438102 0.82711,0.8438102 z M 41.882302,11.343688 h -3.059407 c -0.806877,0 -1.465608,-0.669404 -1.465608,-1.4952828 0,-0.8258787 0.655998,-1.4953104 1.465608,-1.4953104 h 3.401345 c 0.454825,0 0.827103,-0.3796003 0.827103,-0.8438381 0,-0.4642378 -0.372278,-0.8438102 -0.827103,-0.8438102 h -3.401345 c -1.719533,0 -3.119814,1.4286043 -3.119814,3.1829587 0,1.7543548 1.400281,3.1829588 3.119814,3.1829588 h 3.059407 c 1.003129,0 1.820118,0.833576 1.820118,1.856951 0,1.023348 -0.816989,1.856924 -1.820118,1.856924 h -5.352118 c -0.455098,0 -0.827103,0.377034 -0.827103,0.843838 0,0.466803 0.372005,0.843838 0.827103,0.843838 h 5.352118 c 1.915511,0 3.474051,-1.590211 3.474051,-3.542034 0,-1.951851 -1.55854,-3.544628 -3.474051,-3.544628 z M 54.647734,7.4836284 c 0,-0.4642378 -0.372005,-0.8438381 -0.827103,-0.8438381 h -8.743076 c -0.455098,0 -0.827104,0.3796003 -0.827104,0.8438381 0,0.4642378 0.369546,0.8438102 0.827104,0.8438102 h 2.282597 v 9.2590724 c 0,0.464238 0.372005,0.843838 0.826829,0.843838 0.455098,0 0.827104,-0.3796 0.827104,-0.843838 V 8.3274386 h 4.806546 c 0.455098,0 0.827103,-0.3795724 0.827103,-0.8438102 z m 6.28992,-0.7156129 -0.0328,0.012828 -0.0328,0.017959 c -0.100313,0.048747 -0.175753,0.1000313 -0.238619,0.1641439 L 50.804137,16.991483 c -0.321985,0.328287 -0.321985,0.864335 0,1.19265 0.311599,0.318026 0.85717,0.318026 1.168768,0 l 8.429291,-8.599903 0.0074,7.861228 c 0,0.464238 0.372005,0.841244 0.827103,0.841244 0.457558,0 0.827103,-0.379572 0.827103,-0.84381 l -0.01011,-9.8900197 c 0,-0.5617036 -0.540378,-1.0079821 -1.116015,-0.7848568 z M 75.08068,6.7090342 c -0.455098,0 -0.827103,0.3770346 -0.827103,0.8438381 l -0.01011,9.8900197 c 0,0.464238 0.369545,0.84381 0.824643,0.84381 0.457558,0 0.827103,-0.377006 0.827103,-0.841244 l 0.01011,-9.8900201 c 0,-0.2257188 -0.08555,-0.436016 -0.241352,-0.5976222 C 75.508172,6.798803 75.299346,6.7115998 75.08068,6.7090342 Z m 36.01151,-0.074375 c -3.1876,0 -5.78207,2.6469114 -5.78207,5.8965478 0,3.249665 2.59447,5.896577 5.78207,5.896577 3.1876,0 5.77934,-2.644346 5.77934,-5.896577 0,-3.252202 -2.59174,-5.8965478 -5.77934,-5.8965478 z m 0,10.1080138 c -2.27521,0 -4.12786,-1.887711 -4.12786,-4.211466 0,-2.323726 1.85265,-4.2114373 4.12786,-4.2114373 2.27495,0 4.12787,1.8877113 4.12787,4.2114373 0,2.323755 -1.85046,4.211466 -4.12787,4.211466 z M 99.766949,6.6628809 h -3.758044 c -0.455099,0 -0.827104,0.3795724 -0.827104,0.8438102 V 17.583946 c 0,0.464237 0.372005,0.843838 0.827104,0.843838 0.454824,0 0.827103,-0.379601 0.827103,-0.843838 v -1.836427 h 2.956087 c 2.428555,0 4.427165,-2.036461 4.427165,-4.539753 0,-2.5032928 -1.99615,-4.5423195 -4.452311,-4.5423195 z m 0.01777,7.3969901 H 96.836008 V 8.3505292 h 2.930941 c 1.543781,0 2.798101,1.2798541 2.798101,2.8546708 0,1.574817 -1.24694,2.844408 -2.780335,2.854671 z"
       fill="#001f4c"
       id="path98"
       style="stroke-width:0.276088;fill:#ffffff" />
    <path
       d="m 21.5941,20.5974 c -0.1155,0 -0.226,0.0226 -0.3264,0.0603 -0.0854,0.0326 -0.1758,0.0527 -0.2687,0.0602 -0.0175,0 -0.0351,0 -0.0502,0 -0.6603,0 -1.2353,-0.3716 -1.5266,-0.9165 l -0.005,-0.0075 c -0.0402,-0.0753 -0.0653,-0.1557 -0.0804,-0.2385 -0.0803,-0.4595 -0.477,-0.806 -0.9591,-0.806 -0.113,0 -0.221,0.0201 -0.3214,0.0577 -0.0904,0.0327 -0.1833,0.0553 -0.2762,0.0628 -0.0176,0 -0.0352,0 -0.0502,0 -0.678,0 -1.2555,-0.3766 -1.5392,-0.9416 -0.0327,-0.0678 -0.0553,-0.1406 -0.0678,-0.2134 -0.0778,-0.462 -0.4771,-0.816 -0.9617,-0.816 -0.1105,0 -0.2184,0.02 -0.3164,0.0552 -0.0803,0.0276 -0.1606,0.0477 -0.246,0.0527 -0.0276,0 -0.0553,0.0025 -0.0779,0.0025 -0.7206,0 -1.3408,-0.5197 -1.6019,-1.1449 l -0.0352,-0.098 c -0.0401,-0.1406 -0.1079,-0.2686 -0.2008,-0.3741 -0.0728,-0.0828 -0.1406,-0.1707 -0.2009,-0.2636 -0.0552,-0.0854 -0.1155,-0.1833 -0.1456,-0.2486 -0.103,-0.226 -0.1858,-0.472 -0.1858,-0.7005 0,-0.2762 0.0652,-0.5374 0.1807,-0.7684 0.0076,-0.015 0.0176,-0.0326 0.0277,-0.0502 0.0652,-0.118 0.1506,-0.2209 0.2485,-0.3138 0.2034,-0.1884 0.3265,-0.4621 0.3139,-0.7634 -0.0226,-0.5046 -0.4344,-0.9139 -0.9391,-0.934 -0.5599,-0.0226 -1.0194,0.4243 -1.0194,0.9792 0,0.2838 0.1205,0.5399 0.3139,0.7182 0.1079,0.1004 0.2059,0.2159 0.2762,0.3465 0.0125,0.0251 0.0251,0.0477 0.0351,0.0652 0.1005,0.2185 0.1582,0.462 0.1582,0.7207 0,0.2586 -0.0176,0.7181 -0.3791,1.0571 -0.2411,0.2259 -0.4344,0.5172 -0.4018,0.8813 0.0377,0.4193 0.3465,0.7658 0.7558,0.8637 0.2009,0.0477 0.3867,0.0276 0.5549,-0.0351 0.0879,-0.0327 0.1783,-0.0528 0.2712,-0.0578 0.0176,0 0.0326,0 0.0452,0 0.6553,0 1.2328,0.349 1.5266,0.8838 0.0377,0.0678 0.0603,0.1407 0.0678,0.216 0.0552,0.4896 0.4695,0.8688 0.9717,0.8688 0.118,0 0.2285,-0.0226 0.3314,-0.0603 0.0829,-0.0301 0.1683,-0.0527 0.2562,-0.0578 0.0251,0 0.0452,-0.0025 0.0627,-0.0025 0.6278,0 1.1801,0.339 1.484,0.8437 0,0.0025 0.005,0.0075 0.0075,0.0125 0.0552,0.0955 0.0954,0.2009 0.1155,0.3089 0.0803,0.4595 0.4796,0.806 0.9592,0.806 0.1205,0 0.2335,-0.0226 0.3389,-0.0628 0.098,-0.0377 0.2009,-0.0552 0.3064,-0.0577 0.005,0 0.01,0 0.015,0 0.6227,0 1.1575,0.3214 1.4589,0.811 0.0025,0.005 0.005,0.0075 0.0075,0.0125 0.0653,0.1105 0.1105,0.231 0.1356,0.3566 0.0904,0.4645 0.5047,0.811 0.9993,0.7884 0.5047,-0.0226 0.914,-0.4344 0.9366,-0.9391 0.0226,-0.5599 -0.4244,-1.0194 -0.9793,-1.0194 z M 11.9448,9.60723 c 0.5398,0 0.9792,-0.4394 0.9792,-0.97924 0,-0.53985 -0.4394,-0.97925 -0.9792,-0.97925 -0.5399,0 -0.9793,0.4394 -0.9793,0.97925 0,0.53984 0.4394,0.97924 0.9793,0.97924 z m 0,-3.69854 c 0.5398,0 0.9792,-0.43941 0.9792,-0.97925 0,-0.53984 -0.4394,-0.97924 -0.9792,-0.97924 -0.5399,0 -0.9793,0.4394 -0.9793,0.97924 0,0.53984 0.4394,0.97925 0.9793,0.97925 z"
       fill="#ff9800"
       id="path2" />
    <path
       d="m 24.9406,18.5131 c -0.1908,-0.02 -0.3741,0.0051 -0.5398,0.0653 -0.0803,0.0302 -0.1632,0.0553 -0.2461,0.0753 -0.0828,0.0201 -0.1782,0.0377 -0.2485,0.0377 -0.4319,0 -0.806,-0.2461 -0.9893,-0.6076 C 22.8892,18.031 22.8616,17.9381 22.839,17.8603 22.8215,17.8 22.8064,17.7373 22.7963,17.6745 22.6984,17.097 22.1988,16.6576 21.5936,16.6576 c -0.1657,0 -0.3239,0.0351 -0.467,0.0929 -0.0251,0.01 -0.0477,0.0201 -0.0728,0.0301 -0.1155,0.0402 -0.236,0.0628 -0.3666,0.0628 -0.4545,0 -0.8437,-0.2737 -1.0169,-0.6629 -0.0477,-0.1079 -0.0904,-0.349 -0.0904,-0.349 -0.0929,-0.58 -0.5951,-1.0244 -1.2027,-1.0244 -0.1482,0 -0.2888,0.0276 -0.4193,0.0753 0,0 -0.3114,0.1054 -0.4821,0.1054 -0.4696,0 -0.8713,-0.2937 -1.032,-0.7055 -0.0402,-0.103 -0.0829,-0.334 -0.0829,-0.334 -0.0527,-0.2787 -0.2008,-0.5222 -0.4092,-0.698 -0.0578,-0.0502 -0.1155,-0.1029 -0.1658,-0.1607 -0.0577,-0.0653 -0.1255,-0.1456 -0.1607,-0.2059 -0.0954,-0.1632 -0.1481,-0.3515 -0.1481,-0.5524 0,-0.236 0.0728,-0.4544 0.1984,-0.6352 0.0276,-0.0377 0.0728,-0.0904 0.1155,-0.1356 0.0502,-0.0527 0.1029,-0.1005 0.1581,-0.1456 0.2662,-0.2235 0.4369,-0.5575 0.4369,-0.9341 0,-0.3766 -0.1707,-0.71058 -0.4369,-0.93405 C 15.8889,9.49653 15.8336,9.44631 15.7784,9.38856 15.7583,9.36596 15.7382,9.34588 15.7232,9.3283 15.57,9.13747 15.4771,8.89392 15.4771,8.63027 c 0,-0.19836 0.0527,-0.38668 0.1456,-0.54737 0.0377,-0.0678 0.1155,-0.15819 0.1783,-0.22598 0.0452,-0.05022 0.0954,-0.09793 0.1481,-0.14061 0.2863,-0.23854 0.4595,-0.60764 0.4344,-1.0144 -0.0401,-0.62019 -0.5499,-1.11484 -1.17,-1.13995 -0.6956,-0.02762 -1.2706,0.5298 -1.2706,1.2203 0,0.37412 0.1708,0.71058 0.4369,0.93405 0.0528,0.04519 0.1055,0.0929 0.1532,0.14312 0.0527,0.05524 0.113,0.12554 0.1456,0.17827 0.108,0.17074 0.1733,0.37664 0.1733,0.59508 0,0.26365 -0.0929,0.5072 -0.2486,0.69803 -0.0151,0.01758 -0.0326,0.03766 -0.0527,0.06026 -0.0528,0.05524 -0.1105,0.10797 -0.1708,0.15819 -0.2661,0.22347 -0.4369,0.55744 -0.4369,0.93404 0,0.3766 0.1708,0.7131 0.4394,0.9366 0.0553,0.0452 0.1055,0.0929 0.1557,0.1431 0.0352,0.0377 0.0703,0.0778 0.0929,0.108 0.1381,0.1858 0.221,0.4143 0.221,0.6628 0,0.231 -0.0703,0.4445 -0.1908,0.6227 -0.0277,0.0427 -0.0804,0.1005 -0.1231,0.1482 -0.0477,0.0527 -0.1004,0.1004 -0.1557,0.1456 -0.2862,0.2385 -0.4594,0.6051 -0.4343,1.0144 0.0401,0.6152 0.5423,1.1098 1.1575,1.14 0.1833,0.01 0.359,-0.0226 0.5197,-0.0879 0.1055,-0.0427 0.2135,-0.0754 0.3265,-0.0879 0.0452,-0.005 0.0903,-0.01 0.123,-0.01 0.3842,0 0.7231,0.1958 0.924,0.4946 0.0176,0.0276 0.0377,0.0653 0.0577,0.108 0.0603,0.128 0.1005,0.2661 0.1231,0.4067 0.0904,0.5826 0.5951,1.0295 1.2052,1.0295 0.1557,0 0.3013,-0.0301 0.4369,-0.0829 0.0954,-0.0376 0.1933,-0.0652 0.2938,-0.0803 0.0627,-0.0101 0.128,-0.0151 0.1732,-0.0151 0.3993,0 0.7508,0.2109 0.9466,0.5298 0.0277,0.0427 0.0553,0.1105 0.0804,0.1733 0.0402,0.1004 0.0653,0.2059 0.0828,0.3138 0.098,0.575 0.5976,1.0119 1.2028,1.0119 0.1531,0 0.3013,-0.0301 0.4369,-0.0803 0.1129,-0.0427 0.231,-0.0728 0.3515,-0.0904 0.0427,-0.0076 0.0853,-0.0101 0.118,-0.0101 0.4444,0 0.8261,0.2612 1.0043,0.6378 0.0201,0.0427 0.0402,0.108 0.0578,0.1682 0.0201,0.0678 0.0326,0.1381 0.0452,0.2084 0.0954,0.5775 0.5976,1.0195 1.2052,1.0195 0.7031,0 1.268,-0.5951 1.2178,-1.3082 -0.0402,-0.5876 -0.5047,-1.0646 -1.0872,-1.1274 m -9.79,-14.22671 c 0.6729,0 1.2203,-0.54738 1.2203,-1.2203 0,-0.67292 -0.5474,-1.22029 -1.2203,-1.22029 -0.6729,0 -1.2203,0.54737 -1.2203,1.22029 0,0.67292 0.5474,1.2203 1.2203,1.2203 z"
       fill="#ff9800"
       id="path4" />
    <path
       d="m 8.72816,14.9145 c 0.40174,0 0.72816,-0.3314 0.72816,-0.7382 0,-0.4068 -0.32642,-0.7382 -0.72816,-0.7382 C 8.32642,13.4381 8,13.7695 8,14.1763 c 0,0.4068 0.32642,0.7382 0.72816,0.7382 z m 0,-3.6985 c 0.40174,0 0.72816,-0.3315 0.72816,-0.7382 C 9.45632,10.071 9.1299,9.73956 8.72816,9.73956 8.32642,9.73956 8,10.071 8,10.4778 8,10.8845 8.32642,11.216 8.72816,11.216 Z m 0,-3.69858 c 0.40174,0 0.72816,-0.33144 0.72816,-0.7382 0,-0.40677 -0.32642,-0.7382 -0.72816,-0.7382 C 8.32642,6.04102 8,6.37245 8,6.77922 8,7.18598 8.32642,7.51742 8.72816,7.51742 Z M 18.3775,22.6882 c -0.0276,0 -0.2536,0.0151 -0.3364,0.0151 -0.9241,0 -1.7225,-0.5097 -2.1243,-1.258 -0.0301,-0.0552 -0.0979,-0.1807 -0.0979,-0.1807 -0.1155,-0.2511 -0.3666,-0.4269 -0.6578,-0.4269 -0.0251,0 -0.2486,0.0226 -0.339,0.0226 -0.8914,0 -1.6672,-0.4771 -2.0815,-1.1826 -0.0503,-0.0854 -0.1432,-0.2737 -0.1432,-0.2737 -0.118,-0.2461 -0.364,-0.4168 -0.6528,-0.4168 -0.0201,0 -0.2536,0.0201 -0.3515,0.0201 -0.9341,0 -1.74006,-0.5223 -2.13678,-1.2831 C 9.43623,17.6865 9.41865,17.6489 9.40359,17.6087 9.29813,17.3325 9.037,17.1366 8.72816,17.1366 8.32642,17.1366 8,17.4681 8,17.8748 c 0,0.4068 0.32642,0.7382 0.72816,0.7382 0.03264,0 0.26364,-0.0175 0.34399,-0.0175 0.84868,0 1.59445,0.4318 2.01875,1.0822 0.0703,0.1079 0.1883,0.344 0.1883,0.344 0.113,0.2586 0.3666,0.4394 0.6654,0.4394 0.0276,0 0.2561,-0.0126 0.339,-0.0126 0.9039,0 1.6873,0.4871 2.0966,1.2077 0.0401,0.0704 0.123,0.226 0.123,0.226 0.1155,0.2536 0.3666,0.4294 0.6604,0.4294 0.0251,0 0.2511,-0.0151 0.3364,-0.0151 0.8814,0 1.6522,0.4645 2.069,1.1575 0.0552,0.0904 0.1557,0.2913 0.1557,0.2913 0.118,0.2461 0.3641,0.4193 0.6528,0.4193 0.4018,0 0.7282,-0.3314 0.7282,-0.7382 0,-0.4067 -0.3264,-0.7382 -0.7282,-0.7382 z"
       fill="#ff9800"
       id="path6" />
    <path
       d="m 18.3765,2.44059 c 0.673,0 1.2203,-0.54738 1.2203,-1.2203 C 19.5968,0.547374 19.0495,0 18.3765,0 c -0.6729,0 -1.2203,0.547374 -1.2203,1.22029 0,0.67292 0.5474,1.2203 1.2203,1.2203 z"
       fill="#ff6633"
       id="path8" />
    <path
       d="m 18.3765,6.14176 c 0.673,0 1.2203,-0.54738 1.2203,-1.22029 0,-0.67292 -0.5473,-1.2203 -1.2203,-1.2203 -0.6729,0 -1.2203,0.54738 -1.2203,1.2203 0,0.67291 0.5474,1.22029 1.2203,1.22029 z"
       fill="#ff6633"
       id="path10" />
    <path
       d="m 18.3765,9.84 c 0.673,0 1.2203,-0.54737 1.2203,-1.22029 0,-0.67292 -0.5473,-1.2203 -1.2203,-1.2203 -0.6729,0 -1.2203,0.54738 -1.2203,1.2203 0,0.67292 0.5474,1.22029 1.2203,1.22029 z"
       fill="#ff6633"
       id="path12" />
    <path
       d="m 18.3765,13.5382 c 0.673,0 1.2203,-0.5473 1.2203,-1.2203 0,-0.6729 -0.5473,-1.2202 -1.2203,-1.2202 -0.6729,0 -1.2203,0.5473 -1.2203,1.2202 0,0.673 0.5474,1.2203 1.2203,1.2203 z"
       fill="#ff6633"
       id="path14" />
    <path
       d="m 21.5933,4.29117 c 0.673,0 1.2203,-0.54737 1.2203,-1.22029 0,-0.67292 -0.5473,-1.22029 -1.2203,-1.22029 -0.6729,0 -1.2203,0.54737 -1.2203,1.22029 0,0.67292 0.5474,1.22029 1.2203,1.22029 z"
       fill="#ff6633"
       id="path16" />
    <path
       d="m 21.5933,7.99039 c 0.673,0 1.2203,-0.54737 1.2203,-1.22029 0,-0.67292 -0.5473,-1.2203 -1.2203,-1.2203 -0.6729,0 -1.2203,0.54738 -1.2203,1.2203 0,0.67292 0.5474,1.22029 1.2203,1.22029 z"
       fill="#ff6633"
       id="path18" />
    <path
       d="m 21.5933,11.6906 c 0.673,0 1.2203,-0.5474 1.2203,-1.2203 0,-0.67293 -0.5473,-1.2203 -1.2203,-1.2203 -0.6729,0 -1.2203,0.54737 -1.2203,1.2203 0,0.6729 0.5474,1.2203 1.2203,1.2203 z"
       fill="#ff6633"
       id="path20" />
    <path
       d="m 21.5933,15.3898 c 0.673,0 1.2203,-0.5474 1.2203,-1.2203 0,-0.6729 -0.5473,-1.2203 -1.2203,-1.2203 -0.6729,0 -1.2203,0.5474 -1.2203,1.2203 0,0.6729 0.5474,1.2203 1.2203,1.2203 z"
       fill="#ff6633"
       id="path22" />
    <path
       d="m 24.8121,6.14176 c 0.6729,0 1.2203,-0.54738 1.2203,-1.22029 0,-0.67292 -0.5474,-1.2203 -1.2203,-1.2203 -0.6729,0 -1.2203,0.54738 -1.2203,1.2203 0,0.67291 0.5474,1.22029 1.2203,1.22029 z"
       fill="#ff6633"
       id="path24" />
    <path
       d="m 24.8121,9.84 c 0.6729,0 1.2203,-0.54737 1.2203,-1.22029 0,-0.67292 -0.5474,-1.2203 -1.2203,-1.2203 -0.6729,0 -1.2203,0.54738 -1.2203,1.2203 0,0.67292 0.5474,1.22029 1.2203,1.22029 z"
       fill="#ff6633"
       id="path26" />
    <path
       d="m 24.8121,13.5382 c 0.6729,0 1.2203,-0.5473 1.2203,-1.2203 0,-0.6729 -0.5474,-1.2202 -1.2203,-1.2202 -0.6729,0 -1.2203,0.5473 -1.2203,1.2202 0,0.673 0.5474,1.2203 1.2203,1.2203 z"
       fill="#ff6633"
       id="path28" />
    <path
       d="m 24.8121,17.2394 c 0.6729,0 1.2203,-0.5474 1.2203,-1.2203 0,-0.6729 -0.5474,-1.2203 -1.2203,-1.2203 -0.6729,0 -1.2203,0.5474 -1.2203,1.2203 0,0.6729 0.5474,1.2203 1.2203,1.2203 z"
       fill="#ff6633"
       id="path30" />
    <path
       d="m 28.0279,7.99039 c 0.6729,0 1.2203,-0.54737 1.2203,-1.22029 0,-0.67292 -0.5474,-1.2203 -1.2203,-1.2203 -0.6729,0 -1.2203,0.54738 -1.2203,1.2203 0,0.67292 0.5474,1.22029 1.2203,1.22029 z"
       fill="#ff6633"
       id="path32" />
    <path
       d="m 28.0279,11.6906 c 0.6729,0 1.2203,-0.5474 1.2203,-1.2203 0,-0.67293 -0.5474,-1.2203 -1.2203,-1.2203 -0.6729,0 -1.2203,0.54737 -1.2203,1.2203 0,0.6729 0.5474,1.2203 1.2203,1.2203 z"
       fill="#ff6633"
       id="path34" />
    <path
       d="m 28.0279,15.3898 c 0.6729,0 1.2203,-0.5474 1.2203,-1.2203 0,-0.6729 -0.5474,-1.2203 -1.2203,-1.2203 -0.6729,0 -1.2203,0.5474 -1.2203,1.2203 0,0.6729 0.5474,1.2203 1.2203,1.2203 z"
       fill="#ff6633"
       id="path36" />
    <path
       d="m 28.0279,19.088 c 0.6729,0 1.2203,-0.5473 1.2203,-1.2202 0,-0.673 -0.5474,-1.2203 -1.2203,-1.2203 -0.6729,0 -1.2203,0.5473 -1.2203,1.2203 0,0.6729 0.5474,1.2202 1.2203,1.2202 z"
       fill="#ff6633"
       id="path38" />
    <path
       d="M 144.184,6.8 V 18 h -1.168 v -5.168 h -7.008 V 18 h -1.184 V 6.8 h 1.184 v 4.992 h 7.008 V 6.8 Z m 8.168,11.296 c -1.451,0 -2.582,-0.416 -3.392,-1.248 -0.811,-0.832 -1.216,-2.0427 -1.216,-3.632 V 6.8 h 1.184 v 6.368 c 0,1.3013 0.293,2.272 0.88,2.912 0.586,0.64 1.434,0.96 2.544,0.96 1.12,0 1.973,-0.32 2.56,-0.96 0.586,-0.64 0.88,-1.6107 0.88,-2.912 V 6.8 h 1.152 v 6.416 c 0,1.5893 -0.406,2.8 -1.216,3.632 -0.8,0.832 -1.926,1.248 -3.376,1.248 z m 15.216,-5.872 c 0.736,0.16 1.301,0.48 1.696,0.96 0.405,0.4693 0.608,1.0773 0.608,1.824 0,0.96 -0.358,1.7013 -1.072,2.224 -0.704,0.512 -1.75,0.768 -3.136,0.768 h -5.152 V 6.8 h 4.832 c 1.248,0 2.213,0.25067 2.896,0.752 0.693,0.50133 1.04,1.21067 1.04,2.128 0,0.6187 -0.155,1.1467 -0.464,1.584 -0.299,0.4267 -0.715,0.7467 -1.248,0.96 z m -5.872,-4.448 v 4.064 h 3.568 c 0.906,0 1.605,-0.1707 2.096,-0.512 0.49,-0.352 0.735,-0.8587 0.735,-1.52 0,-0.66133 -0.245,-1.16267 -0.735,-1.504 -0.491,-0.352 -1.19,-0.528 -2.096,-0.528 z m 3.952,9.248 c 1.002,0 1.76,-0.1707 2.272,-0.512 0.512,-0.3413 0.768,-0.8747 0.768,-1.6 0,-1.3973 -1.014,-2.096 -3.04,-2.096 h -3.952 v 4.208 z"
       fill="url(#paint0_linear_12737_80959)"
       id="path44"
       style="fill:url(#paint0_linear_12737_80959)" />
  </g>
  <defs
     id="defs54">
    <linearGradient
       id="paint0_linear_12737_80959"
       x1="152"
       y1="0"
       x2="152"
       y2="24"
       gradientUnits="userSpaceOnUse">
      <stop
         stop-color="#FF9900"
         id="stop46" />
      <stop
         offset="1"
         stop-color="#FF6633"
         id="stop48" />
    </linearGradient>
    <clipPath
       id="clip0_12737_80959">
      <rect
         width="117"
         height="24.164801"
         fill="#ffffff"
         transform="translate(8)"
         id="rect51"
         x="0"
         y="0" />
    </clipPath>
    <clipPath
       id="clip0_2617_239002">
      <rect
         width="428.56201"
         height="88.513802"
         fill="#ffffff"
         transform="translate(0,0.742962)"
         id="rect104"
         x="0"
         y="0" />
    </clipPath>
  </defs>
</svg>
