<svg width="512" height="512" viewBox="0 0 512 512" fill="none" xmlns="http://www.w3.org/2000/svg">
<g clip-path="url(#clip0_903_1003)">
<path fill-rule="evenodd" clip-rule="evenodd" d="M82 0C36.7127 0 0 36.7126 0 82V345C0 390.287 36.7127 427 82 427H234V468H130C117.85 468 108 477.85 108 490C108 502.15 117.85 512 130 512H382C394.15 512 404 502.15 404 490C404 477.85 394.15 468 382 468H278V427H430C475.287 427 512 390.287 512 345V82C512 36.7127 475.287 0 430 0H82ZM44 82C44 61.0132 61.0132 44 82 44H430C450.987 44 468 61.0132 468 82V299L44 299V82ZM44 343V345C44 365.987 61.0132 383 82 383H430C450.987 383 468 365.987 468 345V343L44 343Z" fill="#BCBCCF"/>
</g>
<defs>
<clipPath id="clip0_903_1003">
<rect width="512" height="512" fill="white"/>
</clipPath>
</defs>
</svg>
