<svg width="512" height="513" viewBox="0 0 512 513" fill="none" xmlns="http://www.w3.org/2000/svg">
<g clip-path="url(#clip0_968_768)">
<path fill-rule="evenodd" clip-rule="evenodd" d="M72 0.271973C32.2355 0.271973 0 32.5075 0 72.272V148.272C0 188.036 32.2355 220.272 72 220.272H149C188.765 220.272 221 188.036 221 148.272V72.272C221 32.5075 188.764 0.271973 149 0.271973H72ZM72 291.272C32.2355 291.272 0 323.507 0 363.272V439.272C0 479.036 32.2355 511.272 72 511.272H149C188.765 511.272 221 479.036 221 439.272V363.272C221 323.507 188.764 291.272 149 291.272H72ZM291 72.272C291 32.5075 323.236 0.271973 363 0.271973H440C479.764 0.271973 512 32.5075 512 72.272V148.272C512 188.036 479.765 220.272 440 220.272H363C323.236 220.272 291 188.036 291 148.272V72.272ZM363 291.272C323.236 291.272 291 323.507 291 363.272V439.272C291 479.036 323.236 511.272 363 511.272H440C479.765 511.272 512 479.036 512 439.272V363.272C512 323.507 479.764 291.272 440 291.272H363Z" fill="#989898"/>
</g>
<defs>
<clipPath id="clip0_968_768">
<rect width="512" height="512" fill="white" transform="translate(0 0.225098)"/>
</clipPath>
</defs>
</svg>
