<svg width="512" height="512" viewBox="0 0 512 512" fill="none" xmlns="http://www.w3.org/2000/svg">
<path fill-rule="evenodd" clip-rule="evenodd" d="M492.025 197.717C498.633 188.866 496.815 176.334 487.964 169.726L267.3 4.98383C260.183 -0.330017 250.413 -0.312836 243.314 5.026L80.8054 127.243V68.3509C80.8054 57.3052 71.8511 48.3509 60.8054 48.3509C49.7597 48.3509 40.8054 57.3052 40.8054 68.3509L40.8054 151.835C40.8054 153.567 41.0254 155.247 41.4391 156.849L24.2613 169.768C15.4335 176.407 13.6592 188.946 20.2983 197.774C25.406 204.565 34.0055 207.182 41.7207 205.004L41.7207 357.762C41.7207 442.398 110.332 511.009 194.968 511.009L316.102 511.009C400.738 511.009 469.35 442.398 469.35 357.762L469.35 204.62C477.386 207.455 486.659 204.905 492.025 197.717ZM81.7207 176.605L255.379 46.0019L429.35 175.884L429.35 357.762C429.35 411.339 392.144 456.227 342.159 467.997V361.395C342.159 323.589 311.511 292.941 273.706 292.941L238.577 292.941C200.771 292.941 170.123 323.589 170.123 361.394V468.275C119.529 456.95 81.7207 411.771 81.7207 357.762L81.7207 176.605ZM210.123 471.009L302.159 471.009V361.395C302.159 345.68 289.42 332.941 273.706 332.941L238.577 332.941C222.862 332.941 210.123 345.68 210.123 361.394V471.009Z" fill="#BCBCCF"/>
</svg>
