<svg width="512" height="512" viewBox="0 0 512 512" fill="none" xmlns="http://www.w3.org/2000/svg">
<g clip-path="url(#clip0_840_333)">
<path fill-rule="evenodd" clip-rule="evenodd" d="M196.86 279.661L196.174 92.3648C196.13 80.2146 186.244 70.401 174.094 70.4455C161.944 70.49 152.13 80.3758 152.175 92.5259L153.08 339.652C153.124 351.771 162.961 361.571 175.08 361.571L421.3 361.571C433.451 361.571 443.3 351.721 443.3 339.571C443.3 327.421 433.451 317.571 421.3 317.571L221.175 317.571L501.556 37.1903C510.148 28.5988 510.148 14.6692 501.556 6.07764C492.965 -2.5139 479.035 -2.5139 470.443 6.07764L196.86 279.661ZM25 72.4296C37.1503 72.4296 47 82.2793 47 94.4296V467.43H421C433.15 467.43 443 477.279 443 489.43C443 501.58 433.15 511.43 421 511.43H25C12.8497 511.43 3 501.58 3 489.43V94.4296C3 82.2793 12.8497 72.4296 25 72.4296Z" fill="#BCBCCF"/>
</g>
<defs>
<clipPath id="clip0_840_333">
<rect width="512" height="512" fill="white" transform="translate(0 0.0090332)"/>
</clipPath>
</defs>
</svg>
