<svg width="512" height="512" viewBox="0 0 512 512" fill="none" xmlns="http://www.w3.org/2000/svg">
<g clip-path="url(#clip0_837_368)">
<path fill-rule="evenodd" clip-rule="evenodd" d="M281 179.246V22.0266C281 9.87634 271.15 0.0266113 259 0.0266113C246.85 0.0265976 237 9.87634 237 22.0266V178.786L172.294 116.212C163.559 107.765 149.632 107.999 141.185 116.733C132.739 125.467 132.972 139.395 141.706 147.841L244.08 246.841C252.631 255.11 266.205 255.085 274.725 246.785L376.351 147.785C385.055 139.307 385.237 125.378 376.759 116.675C368.28 107.972 354.352 107.79 345.649 116.268L281 179.246ZM426.56 286.027C473.195 286.027 511 323.832 511 370.467V427.587C511 474.221 473.195 512.027 426.56 512.027H86.44C39.8051 512.027 2 474.221 2 427.587V370.467C2 323.832 39.8051 286.027 86.44 286.027H426.56ZM467 370.467C467 348.132 448.894 330.027 426.56 330.027H86.44C64.1056 330.027 46 348.132 46 370.467V427.587C46 449.921 64.1056 468.027 86.44 468.027H426.56C448.894 468.027 467 449.921 467 427.587V370.467ZM184 391.027C184 381.085 192.059 373.027 202 373.027H219C228.941 373.027 237 381.085 237 391.027V407.027C237 416.968 228.941 425.027 219 425.027H202C192.059 425.027 184 416.968 184 407.027V391.027ZM86 391.027C86 381.085 94.0589 373.027 104 373.027H122C131.941 373.027 140 381.085 140 391.027V407.027C140 416.968 131.941 425.027 122 425.027H104C94.0589 425.027 86 416.968 86 407.027V391.027Z" fill="#BCBCCF"/>
</g>
<defs>
<clipPath id="clip0_837_368">
<rect width="512" height="512" fill="white" transform="translate(0 0.0090332)"/>
</clipPath>
</defs>
</svg>
