<svg width="512" height="513" viewBox="0 0 512 513" fill="none" xmlns="http://www.w3.org/2000/svg">
<g clip-path="url(#clip0_260_1237)">
<path fill-rule="evenodd" clip-rule="evenodd" d="M-0.5 285.372C-0.5 411.081 101.407 512.987 227.115 512.987H283.885C409.593 512.987 511.5 411.081 511.5 285.372L511.5 228.602C511.5 102.894 409.593 0.987305 283.885 0.987305L227.115 0.987305C101.407 0.987305 -0.5 102.894 -0.5 228.602L-0.5 285.372ZM227.115 472.987C123.498 472.987 39.5 388.989 39.5 285.372L39.5 228.602C39.5 124.985 123.498 40.9873 227.115 40.9873L283.885 40.9873C387.502 40.9873 471.5 124.985 471.5 228.602L471.5 285.372C471.5 388.989 387.502 472.987 283.885 472.987L227.115 472.987ZM255.5 402.287C266.546 402.287 275.5 393.332 275.5 382.287L275.5 211.369C275.5 200.323 266.546 191.369 255.5 191.369C244.454 191.369 235.5 200.323 235.5 211.369L235.5 382.287C235.5 393.332 244.454 402.287 255.5 402.287ZM275.5 136.554C275.5 147.6 266.546 156.554 255.5 156.554C244.454 156.554 235.5 147.6 235.5 136.554V131.688C235.5 120.642 244.454 111.688 255.5 111.688C266.546 111.688 275.5 120.642 275.5 131.688V136.554Z" fill="#BCBCCF"/>
</g>
<defs>
<clipPath id="clip0_260_1237">
<rect width="512" height="512" fill="white" transform="translate(0 0.987305)"/>
</clipPath>
</defs>
</svg>
