<svg width="512" height="513" viewBox="0 0 512 513" fill="none" xmlns="http://www.w3.org/2000/svg">
<path fill-rule="evenodd" clip-rule="evenodd" d="M279.086 124.648C272.417 118.559 264.587 115.514 255.598 115.514C246.319 115.514 238.489 118.704 232.11 125.083C225.44 131.463 222.105 139.002 222.105 147.702C222.105 156.691 225.44 164.231 232.11 170.32C238.779 176.7 246.754 179.889 256.033 179.889C265.022 179.889 272.852 176.7 279.521 170.32C285.901 163.941 289.09 156.256 289.09 147.267C289.09 138.567 285.756 131.028 279.086 124.648ZM282.918 237.119C282.814 221.817 270.325 209.497 255.023 209.601C239.721 209.705 227.401 222.194 227.505 237.496L229.456 359.262C229.56 374.564 242.049 386.884 257.351 386.78C272.652 386.676 284.972 374.187 284.868 358.885L282.918 237.119Z" fill="#BCBCCF"/>
</svg>
