<svg width="512" height="513" viewBox="0 0 512 513" fill="none" xmlns="http://www.w3.org/2000/svg">
<g clip-path="url(#clip0_352_40)">
<path fill-rule="evenodd" clip-rule="evenodd" d="M234.63 41.4988C243.95 17.1029 267.358 0.988281 293.473 0.988281C331.106 0.988281 360.343 33.7693 356.056 71.157L343.495 180.693C343.21 183.174 345.15 185.349 347.647 185.349L442.635 185.349C488.451 185.349 521.297 229.536 508.093 273.408L450.608 464.406C441.914 493.291 415.315 513.063 385.15 513.063H49.559C23.2789 513.063 2.00424 491.703 2.10977 465.423L3.04459 232.608C3.14952 206.477 24.3625 185.349 50.4939 185.349L176.793 185.349C178.526 185.349 180.079 184.28 180.697 182.661L234.63 41.4988ZM293.473 40.9883C283.941 40.9883 275.397 46.8702 271.995 55.7747L218.063 196.937C211.526 214.047 195.11 225.349 176.793 225.349H139.272L139.272 473.063L385.15 473.063C397.664 473.063 408.699 464.861 412.305 452.878L469.79 261.88C475.268 243.68 461.641 225.349 442.635 225.349L347.647 225.349C321.253 225.349 300.748 202.358 303.755 176.136L316.316 66.6C317.881 52.9534 307.209 40.9883 293.473 40.9883ZM99.2718 473.063L99.2718 225.349H50.4939C46.3912 225.349 43.0607 228.666 43.0443 232.769L42.1094 465.584C42.0929 469.71 45.433 473.063 49.559 473.063H99.2718Z" fill="#BCBCCF"/>
</g>
<defs>
<clipPath id="clip0_352_40">
<rect width="512" height="512" fill="white" transform="translate(0 0.988281)"/>
</clipPath>
</defs>
</svg>
