<svg width="512" height="513" viewBox="0 0 512 513" fill="none" xmlns="http://www.w3.org/2000/svg">
<g clip-path="url(#clip0_260_1883)">
<path fill-rule="evenodd" clip-rule="evenodd" d="M67.823 445.164C35.9496 413.291 35.9496 361.614 67.823 329.741L139.783 257.781C148.374 249.189 148.374 235.26 139.783 226.668C131.191 218.077 117.262 218.077 108.67 226.668L36.7103 298.628C-12.3461 347.684 -12.3461 427.221 36.7103 476.277C85.7667 525.333 165.303 525.333 214.359 476.277L286.319 404.317C294.911 395.726 294.911 381.796 286.319 373.204C277.728 364.613 263.798 364.613 255.206 373.204L183.247 445.164C151.373 477.038 99.6963 477.038 67.823 445.164ZM224.678 110.66C216.086 119.252 216.086 133.181 224.678 141.773C233.27 150.365 247.199 150.365 255.791 141.773L327.751 69.8132C359.624 37.9399 411.301 37.9399 443.174 69.8132C475.047 101.687 475.047 153.363 443.174 185.237L371.214 257.197C362.623 265.788 362.623 279.718 371.214 288.309C379.806 296.901 393.735 296.901 402.327 288.309L474.287 216.349C523.343 167.293 523.343 87.7569 474.287 38.7005C425.23 -10.3559 345.694 -10.3559 296.638 38.7005L224.678 110.66ZM150.104 335.259C141.513 343.851 141.513 357.781 150.104 366.372C158.696 374.964 172.625 374.964 181.217 366.372L364.387 183.202C372.979 174.61 372.979 160.681 364.387 152.089C355.796 143.498 341.866 143.498 333.275 152.089L150.104 335.259Z" fill="#BCBCCF"/>
</g>
<defs>
<clipPath id="clip0_260_1883">
<rect width="512" height="512" fill="white" transform="translate(0 0.988281)"/>
</clipPath>
</defs>
</svg>
