<svg width="512" height="514" viewBox="0 0 512 514" fill="none" xmlns="http://www.w3.org/2000/svg">
<path fill-rule="evenodd" clip-rule="evenodd" d="M56.2946 0.988281C25.7562 0.988281 1 25.7445 1 56.2828V73.3216C1 103.86 25.7562 128.616 56.2946 128.616H72.1163C102.655 128.616 127.411 103.86 127.411 73.3216V56.2829C127.411 25.7445 102.655 0.988281 72.1163 0.988281H56.2946ZM202.342 44.8014C191.296 44.8014 182.342 53.7557 182.342 64.8014C182.342 75.8471 191.296 84.8014 202.342 84.8014H492.001C503.046 84.8014 512.001 75.8471 512.001 64.8014C512.001 53.7557 503.046 44.8014 492.001 44.8014H202.342ZM202.342 237.097C191.296 237.097 182.342 246.051 182.342 257.097C182.342 268.142 191.296 277.097 202.342 277.097H492.001C503.046 277.097 512.001 268.142 512.001 257.097C512.001 246.051 503.046 237.097 492.001 237.097H202.342ZM182.342 449.392C182.342 438.347 191.296 429.392 202.342 429.392H492.001C503.046 429.392 512.001 438.347 512.001 449.392C512.001 460.438 503.046 469.392 492.001 469.392H202.342C191.296 469.392 182.342 460.438 182.342 449.392ZM1 248.578C1 218.04 25.7562 193.284 56.2946 193.284H72.1163C102.655 193.284 127.411 218.04 127.411 248.578V265.617C127.411 296.155 102.655 320.912 72.1163 320.912H56.2946C25.7562 320.912 1 296.155 1 265.617V248.578ZM56.2946 385.577C25.7562 385.577 1 410.333 1 440.872V457.91C1 488.449 25.7562 513.205 56.2946 513.205H72.1163C102.655 513.205 127.411 488.449 127.411 457.91V440.872C127.411 410.333 102.655 385.577 72.1163 385.577H56.2946Z" fill="#BCBCCF"/>
</svg>
