<svg width="512" height="513" viewBox="0 0 512 513" fill="none" xmlns="http://www.w3.org/2000/svg">
<g clip-path="url(#clip0_260_2223)">
<path fill-rule="evenodd" clip-rule="evenodd" d="M224 0.767578C187.549 0.767578 158 30.3168 158 66.7676V120.768C158 121.925 158.089 123.061 158.261 124.17C78.2169 138.532 21.5861 215.243 35.4735 298.714L52.7295 402.431C63.3219 466.097 118.399 512.768 182.94 512.768H329.054C393.595 512.768 448.672 466.097 459.264 402.431L476.52 298.714C490.407 215.245 433.78 138.536 353.738 124.171C353.911 123.062 354 121.925 354 120.768V66.7676C354 30.3168 324.451 0.767578 288 0.767578H224ZM310.022 121.768C310.007 121.436 310 121.103 310 120.768V66.7676C310 54.6173 300.15 44.7676 288 44.7676H224C211.85 44.7676 202 54.6173 202 66.7676V120.768C202 121.103 201.993 121.436 201.978 121.768H310.022ZM78.8769 291.492C67.9261 225.672 118.687 165.768 185.412 165.768H326.581C393.306 165.768 444.068 225.672 433.117 291.492L415.861 395.21C408.799 437.654 372.081 468.768 329.054 468.768H182.94C139.912 468.768 103.194 437.654 96.1329 395.21L78.8769 291.492ZM278 353.045C305.341 343.695 325 317.777 325 287.268C325 248.884 293.884 217.768 255.5 217.768C217.116 217.768 186 248.884 186 287.268C186 318.148 206.139 344.324 234 353.378V391.768C234 403.918 243.85 413.768 256 413.768C268.15 413.768 278 403.918 278 391.768V353.045ZM230 287.268C230 273.184 241.417 261.768 255.5 261.768C269.583 261.768 281 273.184 281 287.268C281 301.351 269.583 312.768 255.5 312.768C241.417 312.768 230 301.351 230 287.268Z" fill="#BCBCCF"/>
</g>
<defs>
<clipPath id="clip0_260_2223">
<rect width="512" height="512" fill="white" transform="translate(0 0.988281)"/>
</clipPath>
</defs>
</svg>
