<svg width="512" height="513" viewBox="0 0 512 513" fill="none" xmlns="http://www.w3.org/2000/svg">
<path fill-rule="evenodd" clip-rule="evenodd" d="M128.851 124.576C121.041 132.386 108.377 132.386 100.567 124.576L70.3546 94.3635L40.1421 124.576C32.3316 132.386 19.6683 132.386 11.8579 124.576C4.04738 116.765 4.04738 104.102 11.8579 96.2917L42.0703 66.0792L11.8579 35.8667C4.04738 28.0563 4.04738 15.393 11.8579 7.58247C19.6684 -0.228015 32.3317 -0.228014 40.1421 7.58247L70.3546 37.7949L100.567 7.58258C108.377 -0.227903 121.041 -0.227903 128.851 7.58258C136.662 15.3931 136.662 28.0564 128.851 35.8669L98.6389 66.0792L128.851 96.2916C136.662 104.102 136.662 116.765 128.851 124.576ZM176.077 49.088C165.031 49.088 156.077 58.0423 156.077 69.088C156.077 80.1337 165.031 89.088 176.077 89.088H219.014C248.121 89.088 271.762 112.598 271.925 141.705L272.327 214.009C272.491 243.346 248.754 267.215 219.417 267.215H137.798C86.4848 267.215 44.8868 308.813 44.8868 360.127V419.064C44.8868 470.377 86.4847 511.975 137.798 511.975H286.66C297.705 511.975 306.66 503.021 306.66 491.975C306.66 480.93 297.705 471.975 286.66 471.975H137.798C108.576 471.975 84.8868 448.286 84.8868 419.064V360.127C84.8868 330.904 108.576 307.215 137.798 307.215H219.417C270.932 307.215 312.614 265.301 312.327 213.786L311.924 141.482C311.639 90.3712 270.125 49.088 219.014 49.088H176.077ZM415.512 511.987C408.209 512.003 401.479 508.038 397.954 501.643L335.261 387.913C301.745 327.113 345.727 252.645 415.154 252.645C484.408 252.645 528.408 326.78 495.233 387.572L433.025 501.568C429.527 507.978 422.814 511.972 415.512 511.987ZM415.38 450.398L460.121 368.411C478.75 334.275 454.043 292.645 415.154 292.645C376.168 292.645 351.471 334.461 370.291 368.603L415.38 450.398ZM441.596 347.034C441.596 361.799 429.626 373.768 414.861 373.768C400.096 373.768 388.127 361.799 388.127 347.034C388.127 332.269 400.096 320.3 414.861 320.3C429.626 320.3 441.596 332.269 441.596 347.034Z" fill="#BCBCCF"/>
</svg>
