<svg width="512" height="513" viewBox="0 0 512 513" fill="none" xmlns="http://www.w3.org/2000/svg">
<path fill-rule="evenodd" clip-rule="evenodd" d="M236.205 501.647C239.706 507.996 246.369 511.952 253.619 511.988C260.869 512.024 267.571 508.133 271.135 501.819L406.784 261.49C472.247 145.51 388.45 1.98828 255.27 1.9883C122.847 1.98831 38.9687 144.042 102.923 259.997L236.205 501.647ZM371.95 241.829L253.919 450.942L137.949 240.679C88.6981 151.383 153.292 41.9883 255.27 41.9883C357.831 41.9883 422.363 152.513 371.95 241.829ZM227.687 176.434C227.687 160.385 240.697 147.375 256.746 147.375C272.795 147.375 285.805 160.385 285.805 176.434C285.805 192.483 272.795 205.493 256.746 205.493C240.697 205.493 227.687 192.483 227.687 176.434ZM256.746 107.375C218.606 107.375 187.687 138.294 187.687 176.434C187.687 214.575 218.606 245.493 256.746 245.493C294.887 245.493 325.805 214.575 325.805 176.434C325.805 138.294 294.887 107.375 256.746 107.375Z" fill="#BCBCCF"/>
</svg>
