<svg width="512" height="513" viewBox="0 0 512 513" fill="none" xmlns="http://www.w3.org/2000/svg">
<g clip-path="url(#clip0_260_1428)">
<path fill-rule="evenodd" clip-rule="evenodd" d="M19.7656 52.9844C8.71993 52.9844 -0.234375 61.9387 -0.234375 72.9844C-0.234375 84.0301 8.71993 92.9844 19.7656 92.9844L491 92.9844C502.046 92.9844 511 84.0301 511 72.9844C511 61.9387 502.046 52.9844 491 52.9844L19.7656 52.9844ZM19.7656 175.651C8.71993 175.651 -0.234375 184.606 -0.234375 195.651C-0.234375 206.697 8.71993 215.651 19.7656 215.651L491 215.651C502.046 215.651 511 206.697 511 195.651C511 184.606 502.046 175.651 491 175.651L19.7656 175.651ZM-0.234375 318.317C-0.234375 307.272 8.71993 298.317 19.7656 298.317L491 298.317C502.046 298.317 511 307.272 511 318.317C511 329.363 502.046 338.317 491 338.317L19.7656 338.317C8.71993 338.317 -0.234375 329.363 -0.234375 318.317ZM19.7656 420.984C8.71993 420.984 -0.234375 429.939 -0.234375 440.984C-0.234375 452.03 8.71993 460.984 19.7656 460.984L491 460.984C502.046 460.984 511 452.03 511 440.984C511 429.939 502.046 420.984 491 420.984L19.7656 420.984Z" fill="#BCBCCF"/>
</g>
<defs>
<clipPath id="clip0_260_1428">
<rect width="512" height="512" fill="white" transform="translate(0 0.984375)"/>
</clipPath>
</defs>
</svg>
