<svg width="512" height="513" viewBox="0 0 512 513" fill="none" xmlns="http://www.w3.org/2000/svg">
<path fill-rule="evenodd" clip-rule="evenodd" d="M229.889 1.98438C103.477 1.98438 1 104.461 1 230.873V283.095C1 409.507 103.477 511.984 229.889 511.984H282.111C408.523 511.984 511 409.507 511 283.095V230.873C511 104.461 408.523 1.98438 282.111 1.98438H229.889ZM41 230.873C41 126.553 125.568 41.9844 229.889 41.9844H282.111C386.432 41.9844 471 126.553 471 230.873V283.095C471 387.416 386.432 471.984 282.111 471.984H229.889C125.568 471.984 41 387.416 41 283.095V230.873ZM359.632 276.28C370.677 276.205 379.571 267.19 379.496 256.144C379.42 245.099 370.405 236.206 359.36 236.281L152.359 237.689C141.314 237.764 132.42 246.779 132.495 257.825C132.571 268.87 141.586 277.763 152.631 277.688L359.632 276.28Z" fill="#BCBCCF"/>
</svg>
