<svg width="512" height="513" viewBox="0 0 512 513" fill="none" xmlns="http://www.w3.org/2000/svg">
<g clip-path="url(#clip0_260_1442)">
<path fill-rule="evenodd" clip-rule="evenodd" d="M295.625 6.98438C284.579 6.98438 275.625 15.9387 275.625 26.9844C275.625 38.0301 284.579 46.9844 295.625 46.9844L320.626 46.9844C404.228 46.9844 472 114.757 472 198.358V223.942C472 234.988 480.955 243.942 492 243.942C503.046 243.942 512 234.988 512 223.942V198.358C512 92.6655 426.319 6.98439 320.626 6.98438L295.625 6.98438ZM153.442 79.2419C69.0028 79.2419 0.493942 147.447 0.00264564 231.771C0.000884126 231.88 0 231.99 0 232.1L0 232.619L-1.34143e-05 232.684L-1.92473e-05 299.405L-6.34832e-06 299.428L-2.40104e-05 486.747C-2.47223e-05 494.89 4.93701 502.22 12.483 505.28C20.0291 508.341 28.6772 506.521 34.3495 500.678L145.565 386.126L279.309 386.126C364.052 386.126 432.751 317.428 432.751 232.684C432.751 147.94 364.052 79.2419 279.309 79.2419L153.442 79.2419ZM40 232.684L40 232.625C40.0321 170 90.8095 119.242 153.442 119.242L279.309 119.242C341.961 119.242 392.751 170.032 392.751 232.684C392.751 295.336 341.961 346.126 279.309 346.126L138.874 346.126C136.774 346.126 134.75 346.45 132.848 347.05C128.926 347.783 125.185 349.695 122.194 352.775L40 437.435L40 299.405L40 232.684ZM282 216.747C273.385 216.747 266.4 223.731 266.4 232.347L266.4 241.147C266.4 249.762 273.385 256.747 282 256.747H290.8C299.416 256.747 306.4 249.762 306.4 241.147L306.4 232.347C306.4 223.731 299.416 216.747 290.8 216.747H282ZM196.199 232.347C196.199 223.731 203.184 216.747 211.799 216.747H220.599C229.215 216.747 236.199 223.731 236.199 232.347V241.147C236.199 249.762 229.215 256.747 220.599 256.747H211.799C203.184 256.747 196.199 249.762 196.199 241.147V232.347ZM141.6 216.747C132.984 216.747 126 223.731 126 232.347V241.147C126 249.762 132.984 256.747 141.6 256.747H150.4C159.016 256.747 166 249.762 166 241.147V232.347C166 223.731 159.016 216.747 150.4 216.747H141.6Z" fill="#BCBCCF"/>
</g>
<defs>
<clipPath id="clip0_260_1442">
<rect width="512" height="512" fill="white" transform="translate(0 0.984375)"/>
</clipPath>
</defs>
</svg>
