<svg width="512" height="513" viewBox="0 0 512 513" fill="none" xmlns="http://www.w3.org/2000/svg">
<g clip-path="url(#clip0_255_3108)">
<path fill-rule="evenodd" clip-rule="evenodd" d="M306.939 0.984387C383.188 0.98438 445 62.7963 445 139.045L445 374.924C445 451.172 383.188 512.984 306.939 512.984H199.061C122.812 512.984 61 451.172 61 374.924L61 139.045C61 62.7963 122.812 0.984405 199.061 0.984398L306.939 0.984387ZM405 139.045C405 84.8877 361.097 40.9844 306.939 40.9844L199.061 40.9844C144.903 40.9844 101 84.8877 101 139.045L101 320.984L405 320.984L405 139.045ZM101 374.924V360.984L405 360.984V374.924C405 429.081 361.097 472.984 306.939 472.984L199.061 472.984C144.903 472.984 101 429.081 101 374.924ZM260 390.984C268.837 390.984 276 398.148 276 406.984V414.984C276 423.821 268.837 430.984 260 430.984H252C243.163 430.984 236 423.821 236 414.984V406.984C236 398.148 243.163 390.984 252 390.984H260ZM280.438 135.871L231.778 135.871C220.732 135.871 211.778 126.917 211.778 115.871C211.778 104.825 220.732 95.8711 231.778 95.8711L280.438 95.8711C291.483 95.8711 300.438 104.825 300.438 115.871C300.438 126.917 291.483 135.871 280.438 135.871Z" fill="#BCBCCF"/>
</g>
<defs>
<clipPath id="clip0_255_3108">
<rect width="512" height="512" fill="white" transform="translate(0 0.984375)"/>
</clipPath>
</defs>
</svg>
