<svg width="512" height="513" viewBox="0 0 512 513" fill="none" xmlns="http://www.w3.org/2000/svg">
<path fill-rule="evenodd" clip-rule="evenodd" d="M211.94 11.6578C216.136 19.0578 215.309 28.6722 209.905 35.2475C183.338 67.8694 167.44 109.442 167.44 154.858C167.44 259.649 252.177 344.364 357.011 344.364C402.455 344.364 444.051 328.46 476.683 301.897L476.78 301.817L476.88 301.74C483.838 296.375 493.88 296.01 501.212 300.874C508.543 305.737 512.114 315.126 509.871 323.63L509.841 323.742L509.809 323.853C478.43 432.075 378.563 511.289 260.305 511.289C116.939 511.289 0.46875 394.86 0.46875 251.534C0.46875 134.415 78.0778 35.1398 184.829 2.81089L185.305 2.20742L189.047 1.65406C191.609 1.27498 195.776 0.766468 200.135 2.01298C205.016 3.40841 209.032 6.63587 211.897 11.5827L211.919 11.6202L211.94 11.6578ZM357.007 386.181C387.471 386.181 416.635 380.282 443.337 369.56C404.547 429.622 337.17 469.482 260.299 469.482C139.759 469.482 42.2837 372.034 42.2837 251.541C42.2837 174.55 82.1657 106.963 142.373 68.1873C131.56 94.9835 125.614 124.269 125.614 154.861C125.614 282.477 229.35 386.181 357.007 386.181Z" fill="#BCBCCF"/>
</svg>
