<svg width="512" height="514" viewBox="0 0 512 514" fill="none" xmlns="http://www.w3.org/2000/svg">
<g clip-path="url(#clip0_968_1920)">
<path fill-rule="evenodd" clip-rule="evenodd" d="M256 1.14844C165.425 1.14844 92 74.5737 92 165.148V349.148C92 439.723 165.425 513.148 256 513.148C346.575 513.148 420 439.723 420 349.148V165.148C420 74.5737 346.575 1.14844 256 1.14844ZM136 165.148C136 98.8743 189.726 45.1484 256 45.1484C322.274 45.1484 376 98.8743 376 165.148V349.148C376 415.423 322.274 469.148 256 469.148C189.726 469.148 136 415.423 136 349.148V165.148ZM278 105.648C278 93.4982 268.15 83.6484 256 83.6484C243.85 83.6484 234 93.4982 234 105.648V152.148C234 164.299 243.85 174.148 256 174.148C268.15 174.148 278 164.299 278 152.148V105.648Z" fill="#BCBCCF"/>
</g>
<defs>
<clipPath id="clip0_968_1920">
<rect width="512" height="512" fill="white" transform="translate(0 1.14844)"/>
</clipPath>
</defs>
</svg>
