<svg width="512" height="513" viewBox="0 0 512 513" fill="none" xmlns="http://www.w3.org/2000/svg">
<g clip-path="url(#clip0_968_887)">
<path fill-rule="evenodd" clip-rule="evenodd" d="M256 0C165.425 0 92 73.4253 92 164V348C92 438.575 165.425 512 256 512C346.575 512 420 438.575 420 348V164C420 73.4253 346.575 0 256 0ZM278 104.5C278 92.3497 268.15 82.5 256 82.5C243.85 82.5 234 92.3497 234 104.5V151C234 163.15 243.85 173 256 173C268.15 173 278 163.15 278 151V104.5Z" fill="#989898"/>
</g>
<defs>
<clipPath id="clip0_968_887">
<rect width="512" height="512" fill="white" transform="translate(0 0.227539)"/>
</clipPath>
</defs>
</svg>
