<svg width="512" height="513" viewBox="0 0 512 513" fill="none" xmlns="http://www.w3.org/2000/svg">
<path fill-rule="evenodd" clip-rule="evenodd" d="M137.549 48.2284C173.816 36.4686 214.655 39.5211 250.155 60.0169C285.655 80.5127 308.718 114.354 316.667 151.642L137.549 48.2284ZM95.6262 70.2122C86.4115 77.2597 77.9728 85.5361 70.5755 94.9708L309.674 233.014C314.146 221.891 317.094 210.444 318.59 198.94L95.6262 70.2122ZM359.24 194.596C357.252 220.72 349.515 246.828 335.536 271.039C304.774 324.322 250.944 356.016 194.018 360.659C207.316 424.147 263.414 471.733 330.482 471.733C407.429 471.733 469.936 409.098 469.936 331.673C469.936 264.166 422.417 207.902 359.24 194.596ZM153.13 359.307C131.525 356.086 110.156 348.831 90.095 337.249C4.20176 287.658 -24.9728 177.645 24.7136 91.5855C74.4 5.52622 184.262 -24.2146 270.155 25.3759C319.184 53.683 349.733 101.678 357.682 153.667C443.935 166.822 509.936 241.566 509.936 331.673C509.936 431.046 429.663 511.733 330.482 511.733C240.679 511.733 166.377 445.582 153.13 359.307ZM289.674 267.655L50.5757 129.612C46.1036 140.736 43.1555 152.183 41.6597 163.687L264.622 292.414C273.837 285.367 282.276 277.09 289.674 267.655ZM222.698 314.397L43.5837 210.986C51.5338 248.273 74.5964 282.113 110.095 302.608C145.594 323.103 186.431 326.156 222.698 314.397Z" fill="#BCBCCF"/>
</svg>
