<svg width="512" height="513" viewBox="0 0 512 513" fill="none" xmlns="http://www.w3.org/2000/svg">
<g clip-path="url(#clip0_260_1949)">
<path fill-rule="evenodd" clip-rule="evenodd" d="M296.854 37.3156C345.822 -11.652 425.214 -11.652 474.181 37.3156C523.149 86.2831 523.149 165.675 474.181 214.643L456.277 232.547L332.385 356.439C320.145 368.679 305.891 378.721 290.245 386.125L28.3726 510.063C20.7393 513.676 11.6594 512.105 5.68397 506.137C-0.291465 500.169 -1.87457 491.092 1.72813 483.454L125.349 221.368C132.762 205.652 142.834 191.336 155.12 179.049L276.489 57.6808C277.41 56.0473 278.578 54.517 279.993 53.145C281.254 51.9215 282.635 50.8975 284.097 50.0725L296.854 37.3156ZM294.211 96.5274L183.404 207.334C174.375 216.363 166.974 226.883 161.527 238.432L112.024 343.383L168.25 399.609L273.133 349.97C284.631 344.529 295.106 337.149 304.101 328.155L414.992 217.263L352.083 156.177C351.94 156.038 351.799 155.897 351.66 155.753L294.211 96.5274ZM443.28 188.976L380.163 127.688L322.498 68.2399L325.138 65.5998C358.485 32.2533 412.55 32.2533 445.897 65.5998C479.243 98.9464 479.243 153.012 445.897 186.358L443.28 188.976ZM93.893 381.821L61.7215 450.027L129.854 417.781L93.893 381.821Z" fill="#BCBCCF"/>
</g>
<defs>
<clipPath id="clip0_260_1949">
<rect width="512" height="512" fill="white" transform="translate(0 0.136719)"/>
</clipPath>
</defs>
</svg>
