<svg width="512" height="513" viewBox="0 0 512 513" fill="none" xmlns="http://www.w3.org/2000/svg">
<g clip-path="url(#clip0_968_912)">
<path d="M296.854 37.6212C345.822 -11.3464 425.214 -11.3464 474.181 37.6212C523.149 86.5887 523.149 165.981 474.181 214.948L472.872 216.258L295.544 38.9309L296.854 37.6212Z" fill="#989898"/>
<path d="M264.432 70.0436L155.12 179.355C142.834 191.642 132.762 205.958 125.349 221.673L83.2599 310.906L199.091 429.572L290.245 386.431C305.891 379.026 320.145 368.984 332.385 356.744L441.759 247.371L264.432 70.0436Z" fill="#989898"/>
<path d="M63.228 353.375L157.033 449.477L28.3727 510.369C20.7394 513.982 11.6595 512.41 5.68406 506.443C-0.291372 500.475 -1.87447 491.397 1.72822 483.759L63.228 353.375Z" fill="#989898"/>
</g>
<defs>
<clipPath id="clip0_968_912">
<rect width="512" height="512" fill="white" transform="translate(0 0.44043)"/>
</clipPath>
</defs>
</svg>
