<svg width="512" height="513" viewBox="0 0 512 513" fill="none" xmlns="http://www.w3.org/2000/svg">
<path fill-rule="evenodd" clip-rule="evenodd" d="M34 81.7037C34 37.2078 70.0711 1.13672 114.567 1.13672H142.428C166.854 1.13672 186.655 20.9377 186.655 45.3635V190.724C186.655 215.15 166.854 234.951 142.428 234.951H114.567C99.7751 234.951 85.9142 230.965 74.0001 224.008C74.0786 335.468 147.893 429.676 249.301 460.49C245.599 451.24 243.562 441.143 243.562 430.57V402.709C243.562 378.283 263.363 358.482 287.789 358.482H433.15C457.576 358.482 477.377 378.283 477.377 402.709V430.57C477.377 475.066 441.306 511.137 396.81 511.137H324.13C324.044 511.137 323.959 511.137 323.874 511.136H321.306C162.631 511.136 34 382.505 34 223.83V154.384V99.2678V81.7037ZM368.47 471.137H396.81C419.214 471.137 437.377 452.974 437.377 430.57V402.709C437.377 400.374 435.485 398.482 433.15 398.482L287.789 398.482C285.455 398.482 283.562 400.374 283.562 402.709V430.57C283.562 452.914 301.627 471.039 323.948 471.136H368.343C368.385 471.136 368.428 471.136 368.47 471.137ZM114.567 194.951C92.1625 194.951 74 176.789 74 154.384V99.2678V81.7037C74 59.2992 92.1625 41.1367 114.567 41.1367H142.428C144.762 41.1367 146.655 43.0291 146.655 45.3635V190.724C146.655 193.059 144.762 194.951 142.428 194.951H114.567Z" fill="#BCBCCF"/>
</svg>
