<svg width="512" height="513" viewBox="0 0 512 513" fill="none" xmlns="http://www.w3.org/2000/svg">
<path fill-rule="evenodd" clip-rule="evenodd" d="M175 55.1367C175 42.9865 184.85 33.1367 197 33.1367H314C326.15 33.1367 336 42.9865 336 55.1367C336 67.287 326.15 77.1367 314 77.1367H197C184.85 77.1367 175 67.287 175 55.1367ZM2 203.637C2 141.781 52.1441 91.6367 114 91.6367H398C459.856 91.6367 510 141.781 510 203.637V366.637C510 428.493 459.856 478.637 398 478.637H114C52.1441 478.637 2 428.493 2 366.637V203.637ZM114 135.637C76.4446 135.637 46 166.081 46 203.637V366.637C46 404.192 76.4446 434.637 114 434.637H398C435.555 434.637 466 404.192 466 366.637V203.637C466 166.081 435.555 135.637 398 135.637H114ZM183 285.137C183 244.544 215.907 211.637 256.5 211.637C297.093 211.637 330 244.544 330 285.137C330 325.73 297.093 358.637 256.5 358.637C215.907 358.637 183 325.73 183 285.137ZM256.5 167.637C191.607 167.637 139 220.243 139 285.137C139 350.03 191.607 402.637 256.5 402.637C321.393 402.637 374 350.03 374 285.137C374 220.243 321.393 167.637 256.5 167.637Z" fill="#BCBCCF"/>
</svg>
