<svg width="512" height="513" viewBox="0 0 512 513" fill="none" xmlns="http://www.w3.org/2000/svg">
<path fill-rule="evenodd" clip-rule="evenodd" d="M1 230.027C1 103.614 103.478 1.13672 229.89 1.13672H282.11C408.522 1.13672 511 103.614 511 230.027V282.247C511 408.659 408.522 511.137 282.11 511.137H229.89C103.478 511.137 1 408.659 1 282.247V230.027ZM229.89 41.1367C125.569 41.1367 41 125.706 41 230.027V282.247C41 332.44 60.5774 378.06 92.5127 411.889L149.255 337.878C179.038 299.03 237.492 298.787 267.597 337.386L283.19 357.379L293.538 345.501C322.132 312.68 372.603 311.114 403.178 342.099L442.545 381.994C460.581 353.047 471 318.864 471 282.247V230.027C471 125.706 386.431 41.1367 282.11 41.1367H229.89ZM229.89 471.137C190.181 471.137 153.334 458.884 122.923 437.952C123.046 437.802 123.166 437.649 123.285 437.494L180.999 362.215C194.855 344.142 222.05 344.029 236.056 361.986L318.461 467.642C306.698 469.935 294.544 471.137 282.11 471.137H229.89ZM417.98 413.467C401.161 430.879 381.025 445.066 358.591 455.012C357.942 453.555 357.106 452.152 356.081 450.836L308.249 389.509L323.697 371.777C337 356.507 360.481 355.778 374.706 370.194L414.85 410.877C415.823 411.863 416.873 412.726 417.98 413.467ZM284.688 193.524C284.688 180.055 295.606 169.137 309.075 169.137C322.544 169.137 333.462 180.055 333.462 193.524C333.462 206.993 322.544 217.912 309.075 217.912C295.606 217.912 284.688 206.993 284.688 193.524ZM309.075 129.137C273.515 129.137 244.688 157.964 244.688 193.524C244.688 229.084 273.515 257.912 309.075 257.912C344.635 257.912 373.462 229.084 373.462 193.524C373.462 157.964 344.635 129.137 309.075 129.137Z" fill="#BCBCCF"/>
</svg>
