<svg width="512" height="512" viewBox="0 0 512 512" fill="none" xmlns="http://www.w3.org/2000/svg">
<g clip-path="url(#clip0_260_1276)">
<path fill-rule="evenodd" clip-rule="evenodd" d="M276 20C276 8.9543 267.046 0 256 0C244.954 0 236 8.9543 236 20V236.002H20.125C9.0793 236.002 0.125 244.956 0.125 256.002C0.125 267.047 9.0793 276.002 20.125 276.002H236V491.877C236 502.923 244.954 511.877 256 511.877C267.046 511.877 276 502.923 276 491.877V276.002H492.002C503.048 276.002 512.002 267.047 512.002 256.002C512.002 244.956 503.048 236.002 492.002 236.002H276V20Z" fill="#BCBCCF"/>
</g>
<defs>
<clipPath id="clip0_260_1276">
<rect width="512" height="512" fill="white"/>
</clipPath>
</defs>
</svg>
