<svg width="508" height="324" viewBox="0 0 508 324" fill="none" xmlns="http://www.w3.org/2000/svg">
<path fill-rule="evenodd" clip-rule="evenodd" d="M395.052 81.833C360.938 22.162 292.194 -9.87087 223.722 3.32572C157.886 16.0143 107.419 67.6053 95.2936 132.061C74.0721 132.475 53.3528 139.897 36.5525 153.506C14.0621 171.724 0.986901 199.097 0.984375 228.027V228.028C0.984375 251.037 7.11207 269.573 17.3661 284.032C27.4944 298.313 40.7669 307.386 53.2513 313.13C65.6778 318.847 77.8358 321.511 86.6971 322.781C91.1789 323.424 94.9538 323.729 97.6818 323.873C99.0492 323.946 100.163 323.978 100.983 323.992C101.393 323.999 101.73 324.001 101.989 324.001C102.119 324.001 102.229 324.001 102.319 324C102.32 324 102.321 324 102.322 324L396.605 324C397.468 324 398.33 323.944 399.186 323.833L396.605 303.962C399.186 323.833 399.195 323.832 399.206 323.83L399.227 323.828L399.278 323.821C399.314 323.816 399.356 323.81 399.403 323.804C399.499 323.791 399.616 323.774 399.755 323.754C400.033 323.713 400.399 323.658 400.845 323.585C401.737 323.44 402.956 323.227 404.456 322.927C407.45 322.329 411.595 321.382 416.513 319.941C426.277 317.081 439.472 312.164 452.831 303.894C480.179 286.965 507.994 255.844 508.001 202.736C508.031 169.787 494.604 138.258 470.832 115.413C450.206 95.5908 423.336 83.7892 395.052 81.833ZM395.032 283.923C395.448 283.85 395.976 283.753 396.605 283.627C398.607 283.227 401.599 282.549 405.246 281.481C412.612 279.323 422.256 275.687 431.736 269.818C450.064 258.473 467.924 238.977 467.924 202.717V202.699C467.945 180.684 458.975 159.6 443.063 144.309C427.149 129.016 405.665 120.839 383.561 121.679C375.538 121.984 368.108 117.471 364.68 110.211C340.955 59.9651 286.05 32.1275 231.306 42.6782C176.57 53.2275 136.038 99.4464 132.791 154.867C132.45 160.685 129.592 166.067 124.964 169.608C120.335 173.15 114.394 174.501 108.689 173.309C92.13 169.85 74.8967 174.021 61.7786 184.647C48.6641 195.271 41.063 211.209 41.061 228.028M395.032 283.923L102.23 283.923C102.159 283.923 102.088 283.924 102.017 283.924C102.014 283.924 102.009 283.924 102.004 283.924C101.956 283.924 101.837 283.924 101.652 283.921C101.282 283.915 100.652 283.898 99.7988 283.853C98.0858 283.762 95.5164 283.559 92.385 283.11C86.0201 282.198 77.8763 280.344 70.001 276.721C62.1837 273.125 55.1545 268.037 50.0565 260.848C45.0844 253.837 41.0613 243.595 41.061 228.03M102.23 303.962C101.93 283.925 101.939 283.925 101.948 283.925L101.963 283.925L101.99 283.925L102.004 283.924M393.979 284.096C393.951 284.1 393.937 284.102 393.937 284.102L393.939 284.101L393.965 284.098L393.979 284.096Z" fill="#BCBCCF"/>
</svg>
