<svg width="512" height="513" viewBox="0 0 512 513" fill="none" xmlns="http://www.w3.org/2000/svg">
<g clip-path="url(#clip0_968_1256)">
<path fill-rule="evenodd" clip-rule="evenodd" d="M227.615 0.227539C101.907 0.227539 0 102.134 0 227.843L0 284.612C0 410.321 101.907 512.228 227.615 512.228H284.385C410.093 512.228 512 410.321 512 284.612L512 227.843C512 102.134 410.093 0.227539 284.385 0.227539L227.615 0.227539ZM236.44 175.6C225.143 169.954 211.729 170.559 200.985 177.197C190.241 183.835 183.698 195.561 183.691 208.19V303.052C183.698 315.682 190.241 327.407 200.985 334.045C211.729 340.683 225.143 341.288 236.44 335.642L331.303 288.211C343.636 282.03 351.423 269.416 351.423 255.621C351.423 241.826 343.636 229.212 331.303 223.031L236.44 175.6Z" fill="#989898"/>
</g>
<defs>
<clipPath id="clip0_968_1256">
<rect width="512" height="512" fill="white" transform="translate(0 0.227539)"/>
</clipPath>
</defs>
</svg>
